<svg id="Layer_1" xmlns="http://www.w3.org/2000/svg" viewBox="0 0 100 100"><style>.st0{fill:#ea5397}.st1{fill:#07c8e8}</style><path class="st0" d="M19.4 45.7c-1.1.5-2.3.7-3.4.7-3.5 0-6.9-2.1-8.3-5.6-1.9-4.6.3-9.9 4.9-11.8.3-.1.5 0 .7.3l3.1 7.4 7.4-3.1h.4c.1 0 .2.2.3.3 1.7 4.6-.5 9.9-5.1 11.8z"/><circle class="st1" cx="36.8" cy="46.6" r="3.7"/><circle class="st1" cx="59.1" cy="37.4" r="3.7"/><path class="st0" d="M86.6 76c-2.4 5.7-6.8 10.1-12.5 12.5l-11.2 4.6c-2.8 1.2-5.8 1.8-8.8 1.8s-6-.6-8.8-1.8c-5.7-2.4-10.1-6.8-12.5-12.5-2.4-5.7-2.4-12 0-17.6 2.3-5.7 6.8-10.1 12.5-12.5l11.2-4.6c5.7-2.4 12-2.4 17.6 0 5.7 2.3 10.1 6.8 12.5 12.5 2.4 5.7 2.4 12 0 17.6z"/><circle class="st0" cx="67.8" cy="16.5" r="8.5"/><path d="M95.6 62.1l-11-.6c-.2-1.6-.6-3.2-1.1-4.8l10.1-4.2c.5-.2.7-.7.5-1.2-.2-.5-.7-.7-1.2-.5L82.8 55c-.7-1.6-1.5-3-2.5-4.4l7.2-8c.3-.4.3-.9-.1-1.3-.4-.3-.9-.3-1.3.1l-7 7.8c-2.1-2.5-4.8-4.6-7.8-6 2.4-6.3 1.4-13.4-2.5-19.8 2.3-.9 4.3-2.7 5.3-5.1v-.1l.2-.4v-.1c0-.1.1-.2.1-.4l.2-.9c.4-2.2.1-4.5-1-6.4l-.3-.6c-.1-.2-.2-.3-.3-.5-.4-.6-.9-1.1-1.5-1.6l-.1-.1-.3-.3c-.2-.1-.4-.3-.6-.4 0 0-.1 0-.1-.1L69 5.7c-4.7-1.9-10.2.4-12.2 5.1v.2c-.9 2.3-.9 4.9.1 7.2s2.8 4.1 5.2 5c1.1.5 2.3.7 3.5.7.5 0 1.1 0 1.6-.1 3.9 6 4.8 12.7 2.7 18.6-2.9-1.1-5.9-1.7-8.9-1.6.1-.2.3-.4.4-.7.2-.6.4-1.2.4-1.7 0-.6-.1-1.2-.4-1.8-1-2.3-3.6-3.4-6-2.5-1.1.5-2 1.3-2.5 2.5-.5 1.1-.5 2.4 0 3.5.3.7.8 1.3 1.3 1.8-.6.2-1.3.4-1.9.7l-11.2 4.6c-.6.3-1.2.5-1.8.8v-.4c0-.6-.1-1.2-.4-1.7-1-2.3-3.6-3.4-6-2.5-2.3 1-3.4 3.6-2.5 6 .5 1.1 1.4 2 2.5 2.5.2.1.5.2.7.2-2.1 2.1-3.8 4.6-5.1 7.4-5.6-2.6-9.7-8-11.2-14.8 4.2-2.3 6.1-7.4 4.2-11.9-.1-.2-.3-.4-.5-.5-.2-.1-.5-.1-.7 0l-7 2.9-2.9-7c-.2-.5-.7-.7-1.2-.5-2.3 1-4.1 2.8-5.1 5.1s-1 4.9 0 7.2c1.5 3.6 5 5.8 8.7 5.8.9 0 1.9-.1 2.8-.4 1.7 7.3 6.1 13 12.2 15.8-1.1 3.2-1.5 6.5-1.2 9.7l-10.4-.6c-.5 0-.9.3-.9.8s.3.9.8 1l10.9.5c.3 1.6.7 3.3 1.4 4.9l-10 4.1c-.5.2-.7.7-.5 1.2.1.4.5.6.8.6.1 0 .2 0 .3-.1l10.1-4.2c.7 1.5 1.6 2.9 2.6 4.2l-7.3 8.2c-.3.4-.3.9.1 1.3.2.2.4.2.6.2.2 0 .5-.1.7-.3l7.2-8c2.3 2.5 5.1 4.4 8.3 5.8 2.9 1.2 5.9 1.8 9 1.8 3 0 6.1-.6 9-1.8l11.2-4.6C76.1 83.5 80.6 79 83 73.2c1.3-3.2 1.9-6.6 1.8-9.9l10.8.6c.5 0 .9-.4.9-.9s-.4-.9-.9-.9zM62.8 21.6c-1.9-.8-3.4-2.2-4.2-4.1-.7-1.6-.8-3.3-.4-4.9l6.8 2.8c.1 0 .2.1.3.1.3 0 .7-.2.8-.5.2-.5 0-1-.5-1.2L58.9 11c1.8-3.4 5.9-5 9.5-3.5l1.3.5c.2.1.3.2.5.3.1.1.2.1.3.2l.1.1c.4.4.8.8 1.2 1.3.1.1.2.2.3.4.1.2.2.3.3.5.9 1.6 1.2 3.4.8 5.2l-.2.8c0 .1-.1.2-.1.2l-.2.4c-1.7 3.9-6.1 5.7-9.9 4.2zM5.9 39.2c-1.5-3.6 0-7.7 3.3-9.6l2.9 7c.2.5.7.7 1.2.5l7-2.9c1 3.7-.8 7.6-4.4 9.1-3.9 1.7-8.4-.2-10-4.1zm50.2-3.4c.3-.1.7-.2 1-.2 1.1 0 2.1.6 2.6 1.7.3.7.3 1.4 0 2.1-.3.7-.8 1.2-1.5 1.5-.1 0-.2.1-.3.1-.2.1-.4.1-.6.1-1.2.1-2.3-.6-2.7-1.7-.6-1.4.1-3 1.5-3.6zM33.7 50.2c-.7-.3-1.2-.8-1.5-1.5-.6-1.4.1-3 1.5-3.6.3-.1.7-.2 1.1-.2 1.1 0 2.1.6 2.6 1.7s.1 2.3-.7 3.1c-.2.1-.3.3-.5.4-.1 0-.2.1-.3.1-.7.3-1.5.3-2.2 0zm47.6 22.3c-1.1 2.7-2.7 5-4.7 7s-4.4 3.6-7 4.7l-11.2 4.6C53 91 47.2 91 41.8 88.8c-5.4-2.2-9.5-6.4-11.7-11.7-2.2-5.3-2.2-11.2 0-16.6 1.5-3.6 3.9-6.7 6.9-9 .2-.2.5-.4.7-.5 1.3-.9 2.6-1.6 4.1-2.2L53 44.2c1.5-.6 3-1 4.4-1.3.3-.1.5-.1.8-.1 1-.2 2-.2 3-.2 8.5 0 16.6 5 20 13.4 2.3 5.3 2.3 11.2.1 16.5z" fill="#1e1e1e"/></svg>