<svg xmlns="http://www.w3.org/2000/svg" viewBox="0 0 85 80"><path d="M81.7 49.7c0 .3-.1.6-.3.8l-25 25c-.2.2-.4.3-.6.3h-.1c-.3 0-.5-.2-.7-.5l-6-11.2c0-.1-.1-.2-.1-.2l-23.4 1h-.4c-2.1 0-4-.9-5.3-2.5C8.5 48.8 9.5 28.4 21.9 16 34.4 3.5 54.7 2.6 68.3 13.8c1.7 1.4 2.6 3.5 2.4 5.8l-1 23.3c.1 0 .2 0 .3.1l11.2 6c.3.2.4.4.5.7z" fill="#f9cc12"/><path d="M72.6 47.3l-11.2-6c-.1 0-.2-.1-.3-.1l1-23.3c.1-2.2-.8-4.4-2.4-5.8C46.1.9 25.8 1.8 13.3 14.3.9 26.7-.1 47.1 11.2 60.6c1.3 1.6 3.3 2.5 5.3 2.5h.4l23.4-.9c0 .1 0 .1.1.2l6 11.2c.1.2.4.4.7.5h.1c.2 0 .5-.1.6-.3l25-25c.2-.2.3-.5.2-.8 0-.3-.2-.6-.4-.7zM58.5 13.5c1.2 1 1.9 2.6 1.8 4.3l-1.1 24.7-3.7 3.7-22-39.9c8.8-1.1 17.9 1.3 25 7.2zM31.7 6.6l22.5 40.9-3.2 3.2-35.8-35.8c4.7-4.4 10.5-7.2 16.5-8.3zM14 16.2L49.8 52l-3.2 3.2L5.7 32.7c1.1-6.1 3.8-11.8 8.3-16.5zm27.5 44.1l-24.6 1c-1.7.1-3.2-.6-4.2-1.8-5.9-7.1-8.3-16.2-7.2-24.9l39.9 22-3.9 3.7zm5.9 11.3L42.2 62l9.4-9.4 9.4-9.4 9.6 5.2-23.2 23.2z" fill="#1e1e1e"/></svg>