<svg id="Layer_1" xmlns="http://www.w3.org/2000/svg" viewBox="0 0 70 70"><style>.st0{fill:#fc7e56}.st1{fill:none}.st2{fill:#1e1e1e}</style><path class="st0" d="M39 39.5l-.9.3-.5.8-.6-.8-.9-.3.5-.8V37.8l.9.3.9-.3V38.7l.6.8z"/><path class="st0" d="M56.9 44.3c-.7.7-1 1.6-.8 2.5L58.6 61c.3 1.8-.4 3.5-1.8 4.6-1.4 1.1-3.3 1.2-4.9.4L39 59.4c-.8-.4-1.8-.4-2.7 0l-12.7 6.8c-.7.4-1.4.6-2.2.6-1 0-1.9-.3-2.7-.9-1.5-1-2.2-2.8-1.9-4.6l2.3-14.2c.2-.9-.2-1.9-.8-2.5l-10.4-10c-1.3-1.2-1.8-3.1-1.2-4.8.5-1.7 2-2.9 3.8-3.2l14.2-2.2c.9-.1 1.8-.7 2.2-1.6l6.3-13c.8-1.6 2.4-2.6 4.2-2.6 1.8 0 3.4 1 4.2 2.6L48 22.7c.4.9 1.2 1.4 2.2 1.6l14.3 2c1.8.2 3.2 1.5 3.8 3.1.6 1.7.1 3.5-1.2 4.8L56.9 44.3z"/><path class="st1" d="M37.5 39l-.9-.2v-.1"/><path class="st0" d="M38.4 39c0 .2-.1.3-.2.5 0 .1-.1.2-.2.2-.1.1-.2.1-.4.2h-.1c-.1 0-.2 0-.3-.1H37l-.9-.3.5-.8V37.8l.9.3.2.1h.4s.1 0 .1.1c0 0 .1 0 .1.1l.1.1c0 .1.1.1.1.2-.1.2-.1.2-.1.3z"/><path class="st1" d="M37.5 39l-.3.4-.2.3v.1"/><path class="st0" d="M38.4 39c0 .2-.1.3-.2.5l-.2.2-.5.8-.5-.7-.9-.3.5-.8.1-.1s0-.1.1-.1l.1-.1c.1-.1.1-.1.2-.1h1s.1 0 .1.1c0 0 .1 0 .1.1l.1.1c0 .1.1.1.1.2-.1.1-.1.1-.1.2z"/><g><path class="st1" d="M37.5 39l.3.4.2.3.1.1M56 64.4l-.2-.3"/><path class="st0" d="M39 39.5l-.9.3-.5.8-.6-.8-.2-.2c-.1-.1-.1-.2-.1-.3v-.5s0-.1.1-.1c0 0 0-.1.1-.1l.1-.1c.1-.1.1-.1.2-.1h1s.1 0 .1.1c0 0 .1 0 .1.1l.1.1.1.1.4.7z"/></g><g><path class="st1" d="M37.5 39l.8-.3h.1M66.8 29.7l-.3.1"/><path class="st0" d="M39 39.5l-.9.3-.3.1h-.1-.1c-.1 0-.2 0-.3-.1-.1 0-.1-.1-.2-.1s-.2-.1-.2-.2c-.1-.1-.1-.2-.1-.3v-.5s0-.1.1-.1c0 0 0-.1.1-.1l.1-.1c.1-.1.1-.1.2-.1h.2l.2-.1.9-.3V38.8l.4.7z"/></g><g><path class="st1" d="M37.5 38.5v-.4M37.5 9"/><path class="st0" d="M38.4 37.8V38.7c-.1.3-.3.5-.6.6h-.5c-.3-.1-.5-.3-.6-.6V37.8l.9.3.8-.3z"/></g><path class="st2" d="M32.9 34.2zM32.9 34.2zM62.1 30.2c1.3-1.3 1.7-3.1 1.2-4.8-.6-1.7-2-2.9-3.8-3.1l-14.3-2c-.9-.1-1.8-.7-2.2-1.6L36.5 5.8c-.8-1.6-2.4-2.6-4.2-2.6-1.8 0-3.4 1-4.2 2.6l-6.3 13c-.4.8-1.2 1.4-2.2 1.6L5.4 22.6c-1.8.3-3.2 1.5-3.8 3.2-.5 1.7-.1 3.5 1.2 4.8l10.4 10c.7.7 1 1.6.8 2.5l-2.3 14.2c-.3 1.8.4 3.5 1.9 4.6.8.6 1.8.9 2.7.9.8 0 1.5-.2 2.2-.6l12.7-6.8c.8-.5 1.8-.5 2.7 0l13 6.6c1.6.8 3.5.7 4.9-.4 1.5-1.1 2.2-2.8 1.8-4.6l-2.5-14.2c-.2-.9.1-1.9.8-2.5l10.2-10.1zm-28.7-25c.7.2 1.2.7 1.5 1.4l6.5 12.9c.7 1.4 2 2.3 3.5 2.5l14.3 2c.7.1 1.4.5 1.8 1l-27.6 8.8V5.2zm-.5 29zM5.7 24.4L20 22.2c1.5-.2 2.8-1.2 3.5-2.6l6.3-13c.4-.8 1-1.3 1.8-1.5v28.7L3.8 25.5c.5-.6 1.1-1 1.9-1.1zm7.9 33.2l2.3-14.2c.2-1.5-.3-3.1-1.4-4.1l-10.4-10c-.6-.6-.9-1.3-.9-2.1L31 35.5 14.3 60.1c-.6-.7-.8-1.5-.7-2.5zm34.1 2.8l-12.8-6.6c-1.4-.7-3-.7-4.3 0l-12.7 6.8c-.6.3-1.2.4-1.9.3l16.6-24.4 17.5 24c-.8.4-1.7.3-2.4-.1zm1.6-17.2l2.5 14.2c.1.8 0 1.5-.4 2.1L34 35.5l27.8-8.8c.1.8-.2 1.6-.8 2.2L50.6 39c-1.1 1.1-1.6 2.7-1.3 4.2zM32.9 34.2zM32.9 34.2z"/></svg>