<svg id="Layer_1" xmlns="http://www.w3.org/2000/svg" viewBox="0 0 320 400"><style>.st1{fill:#1e1e1e}.st2{fill:#b7db53}</style><path d="M148.1 374.8s55-52 2-211l25-18s57 131 13 246" fill="#9b5851"/><path class="st1" d="M181.9 391.1c-.1.4-.5.6-.8.6-.1 0-.2 0-.3-.1-.5-.2-.7-.7-.5-1.2 22.6-59.2 17.9-122.7 10-165.6-6.5-34.9-16.1-62.1-20.5-73.7-.2-.6-.5-1.2-.7-1.8-.6-1.4-1-2.5-1.3-3.2l-1.8 1.3-1.5 1.1-18.9 13.6-1.4 1c0 .1.1.2.1.4.5 1.6 1.1 3.3 1.6 5 .2.6.4 1.3.6 1.9 14.3 44.9 27.5 106.3 16.3 157.7-7.1 32.8-20.6 45.8-21.1 46.3-.4.3-.9.3-1.3 0-.3-.4-.3-.9 0-1.3.1-.1 13.7-13.3 20.6-45.6 6.2-28.8 8.2-78.9-16.1-155.7-.2-.6-.4-1.3-.6-1.9-.7-2.2-1.5-4.5-2.2-6.8-.1-.4 0-.8.3-1l.5-.4 1.5-1.1 19.3-13.9 1.5-1.1 2.2-1.6c.2-.2.5-.2.8-.1.3.1.5.3.6.5 0 .1.8 1.8 2 5 .2.6.5 1.2.7 1.8 4.6 12 14 39 20.4 73.3 8.1 43.1 12.8 107-10 166.6z"/><path class="st2" d="M151 49.5c-.3.6-.3 1.4 0 2 .3.6.8 1.1 1.4 1.4.6.3 1.3.3 2 0l10.5-4.4c.3-.1.6-.1.8.1.2.2.4.5.4.8v35.9c0 .5-.4.9-.9.9h-14c-1.4 0-2.6 1.2-2.6 2.6s1.2 2.6 2.6 2.6h14c.5 0 .9.4.9.9v38.9c0 .3-.2.6-.4.8s-.6.2-.8.1l-10.5-4.4c-.7-.3-1.3-.3-2 0-.6.3-1.1.8-1.4 1.4-.3.6-.3 1.4 0 2 .3.6.8 1.1 1.4 1.4l13.2 5.5c.5.2.7.7.5 1.2-.2.5-.7.7-1.2.5l-.6-.2-22.5 14.5c.2.3.2.8-.1 1.1-.2.2-.4.3-.7.3-.2 0-.4-.1-.6-.2-15.2-13.7-24.6-39.1-24.6-66.3 0-42.3 22.2-76.7 49.4-76.7.5 0 .9.4.9.9v28.8c0 .4-.2.7-.6.8l-13.2 5.5c-.5.2-1 .7-1.3 1.3z"/><path class="st2" d="M164.4 152.5c0 .2-.1.5-.2.7-.2.2-.4.3-.6.3l-25.6 2.4c-.4 0-.7-.1-.9-.5l-6.7-12.6c-.3-.6-.9-1.1-1.5-1.3-.7-.2-1.4-.1-2 .2-.6.3-1.1.9-1.3 1.5-.2.7-.1 1.4.2 2l5.3 10.1c.1.3.1.6 0 .8-.1.3-.4.4-.7.5l-38.7 3.7c-.2 0-.5 0-.7-.2-.2-.2-.3-.4-.3-.6l-1.3-13.9c-.1-.7-.4-1.3-.9-1.8-.5-.4-1.2-.7-1.9-.6-.7.1-1.3.4-1.8.9-.4.5-.7 1.2-.6 1.9l1.3 13.9c0 .5-.3.9-.8 1L49 164.3c-.3 0-.6-.1-.8-.3-.2-.2-.2-.5-.2-.8l3.3-10.9c.2-.7.1-1.4-.2-2-.3-.6-.9-1.1-1.5-1.3-.7-.2-1.4-.1-2 .2-.6.3-1.1.9-1.3 1.5l-4.2 13.7c-.1.4-.4.6-.8.6l-28.6 2.7h-.1c-.2 0-.4-.1-.6-.2-.2-.1-.3-.4-.3-.6-1.2-13.2 5.6-26.4 19.2-37 13.5-10.6 32.2-17.4 52.5-19.4 20.3-1.9 39.9 1.4 55.2 9.2 15.3 7.9 24.5 19.6 25.8 32.8z"/><path class="st2" d="M312.4 155.3c0 .5-.4.9-.9.9h-28.8c-.4 0-.7-.2-.8-.6l-5.5-13.2c-.5-1.3-2.1-2-3.4-1.4-.6.3-1.1.8-1.4 1.4-.3.6-.3 1.3 0 2L276 155c.1.3.1.6-.1.8-.2.2-.4.4-.8.4h-35.9c-.5 0-.9-.4-.9-.9v-14c0-1.4-1.2-2.6-2.6-2.6s-2.6 1.2-2.6 2.6v14c0 .5-.4.9-.9.9h-38.9c-.3 0-.6-.1-.8-.4-.2-.2-.2-.6-.1-.8l4.4-10.5c.5-1.3-.1-2.9-1.4-3.4-.6-.3-1.4-.3-2 0-.6.3-1.1.8-1.4 1.4l-5.5 13.2c-.1.3-.5.6-.8.6H160c-.5 0-.9-.4-.9-.9 0-27.2 34.4-49.4 76.7-49.4s76.6 22.1 76.6 49.3z"/><path class="st1" d="M142.1 121.4c-.3.4-.8.5-1.2.2-.1-.1-.2-.1-.2-.2l.6-1.8c.2.2.5.3.7.5.3.3.4.9.1 1.3z"/><path class="st2" d="M262.4 64.8L242 85.1c-.3.2-.7.3-1 .2l-13.2-5.5c-.6-.3-1.4-.3-2 0-.6.3-1.1.8-1.4 1.4-.3.6-.3 1.3 0 2 .3.6.8 1.1 1.4 1.4l10.5 4.4c.3.1.5.4.5.6.1.3 0 .6-.2.8l-25.4 25.4c-.3.3-.9.3-1.3 0l-9.9-9.9c-1-1-2.7-1-3.7 0-.5.5-.8 1.1-.8 1.8s.3 1.3.8 1.8l9.9 9.9c.3.3.3.9 0 1.3l-27.5 27.5c-.2.2-.5.3-.8.2-.3-.1-.5-.3-.7-.5l-4.4-10.5c-.3-.6-.8-1.1-1.4-1.4-.7-.3-1.3-.3-2 0s-1.2.8-1.4 1.4c-.3.6-.3 1.3 0 2l4.5 14.3c.1.3 0 .7-.2.9l-12.1 12.1-5 4.7-10.3 10.6c-.3.2-.6.3-1 .2l-13.2-5.5c-.6-.3-1.3-.3-2 0-.6.3-1.1.8-1.4 1.4-.3.6-.3 1.3 0 2 .3.6.8 1.1 1.4 1.4l10.5 4.4c.3.1.5.4.5.7.1.3 0 .6-.2.8L112 214.9c-.4.3-.9.3-1.3 0l-9.9-9.9c-1-1-2.7-1-3.7 0s-1 2.7 0 3.7l9.9 9.9c.3.3.3.9 0 1.3l-25.4 25.4c-.2.2-.5.3-.8.2-.3-.1-.5-.3-.6-.5l-4.4-10.5c-.6-1.3-2.1-1.9-3.4-1.4-1.3.5-2 2.1-1.4 3.4l5.5 13.2c.1.3.1.7-.2 1L56 270.9c-.2.2-.4.3-.6.3-.2 0-.5-.1-.6-.3-19.3-19.3-10.6-59.2 19.3-89.1 21.6-21.6 49.1-32.8 70.4-28.8-1.2-6.7-1-14.2.9-22.3 3.8-16.6 13.7-33.6 28-47.9 29.9-29.9 69.9-38.5 89.1-19.3.2.4.2.9-.1 1.3z"/><path class="st1" d="M308.4 150.3c0 .5-.4.9-.9.9h-28.8c-.4 0-.7-.2-.8-.6l-5.5-13.2c-.5-1.3-2.1-2-3.4-1.4-.6.3-1.1.8-1.4 1.4-.3.6-.3 1.3 0 2L272 150c.1.3.1.6-.1.8-.2.2-.4.4-.8.4h-35.9c-.5 0-.9-.4-.9-.9v-14c0-1.4-1.2-2.6-2.6-2.6s-2.6 1.2-2.6 2.6v14c0 .5-.4.9-.9.9h-38.9c-.3 0-.6-.1-.8-.4-.2-.2-.2-.6-.1-.8l4.4-10.5c.5-1.3-.1-2.9-1.4-3.4-.6-.3-1.4-.3-2 0-.6.3-1.1.8-1.4 1.4l-5.5 13.2c-.1.3-.5.6-.8.6h-10.2c-.2-.6-.5-1.2-.7-1.8H181l5.2-12.6c.4-1.1 1.3-1.9 2.4-2.4 1.1-.5 2.3-.5 3.4 0 2.2.9 3.3 3.5 2.4 5.7l-3.9 9.3h36.7v-13.1c0-2.4 2-4.4 4.4-4.4s4.4 2 4.4 4.4v13.1h33.7l-3.9-9.3c-.4-1.1-.4-2.3 0-3.4.5-1.1 1.3-1.9 2.4-2.4 2.2-.9 4.8.1 5.8 2.4l5.2 12.6h27.2c-.8-25.8-34-46.7-74.8-46.7-6.4 0-12.7.5-18.9 1.5l-7.6 7.6c-.3.3-.9.3-1.3 0l-9.9-9.9c-1-1-2.7-1-3.7 0-.5.5-.8 1.1-.8 1.8s.3 1.3.8 1.8l9.9 9.9c.3.3.3.9 0 1.3l-27.5 27.5c-.2.2-.5.3-.8.2-.3-.1-.5-.3-.7-.5l-4.4-10.5c-.3-.6-.8-1.1-1.4-1.4-.7-.3-1.3-.3-2 0s-1.2.8-1.4 1.4c-.3.6-.3 1.3 0 2l3.2 10.2-1.5 1.1-3.4-10.6c-.4-1-.4-2.2 0-3.3.5-1.1 1.3-1.9 2.4-2.4 1.1-.5 2.3-.5 3.4 0 1.1.4 1.9 1.3 2.4 2.4l3.8 9.3 25.9-25.9-9.3-9.3c-1.7-1.7-1.7-4.5 0-6.2 1.7-1.7 4.5-1.7 6.2 0l9.3 9.3 7.2-7.1c.1-.2.3-.3.5-.3.9-.2 1.8-.3 2.7-.4 5.5-.8 11.1-1.2 16.7-1.2 42.6-.1 77 22.1 77 49.3z"/><path class="st1" d="M171.6 151.2h-5.8c-.5 0-.9-.4-.9-.9s.4-.9.9-.9h5.2c.1.6.4 1.2.6 1.8z"/><path class="st1" d="M166.7 149.8l-.1-.4-.6-1.9-.6-1.8-1.5 1.1.6 1.8.4 1.2-11.7 11.7-4.6 4.4c-1.1-1.2-2.1-2.4-2.9-3.7-.3-.5-.7-1-1-1.5l-1.5 1.1 1.2 1.8c.9 1.3 1.9 2.5 3 3.6l-1.3 1.3-1.4 1.4c.2.7.4 1.3.6 1.9l1.4-1.4 2.9-2.9 5-4.7 11.6-11.6.5-.5c0-.2.1-.6 0-.9zm-24.8-29.7c-.2-.2-.5-.3-.7-.5l-.6 1.8c.1.1.2.1.2.2.4.3 1 .2 1.2-.2.4-.4.3-1-.1-1.3z"/><path class="st1" d="M256.4 59.5c-19.3-19.3-59.2-10.6-89.1 19.3-2.8 2.8-5.4 5.7-7.8 8.6h-12.1c-1.4 0-2.6-1.2-2.6-2.6s1.2-2.6 2.6-2.6h14c.5 0 .9-.4.9-.9V45.4c0-.3-.2-.6-.4-.8-.2-.2-.6-.2-.8-.1l-10.5 4.4c-.7.3-1.3.3-2 0-.6-.3-1.1-.8-1.4-1.4-.5-1.3.1-2.8 1.4-3.4l13.2-5.5c.3-.1.6-.5.6-.8V9.1c0-.5-.4-.9-.9-.9-27.2 0-49.4 34.4-49.4 76.7 0 8.1.8 16.1 2.4 23.7-10.8-2.4-22.7-3.1-34.9-2-20.3 1.9-38.9 8.8-52.5 19.4-13.6 10.7-20.5 23.8-19.2 37 0 .2.1.5.3.6.2.1.4.2.6.2h.1l28.6-2.7c.4 0 .7-.3.8-.6l4.2-13.7c.2-.7.6-1.2 1.3-1.5.6-.3 1.3-.4 2-.2s1.2.6 1.5 1.3c.3.6.4 1.3.2 2L44 159.2c-.1.3 0 .6.2.8.2.2.5.4.8.3l35.7-3.4c.5 0 .9-.5.8-1L80.1 142c-.1-.7.1-1.4.6-1.9.4-.5 1.1-.9 1.8-.9.7-.1 1.4.1 1.9.6.5.4.9 1.1.9 1.8l1.3 13.9c0 .5.5.9 1 .8l12.5-1.1C88.9 160.3 77.9 168 68 177.8c-29.9 29.9-38.5 69.9-19.3 89.1.2.2.4.3.6.3.2 0 .5-.1.6-.3l20.3-20.3c.2-.3.3-.6.2-1L65 232.4c-.6-1.3.1-2.9 1.4-3.4 1.3-.5 2.8.1 3.4 1.4l4.4 10.5c.1.3.4.5.6.5.3.1.6 0 .8-.2l25.4-25.4c.3-.4.3-.9 0-1.3l-9.9-9.9c-1-1-1-2.7 0-3.7s2.7-1 3.7 0l9.9 9.9c.4.3.9.3 1.3 0l27.5-27.5c.2-.2.3-.5.2-.8-.1-.3-.3-.5-.5-.7l-10.5-4.4c-.6-.3-1.1-.8-1.4-1.4-.3-.6-.3-1.4 0-2 .3-.6.8-1.1 1.4-1.4.6-.3 1.3-.3 2 0l13.2 5.5c.3.1.7.1 1-.2l6.2-6.2c-.2-.6-.4-1.3-.6-1.9l-6.4 6.4-12.7-5.2c-1.1-.5-2.3-.5-3.4 0s-1.9 1.3-2.4 2.4c-.5 1.1-.5 2.3 0 3.4s1.3 1.9 2.4 2.4l9.3 3.8-25.9 26-9.3-9.3c-1.7-1.7-4.5-1.7-6.2 0-1.7 1.7-1.7 4.5 0 6.2l9.3 9.3L75.4 239l-3.8-9.3c-.9-2.2-3.5-3.3-5.8-2.4-2.2.9-3.3 3.5-2.4 5.8l5.2 12.6L49.4 265c-17.7-18.8-9-57.1 19.9-85.9 18.4-18.4 41-29.1 60.2-29.1 3.2 0 6.3.3 9.3.9.9 3.9 2.3 7.6 4.3 10.8l1.5-1.1c-11.9-20.1-2.2-54.4 23.9-80.6 18.8-18.8 41.5-29 60.3-29 10.1 0 19 3 25.6 9.1l-19.3 19.3-12.6-5.2c-1.1-.5-2.3-.5-3.4 0s-1.9 1.3-2.4 2.4c-.5 1.1-.5 2.3 0 3.4s1.3 1.9 2.4 2.4l9.3 3.8-16.6 16.7c.1-.2.3-.3.5-.3.9-.2 1.8-.3 2.7-.4l15.6-15.6c.2-.2.3-.5.2-.8-.1-.3-.3-.5-.5-.6l-10.5-4.4c-.6-.3-1.1-.8-1.4-1.4-.3-.6-.3-1.4 0-2 .3-.6.8-1.1 1.4-1.4.6-.3 1.3-.3 2 0l13.2 5.5c.3.1.7.1 1-.2L256.3 61c.4-.6.4-1.1.1-1.5zm-130.9 88.8l-3.8-7.1c-.3-.6-.4-1.3-.2-2s.7-1.2 1.3-1.5c.6-.3 1.3-.4 2-.2s1.2.7 1.5 1.3l5 9.4c-1.9 0-3.8 0-5.8.1zm16.4-28.2c.4.3.5.8.2 1.2-.3.4-.8.5-1.2.2-.1-.1-.2-.1-.2-.2-.5 1.8-1 3.5-1.4 5.2-1.8 8.1-2.1 15.6-.9 22.3-1.6-.3-3.3-.5-5-.7l-5.5-10.4c-.5-1-1.5-1.8-2.6-2.2-1.1-.3-2.3-.2-3.3.3s-1.8 1.5-2.2 2.6c-.3 1.1-.2 2.3.3 3.4l3.4 6.5c-5.9.6-12 2.1-18.1 4.4h-.3l-16.8 1.5-1.2-13c-.1-1.2-.7-2.2-1.6-3-.9-.8-2.1-1.1-3.2-1-1.2.1-2.2.7-3 1.6-.7.9-1.1 2.1-1 3.2l1.2 13-33.5 3.2 3-9.6c.3-1.1.2-2.3-.3-3.4-.5-1-1.5-1.8-2.6-2.1-2.3-.7-4.8.6-5.5 2.9l-4 13.1-27.1 2.6c-.8-12.3 5.8-24.5 18.6-34.5 13.2-10.4 31.5-17.1 51.5-19 23.5-2.2 45.7 2.6 61.1 13.1l.6-1.8c-7.1-4.8-15.6-8.4-25-10.7-1.7-7.8-2.5-15.9-2.5-24.1 0-40.8 20.9-74.1 46.7-74.8v27.2l-12.6 5.2c-2.2.9-3.3 3.5-2.4 5.8.5 1.1 1.3 1.9 2.4 2.4 1.1.5 2.3.5 3.4 0l9.3-3.8v33.7h-13.1c-2.4 0-4.4 2-4.4 4.4s2 4.4 4.4 4.4h10.7c-7.6 9.6-13.3 20-16.7 30.4 0 .2.2.4.4.5z"/></svg>