<svg xmlns="http://www.w3.org/2000/svg" viewBox="0 0 190 225"><path d="M177.1 146.9c-.1.2-.3.4-.5.5-.1 0-.2.1-.3.1s-.2 0-.3-.1l-33.9-14c-.2-.1-.4-.3-.5-.5-.1-.2-.1-.5 0-.7.4-.9.4-1.8 0-2.7-.4-.9-1-1.6-1.9-1.9-.9-.4-1.8-.4-2.7 0-.9.4-1.5 1-1.9 1.9-.1.2-.3.4-.5.5-.2.1-.5.1-.7 0L51.8 96c-.5-.2-.7-.7-.5-1.2.8-1.8-.1-3.9-1.9-4.6-1.8-.8-3.9.1-4.6 1.9-.2.5-.7.7-1.2.5l-33.9-14c-.2-.1-.4-.3-.5-.5-.1-.2-.1-.5 0-.7C18.5 54.9 36 37.5 58.4 28.2c22.4-9.3 47.1-9.3 69.5 0s39.9 26.8 49.2 49.2c9.3 22.4 9.3 47.1 0 69.5z" fill="#b52bc9"/><path d="M173.9 69.5c-9.2-22.1-26.3-39.4-48.3-48.8l6-14.6c.2-.5 0-1-.5-1.2-.5-.2-1 0-1.2.5l-6 14.6c-22.2-9-46.6-8.8-68.7.3C32.7 29.6 15.3 47.1 6 69.5c-.1.2-.1.5 0 .7.1.2.3.4.5.5l33.9 14c.5.2 1 0 1.2-.5.8-1.8 2.8-2.7 4.6-1.9 1.8.8 2.7 2.8 1.9 4.6-.2.5 0 1 .5 1.2l40.2 16.7-47.3 114.1c-.2.5 0 1 .5 1.2.1 0 .2.1.3.1.4 0 .7-.2.8-.6l47.2-114.1 40.2 16.6c.2.1.5.1.7 0 .2-.1.4-.3.5-.5.4-.9 1-1.6 1.9-1.9.9-.4 1.8-.4 2.7 0 1.8.8 2.7 2.8 1.9 4.6-.2.5 0 1 .5 1.2l33.9 14c.1.1.2.1.3.1.4 0 .7-.2.8-.6 9.5-22.4 9.5-47.1.2-69.5zM40.3 82.7L8 69.4C17.2 47.8 34.1 31 55.8 22c11-4.5 22.5-6.8 34.1-6.8 10.3 0 20.5 1.8 30.4 5.4-50.4 10-70 47.5-75 59.7-2-.2-4 .7-5 2.4zm49.1 20.4L50 86.8c.5-2.4-.7-5-3-6 5.2-12.3 24.9-49.6 75.7-58.8.1 0 .3-.1.4-.2v-.1l-.1.1-33.6 81.3zm47.4 14.8c-1.2-.4-2.6-.4-3.8.1-1 .4-1.9 1.2-2.5 2.1L91 103.8l33.6-81.2c0-.1-.1-.2-.1-.3.1 0 .1 0 .2.1l-.1.3c0 .1 0 .1.1.2 29.7 42.4 17 82.9 12.1 95zm35.7 19.6l-32.3-13.4c.5-2-.3-4.1-1.9-5.4 4.9-12 17.8-52.4-10.9-95.2 20.3 9.4 36.1 25.9 44.7 46.6 9.1 21.8 9.2 45.7.4 67.4z" fill="#1e1e1e"/></svg>