<svg xmlns="http://www.w3.org/2000/svg" viewBox="0 0 96.43 96.43"><defs><style>.cls-1{fill:#231f20;}</style></defs><title>aid</title><g id="Layer_2" data-name="Layer 2"><g id="callouts"><path class="cls-1" d="M37.8,66.48A3,3,0,0,1,36,64V62.68a1.19,1.19,0,0,1,1.31-1.25,1.63,1.63,0,0,1,1.06.31,17.17,17.17,0,0,0,9.78,3.18c3.24,0,7.29-1.74,7.29-7,0-4.49-2.55-6.3-8.29-8.17-4.55-1.49-10.22-4.3-10.22-11.22,0-5.67,4-9.54,9.47-10.22V24.91a1.15,1.15,0,0,1,1.18-1.18h1.5a1.15,1.15,0,0,1,1.18,1.18v3.3a15,15,0,0,1,6.92,2.24A2.77,2.77,0,0,1,58.93,33v1.5a1.11,1.11,0,0,1-1.18,1.18,2.11,2.11,0,0,1-1.06-.31c-1.56-.87-3.24-3.24-8.1-3.24-4.11,0-7,2-7,6.42,0,3.55,2.62,5.67,7,7.17,6.17,2.12,11.53,4.11,11.53,12.09,0,6.3-4.24,10.16-9.85,11v3.37a1.15,1.15,0,0,1-1.18,1.18h-1.5a1.15,1.15,0,0,1-1.18-1.18v-3.3A20,20,0,0,1,37.8,66.48Z"/><path class="cls-1" d="M48.22,96.43A48.22,48.22,0,1,1,96.43,48.22,48.27,48.27,0,0,1,48.22,96.43Zm0-86.43A38.22,38.22,0,1,0,86.43,48.22,38.26,38.26,0,0,0,48.22,10Z"/></g></g></svg>