<svg id="Layer_1" xmlns="http://www.w3.org/2000/svg" viewBox="0 0 250 260"><style>.st2{fill:#1e1e1e}.st3{fill:#ea5397}.st4{fill:#07c8e8}</style><path d="M112.8 49.3c3.9-1.5 7.6-3.9 10.9-6.5 8.1-6.3 16.3-14.4 27.2-13.8 13.3.7 24.7 7.8 36.5 13 12.4 5.5 24.8 11.2 36.9 17.5 10.4 5.5 20.1 14.3 20.5 26.9.5 14.5-10.1 26.6-13.5 40.2-3.1 12.4-1.4 23.2 4.3 34.2 4.3 8.7 8 16.2 8.4 28 .4 10.8-1.9 23-6.2 33.5-6.6 15.9-23.6 28.1-40.9 21.5-14.2-5.4-24.9-21.6-41.7-19-9.5 1.5-16 8.9-22.6 15.1-7.5 7.1-16.8 12.7-27.1 14.4-11.4 1.9-23.2-1-33.5-6.1-11.7-5.8-23.9-14.1-32.9-23.6-13.8-14.6-13.1-30.3-7.4-50.9 4.3-15.3 2-33.5-5.7-46.4-2-3.4-4.5-6.6-6.8-9.7-3.1-4-6.3-8.2-8.7-13.1C1 85.3 4.8 61.4 19.9 46.1c17.5-17.7 46.9-18.4 66.9-4.3 8.3 5.9 15.4 11.6 26 7.5z" fill="#ffe36e"/><path d="M208.6 147.1c-.1.2-.3.4-.5.5-.1 0-.2.1-.3.1s-.2 0-.3-.1l-33.9-14c-.2-.1-.4-.3-.5-.5s-.1-.5 0-.7c.4-.9.4-1.8 0-2.7-.4-.9-1-1.6-1.9-1.9-.9-.4-1.8-.4-2.7 0-.9.4-1.5 1-1.9 1.9-.1.2-.3.4-.5.5s-.5.1-.7 0l-82.1-34c-.5-.2-.7-.7-.5-1.2.8-1.8-.1-3.9-1.9-4.6-1.8-.8-3.9.1-4.6 1.9-.2.5-.7.7-1.2.5l-33.9-14c-.2-.1-.4-.3-.5-.5s-.1-.5 0-.7C50 55.2 67.5 37.7 89.9 28.4c22.4-9.3 47.1-9.3 69.5 0s39.9 26.8 49.2 49.2c9.3 22.4 9.3 47.1 0 69.5z" fill="#b52bc9"/><path class="st2" d="M205.4 69.8c-9.2-22.1-26.3-39.4-48.3-48.8l6-14.6c.2-.5 0-1-.5-1.2s-1 0-1.2.5l-6 14.6c-22.2-9-46.6-8.8-68.7.3-22.4 9.3-39.9 26.8-49.2 49.2-.1.2-.1.5 0 .7s.3.4.5.5l33.9 14c.5.2 1 0 1.2-.5.8-1.8 2.8-2.7 4.6-1.9 1.8.8 2.7 2.8 1.9 4.6-.2.5 0 1 .5 1.2l40.2 16.7L73 219.2c-.2.5 0 1 .5 1.2.1 0 .2.1.3.1.4 0 .7-.2.8-.6l47.3-114.2 40.2 16.6c.2.1.5.1.7 0s.4-.3.5-.5c.4-.9 1-1.6 1.9-1.9.9-.4 1.8-.4 2.7 0 1.8.8 2.7 2.8 1.9 4.6-.2.5 0 1 .5 1.2l33.9 14c.1.1.2.1.3.1.4 0 .7-.2.8-.6 9.4-22.3 9.4-47 .1-69.4zM71.8 83L39.5 69.6C48.7 48 65.6 31.2 87.3 22.2c11-4.5 22.5-6.8 34.1-6.8 10.3 0 20.5 1.8 30.4 5.4-50.4 10-70 47.5-75 59.7-2-.2-3.9.8-5 2.5zm49.2 20.4L81.5 87c.5-2.4-.7-5-3-6 5.2-12.3 24.9-49.6 75.7-58.8.1 0 .3-.1.4-.2v-.1l-.1.1-33.5 81.4zm47.3 14.8c-1.2-.4-2.6-.4-3.8.1-1 .4-1.9 1.2-2.5 2.1L122.6 104l33.6-81.2c0-.1-.1-.2-.1-.3.1 0 .1 0 .2.1l-.1.3c0 .1 0 .1.1.2 29.6 42.4 17 82.9 12 95.1zm35.8 19.6l-32.3-13.4c.5-2-.3-4.1-1.9-5.4 4.9-12 17.8-52.4-10.9-95.2 20.3 9.4 36.1 25.9 44.7 46.6 9 21.8 9.1 45.6.4 67.4z"/><g><path class="st3" d="M146.7 165.1c-1.1.5-2.3.7-3.4.7-3.5 0-6.9-2.1-8.3-5.6-1.9-4.6.3-9.9 4.9-11.8.3-.1.5 0 .7.3l3.1 7.4 7.4-3.1h.4c.1 0 .2.2.3.3 1.7 4.6-.5 9.9-5.1 11.8z"/><circle class="st4" cx="164.1" cy="166" r="3.7"/><circle class="st4" cx="186.4" cy="156.8" r="3.7"/><path class="st3" d="M213.9 195.4c-2.4 5.7-6.8 10.1-12.5 12.5l-11.2 4.6c-2.8 1.2-5.8 1.8-8.8 1.8s-6-.6-8.8-1.8c-5.7-2.4-10.1-6.8-12.5-12.5s-2.4-12 0-17.6c2.3-5.7 6.8-10.1 12.5-12.5l11.2-4.6c5.7-2.4 12-2.4 17.6 0 5.7 2.3 10.1 6.8 12.5 12.5 2.3 5.7 2.3 12 0 17.6z"/><circle class="st3" cx="195.1" cy="135.9" r="8.5"/><path class="st2" d="M222.9 181.5l-11-.6c-.2-1.6-.6-3.2-1.1-4.8l10.1-4.2c.5-.2.7-.7.5-1.2s-.7-.7-1.2-.5l-10.1 4.2c-.7-1.6-1.5-3-2.5-4.4l7.2-8c.3-.4.3-.9-.1-1.3-.4-.3-.9-.3-1.3.1l-7 7.8c-2.1-2.5-4.8-4.6-7.8-6 2.4-6.3 1.4-13.4-2.5-19.8 2.3-.9 4.3-2.7 5.3-5.1v-.1l.2-.4v-.1c0-.1.1-.2.1-.4l.2-.9c.4-2.2.1-4.5-1-6.4l-.3-.6c-.1-.2-.2-.3-.3-.5-.4-.6-.9-1.1-1.5-1.6l-.1-.1-.3-.3c-.2-.1-.4-.3-.6-.4 0 0-.1 0-.1-.1l-1.4-.7c-4.7-1.9-10.2.4-12.2 5.1v.2c-.9 2.3-.9 4.9.1 7.2s2.8 4.1 5.2 5c1.1.5 2.3.7 3.5.7.5 0 1.1 0 1.6-.1 3.9 6 4.8 12.7 2.7 18.6-2.8-1.1-5.8-1.7-8.8-1.6.1-.2.3-.4.4-.7.2-.6.4-1.2.4-1.7 0-.6-.1-1.2-.4-1.8-1-2.3-3.6-3.4-6-2.5-1.1.5-2 1.3-2.5 2.5-.5 1.1-.5 2.4 0 3.5.3.7.8 1.3 1.3 1.8-.6.2-1.3.4-1.9.7l-11.2 4.6c-.6.3-1.2.5-1.8.8v-.4c0-.6-.1-1.2-.4-1.7-1-2.3-3.6-3.4-6-2.5-2.3 1-3.4 3.6-2.5 6 .5 1.1 1.4 2 2.5 2.5.2.1.5.2.7.2-2.1 2.1-3.8 4.6-5.1 7.4-5.6-2.6-9.7-8-11.2-14.8 4.2-2.3 6.1-7.4 4.2-11.9-.1-.2-.3-.4-.5-.5s-.5-.1-.7 0l-7 2.9-2.9-7c-.2-.5-.7-.7-1.2-.5-2.3 1-4.1 2.8-5.1 5.1s-1 4.9 0 7.2c1.5 3.6 5 5.8 8.7 5.8.9 0 1.9-.1 2.8-.4 1.7 7.3 6.1 13 12.2 15.8-1.1 3.2-1.5 6.5-1.2 9.7l-10.4-.6c-.5 0-.9.3-.9.8s.3.9.8 1l10.7.6c.3 1.6.7 3.3 1.4 4.9l-10 4.1c-.5.2-.7.7-.5 1.2.1.4.5.6.8.6.1 0 .2 0 .3-.1l10.1-4.2c.7 1.5 1.6 2.9 2.6 4.2l-7.3 8.2c-.3.4-.3.9.1 1.3.2.2.4.2.6.2s.5-.1.7-.3l7.2-8c2.3 2.5 5.1 4.4 8.3 5.8 2.9 1.2 5.9 1.8 9 1.8 3 0 6.1-.6 9-1.8l11.2-4.6c5.8-2.4 10.3-6.9 12.7-12.7 1.3-3.2 1.9-6.6 1.8-9.9l10.8.6c.5 0 .9-.4.9-.9-.1-.6-.5-1-1-1zM190.1 141c-1.9-.8-3.4-2.2-4.2-4.1-.7-1.6-.8-3.3-.4-4.9l6.8 2.8c.1 0 .2.1.3.1.3 0 .7-.2.8-.5.2-.5 0-1-.5-1.2l-6.9-2.9c1.8-3.4 5.9-5 9.5-3.5l1.3.6c.2.1.3.2.5.3.1.1.2.1.3.2l.1.1c.4.4.8.8 1.2 1.3.1.1.2.2.3.4.1.2.2.3.3.5.9 1.6 1.2 3.4.8 5.2l-.2.8c0 .1-.1.2-.1.2l-.2.4c-1.5 3.9-5.9 5.7-9.7 4.2zm-56.9 17.6c-1.5-3.6 0-7.7 3.3-9.6l2.9 7c.2.5.7.7 1.2.5l7-2.9c1 3.7-.8 7.6-4.4 9.1-3.9 1.7-8.4-.2-10-4.1zm50.2-3.4c.3-.1.7-.2 1-.2 1.1 0 2.1.6 2.6 1.7.3.7.3 1.4 0 2.1s-.8 1.2-1.5 1.5c-.1 0-.2.1-.3.1-.2.1-.4.1-.6.1-1.2.1-2.3-.6-2.7-1.7-.6-1.4.1-3 1.5-3.6zM161 169.6c-.7-.3-1.2-.8-1.5-1.5-.6-1.4.1-3 1.5-3.6.3-.1.7-.2 1.1-.2 1.1 0 2.1.6 2.6 1.7s.1 2.3-.7 3.1c-.2.1-.3.3-.5.4-.1 0-.2.1-.3.1-.7.3-1.5.3-2.2 0zm47.6 22.3c-1.1 2.7-2.7 5-4.7 7s-4.4 3.6-7 4.7l-11.2 4.6c-5.4 2.2-11.2 2.2-16.6 0s-9.5-6.4-11.7-11.7c-2.2-5.3-2.2-11.2 0-16.6 1.5-3.6 3.9-6.7 6.9-9 .2-.2.5-.4.7-.5 1.3-.9 2.6-1.6 4.1-2.2l11.2-4.6c1.5-.6 3-1 4.4-1.3.3-.1.5-.1.8-.1 1-.2 2-.2 3-.2 8.5 0 16.6 5 20 13.4 2.3 5.3 2.3 11.2.1 16.5z"/></g></svg>