<svg id="Layer_1" xmlns="http://www.w3.org/2000/svg" viewBox="0 0 475 560"><style>.st0{fill:#fc7e56}.st3{fill:#1e1e1e}.st5{fill:none}.st6{fill:#07c8e8}.st7{fill:#ea5397}.st9{fill:#b7db53}</style><circle class="st0" cx="247.5" cy="233.9" r="187.4"/><path d="M444.8 346.5c-4.7 9.8-14.4 34.7-2.4 55 2 3.5 4.1 6.8 6.1 9.9 8.3 13.1 15.4 24.5 16.2 42.3.7 16.3-3.7 34.8-12 50.6-9.3 17.6-22.8 30.2-37.8 35.3-23.8 8.1-45-3.4-65.5-14.5-17.6-9.5-35.8-19.4-55.7-17-15.6 1.9-28.3 11.1-41.7 20.8-7.5 5.4-15.2 11-23.4 15.2-12.7 6.4-27.6 9.7-43.3 9.7-14.3 0-29.3-2.7-44.2-8-29.3-10.5-53.2-23.3-70.9-38C43.6 485.7 45 462 56 430.9c8.2-23.1 3.9-50.7-10.9-70.2-3.9-5.2-8.6-10-13.1-14.6-6-6.1-12.2-12.4-16.8-19.8-2.8-4.5-4.9-9.8-6.3-15.6-1.3-5.4-1.9-11.1-1.9-16.9 0-11.7 2.5-23.9 7.2-34.9 7.8-18 20.4-30.2 35.5-34.3 16.7-4.6 34.1 1.1 53.1 17.3 4.5 3.8 8.4 8.9 12.2 13.9 6.9 9 14 18.3 25.2 20.6 14.6 3.1 29.3-7.2 42.3-16.3 5.5-3.9 10.8-7.5 15.8-10.1l14.1-7.2c17-8.6 33.7-19.8 51.2-27.1 24.2-10 52.6 2.1 75.4 10.6 4.5 1.7 8.8 3.3 12.6 4.5 4.8 1.6 9.7 3.2 14.5 4.8 17.1 5.6 34.7 11.3 51.4 18.8 3 1.3 6.2 2.6 9.7 4 19.2 7.7 43.1 17.2 40.5 42.3-1.2 11.7-7.6 21.4-13.9 30.8-3.1 4.7-6.5 9.8-9 15z" fill="#ffe36e"/><path d="M443.7 312.1c-.1.2-.3.4-.5.5-.1 0-.2.1-.3.1s-.2 0-.3-.1l-33.9-14c-.2-.1-.4-.3-.5-.5s-.1-.5 0-.7c.4-.9.4-1.8 0-2.7-.4-.9-1-1.6-1.9-1.9-.9-.4-1.8-.4-2.7 0-.9.4-1.5 1-1.9 1.9-.1.2-.3.4-.5.5s-.5.1-.7 0l-82.1-34c-.5-.2-.7-.7-.5-1.2.8-1.8-.1-3.9-1.9-4.6-1.8-.8-3.9.1-4.6 1.9-.2.5-.7.7-1.2.5l-33.9-14c-.2-.1-.4-.3-.5-.5s-.1-.5 0-.7c9.3-22.4 26.8-39.9 49.2-49.2 22.4-9.3 47.1-9.3 69.5 0s39.9 26.8 49.2 49.2c9.3 22.4 9.3 47.1 0 69.5z" fill="#b52bc9"/><path class="st3" d="M440.5 234.8c-9.2-22.1-26.3-39.4-48.3-48.8l6-14.6c.2-.5 0-1-.5-1.2s-1 0-1.2.5l-6 14.6c-22.2-9-46.6-8.8-68.7.3-22.4 9.3-39.9 26.8-49.2 49.2-.1.2-.1.5 0 .7s.3.4.5.5l33.9 14c.5.2 1 0 1.2-.5.8-1.8 2.8-2.7 4.6-1.9 1.8.8 2.7 2.8 1.9 4.6-.2.5 0 1 .5 1.2l40.2 16.7-47.3 114.1c-.2.5 0 1 .5 1.2.1 0 .2.1.3.1.4 0 .7-.2.8-.6L357 270.7l40.2 16.6c.2.1.5.1.7 0s.4-.3.5-.5c.4-.9 1-1.6 1.9-1.9.9-.4 1.8-.4 2.7 0 1.8.8 2.7 2.8 1.9 4.6-.2.5 0 1 .5 1.2l33.9 14c.1.1.2.1.3.1.4 0 .7-.2.8-.6 9.4-22.3 9.4-47 .1-69.4zM306.9 248l-32.3-13.4c9.2-21.6 26.1-38.4 47.8-47.4 11-4.5 22.5-6.8 34.1-6.8 10.3 0 20.5 1.8 30.4 5.4-50.4 10-70 47.5-75 59.7-2-.2-3.9.8-5 2.5zm49.2 20.4L316.6 252c.5-2.4-.7-5-3-6 5.2-12.3 24.9-49.6 75.7-58.8.1 0 .3-.1.4-.2v-.1l-.1.1-33.5 81.4zm47.3 14.8c-1.2-.4-2.6-.4-3.8.1-1 .4-1.9 1.2-2.5 2.1L357.7 269l33.6-81.2c0-.1-.1-.2-.1-.3.1 0 .1 0 .2.1l-.1.3c0 .1 0 .1.1.2 29.6 42.4 17 82.9 12 95.1zm35.8 19.6l-32.3-13.4c.5-2-.3-4.1-1.9-5.4 4.9-12 17.8-52.4-10.9-95.2 20.3 9.4 36.1 25.9 44.7 46.6 9 21.8 9.1 45.6.4 67.4zM389.8 187c0-.1 0-.1 0 0z"/><path class="st3" d="M391.5 187.6l-.1.3c0-.1-.1-.2-.1-.3h.2zM389.8 187c0-.1 0-.1 0 0z"/><path class="st3" d="M391.5 187.6l-.1.3c0-.1-.1-.2-.1-.3h.2z"/><path d="M427.5 475c0 .3-.1.6-.3.8l-25 25c-.2.2-.4.3-.6.3h-.1c-.3 0-.5-.2-.7-.5l-6-11.2c0-.1-.1-.2-.1-.2l-23.4 1h-.4c-2.1 0-4-.9-5.3-2.5-11.2-13.5-10.3-33.9 2.1-46.4 12.4-12.4 32.8-13.4 46.3-2.2 1.7 1.4 2.6 3.5 2.4 5.8l-1 23.3c.1 0 .2 0 .3.1l11.2 6c.4.2.5.4.6.7z" fill="#f9cc12"/><path class="st3" d="M418.4 472.6l-11.2-6c-.1 0-.2-.1-.3-.1l1-23.3c.1-2.2-.8-4.4-2.4-5.8-13.5-11.2-33.9-10.3-46.3 2.2-12.5 12.5-13.4 32.8-2.2 46.3 1.3 1.6 3.3 2.5 5.3 2.5h.4l23.4-.9c0 .1 0 .1.1.2l6 11.2c.1.2.4.4.7.5h.1c.2 0 .5-.1.6-.3l25-25c.2-.2.3-.5.2-.8 0-.3-.2-.5-.4-.7zm-14.1-33.8c1.2 1 1.9 2.6 1.8 4.3l-1.1 24.7-3.7 3.7-22-39.9c8.8-1 17.9 1.3 25 7.2zm-26.8-6.9l22.5 40.9-3.2 3.2-35.8-35.8c4.7-4.4 10.5-7.2 16.5-8.3zm-17.7 9.6l35.8 35.8-3.2 3.2-40.9-22.5c1.1-6.1 3.8-11.8 8.3-16.5zm27.5 44.1l-24.6 1c-1.7.1-3.2-.6-4.2-1.8-5.9-7.1-8.3-16.2-7.2-24.9l39.9 22-3.9 3.7zm5.9 11.4l-5.2-9.6 9.4-9.4 9.4-9.4 9.6 5.2-23.2 23.2z"/><path class="st0" d="M275.4 450.9l-.9.3-.5.8-.6-.8-.9-.3.5-.8V449.2l.9.3.9-.3V450.1l.6.8z"/><path class="st0" d="M293.3 455.7c-.7.7-1 1.6-.8 2.5l2.5 14.2c.3 1.8-.4 3.5-1.8 4.6s-3.3 1.2-4.9.4l-12.8-6.6c-.8-.4-1.8-.4-2.7 0l-12.7 6.8c-.7.4-1.4.6-2.2.6-1 0-1.9-.3-2.7-.9-1.5-1-2.2-2.8-1.9-4.6l2.3-14.2c.2-.9-.2-1.9-.8-2.5l-10.4-10c-1.3-1.2-1.8-3.1-1.2-4.8.5-1.7 2-2.9 3.8-3.2l14.2-2.2c.9-.1 1.8-.7 2.2-1.6l6.3-13c.8-1.6 2.4-2.6 4.2-2.6 1.8 0 3.4 1 4.2 2.6l6.5 12.9c.4.9 1.2 1.4 2.2 1.6l14.3 2c1.8.2 3.2 1.5 3.8 3.1.6 1.7.1 3.5-1.2 4.8l-10.4 10.1z"/><path class="st5" d="M274 450.4l-.9-.3"/><path class="st0" d="M274.9 450.4c0 .2-.1.3-.2.5 0 .1-.1.2-.2.2-.1.1-.2.1-.4.2h-.1c-.1 0-.2 0-.3-.1l-.2-.1-.9-.3.5-.8V449.1l.9.3.2.1h.4s.1 0 .1.1c0 0 .1 0 .1.1l.1.1c0 .1.1.1.1.2-.1.2-.1.3-.1.4z"/><path class="st5" d="M274 450.4l-.3.4-.2.3-.1.1"/><path class="st0" d="M274.9 450.4c0 .2-.1.3-.2.5l-.2.2-.5.9-.6-.8-.9-.3.5-.8.1-.1s0-.1.1-.1l.1-.1c.1-.1.1-.1.2-.1h1s.1 0 .1.1c0 0 .1 0 .1.1l.1.1c0 .1.1.1.1.2v.2z"/><g><path class="st5" d="M274 450.4l.2.4.3.3v.1M292.5 475.8l-.2-.3"/><path class="st0" d="M275.4 450.9l-.9.3-.5.8-.6-.8-.2-.2c-.1-.1-.1-.2-.1-.3v-.5s0-.1.1-.1c0 0 0-.1.1-.1l.1-.1c.1-.1.1-.1.2-.1h1s.1 0 .1.1c0 0 .1 0 .1.1l.1.1.1.1.4.7z"/></g><g><path class="st5" d="M274 450.4l.8-.3h.1M303.3 441.1l-.3.1"/><path class="st0" d="M275.4 450.9l-.9.3-.3.1h-.2c-.1 0-.2 0-.3-.1-.1 0-.1-.1-.2-.1s-.2-.1-.2-.2c-.1-.1-.1-.2-.1-.3v-.5s0-.1.1-.1c0 0 0-.1.1-.1l.1-.1c.1-.1.1-.1.2-.1h.2l.2-.1.9-.3V450.2l.4.7z"/></g><g><path class="st5" d="M274 449.9v-.4M274 420.4"/><path class="st0" d="M274.9 449.2V450.1c-.1.3-.3.5-.6.6h-.5c-.3-.1-.5-.3-.6-.6V449.2l.9.3.8-.3z"/></g><path class="st3" d="M269.4 445.6zM269.4 445.6zM298.6 441.5c1.3-1.3 1.7-3.1 1.2-4.8-.6-1.7-2-2.9-3.8-3.1l-14.3-2c-.9-.1-1.8-.7-2.2-1.6l-6.5-12.9c-.8-1.6-2.4-2.6-4.2-2.6-1.8 0-3.4 1-4.2 2.6l-6.3 13c-.4.8-1.2 1.4-2.2 1.6l-14.2 2.2c-1.8.3-3.2 1.5-3.8 3.2-.5 1.7-.1 3.5 1.2 4.8l10.4 10c.7.7 1 1.6.8 2.5l-2.3 14.2c-.3 1.8.4 3.5 1.9 4.6.8.6 1.8.9 2.7.9.8 0 1.5-.2 2.2-.6l12.7-6.8c.8-.5 1.8-.5 2.7 0l12.8 6.6c1.6.8 3.5.7 4.9-.4 1.5-1.1 2.2-2.8 1.8-4.6l-2.5-14.2c-.2-.9.1-1.9.8-2.5l10.4-10.1zm-28.7-24.9c.7.2 1.2.7 1.5 1.4l6.5 12.9c.7 1.4 2 2.3 3.5 2.5l14.3 2c.7.1 1.4.5 1.8 1l-27.6 8.8v-28.6zm-.5 29zm-27.2-9.8l14.3-2.2c1.5-.2 2.8-1.2 3.5-2.6l6.3-13c.4-.8 1-1.3 1.8-1.5v28.7l-27.8-8.3c.4-.6 1.1-1 1.9-1.1zm7.9 33.2l2.3-14.2c.2-1.5-.3-3.1-1.4-4.1l-10.4-10c-.6-.6-.9-1.3-.9-2.1l27.8 8.3-16.7 24.6c-.6-.7-.9-1.6-.7-2.5zm34.1 2.8l-12.8-6.6c-1.4-.7-3-.7-4.3 0l-12.7 6.8c-.6.3-1.2.4-1.9.3L269 448l17.5 24c-.7.2-1.6.2-2.3-.2zm1.6-17.3l2.5 14.2c.1.8 0 1.5-.4 2.1l-17.5-23.9 27.8-8.8c.1.8-.2 1.6-.8 2.2l-10.2 10.1c-1.2 1.1-1.7 2.6-1.4 4.1zM269.4 445.6zM269.4 445.6z"/><g><path class="st5" d="M82.9 315l-.4-1.2M106.3 305.1l84.2 203.2"/><path class="st6" d="M108 306.8c-.4-.3-.9-.5-1.3-.8-.4-.2-.8-.5-1.2-.7-.1-.3 0-.7.2-.9.1-.1.2-.1.3-.2.5-.2 1 0 1.2.5l.2.6.6 1.5zM190.8 509.1c-.1 0-.2.1-.3.1-.4 0-.7-.2-.8-.6l-.1-.3.8.6.6-2.1.4 1.1c.1.5-.1 1.1-.6 1.2z"/><path class="st6" d="M108 306.8c-.4-.3-.9-.5-1.3-.8-.4-.2-.8-.5-1.2-.7-.1-.3 0-.7.2-.9.6.3 1.1.6 1.7.9l.6 1.5zM190.8 509.1c-.1 0-.2.1-.3.1-.4 0-.7-.2-.8-.6l-.1-.3.8.6.6-2.1.4 1.1c.1.5-.1 1.1-.6 1.2z"/><path class="st6" d="M107.4 305.3l-.2-.6c-.2-.5-.7-.7-1.2-.5-.1 0-.2.1-.3.2-.2.2-.4.6-.2.9.4.2.8.4 1.2.7.4.2.8.5 1.3.8l-.6-1.5zM191.3 508l-.4-1.1-.6 2.1-.8-.6.1.3c.1.3.5.6.8.6.1 0 .2 0 .3-.1.6-.2.8-.8.6-1.2z"/><path class="st6" d="M191.6 510.8c-.1.3-.3.5-.6.6s-.6 0-.8-.2l-18.8-14.9-2.7 23.8c0 .3-.2.5-.5.7-.1.1-.3.1-.4.1-.1 0-.3 0-.4-.1-20.2-10-46.7-47.8-65.9-94.2-12.2-29.3-20-58.4-22.1-81.8-2.2-23.8 1.9-39 11.5-43 9.5-4 23.2 4 38.5 22.3 15.1 18.1 30.1 44.2 42.2 73.5 19.2 46.4 27.3 91.9 20 113.2z"/><path class="st3" d="M129.7 473.8c-.4 0-.7-.2-.8-.6l-8.4-20.3c-.2-.5 0-1 .5-1.2s1 0 1.2.5l8.4 20.3c.2.5 0 1-.5 1.2-.2.1-.3.1-.4.1zM171.9 456.3c-.4 0-.7-.2-.8-.6l-8.4-20.3c-.2-.5 0-1 .5-1.2s1 0 1.2.5l8.4 20.3c.2.5 0 1-.5 1.2-.2.1-.3.1-.4.1zM159.7 487.3c-.4 0-.7-.2-.8-.6l-8.4-20.3c-.2-.5 0-1 .5-1.2s1 0 1.2.5l8.4 20.3c.2.5 0 1-.5 1.2-.2.1-.3.1-.4.1z"/><g><path class="st3" d="M163.9 397.6c-12.1-29.3-27.1-55.4-42.2-73.5-15.3-18.3-29-26.3-38.5-22.3-9.5 3.9-13.6 19.2-11.5 43 2.1 23.5 10 52.5 22.1 81.8 19.2 46.4 45.7 84.2 65.9 94.2.1.1.3.1.4.1.2 0 .3 0 .4-.1.3-.1.4-.4.5-.7l2.7-23.9 18.8 14.9c.2.2.5.2.8.2.3-.1.5-.3.6-.6 7.2-21.3-.8-66.8-20-113.1zm-68.4 28.3c-12.1-29.2-19.9-58-22-81.3-1.1-11.6-.6-21.2 1.3-28.3L158.4 518c-19.6-11.2-44.5-47.7-62.9-92.1zm68.1 67.9c-.2-.2-.6-.2-.9-.1-.3.1-.5.4-.5.7l-2.5 21.8-84-202.6c1.8-5.2 4.6-8.7 8.2-10.2 1.4-.6 2.8-.8 4.4-.8 2.8 0 6 .9 9.5 2.7v.1l84.1 203-18.3-14.6zm19.6 13.1l-82.9-200.2c6.1 3.7 12.9 10 20 18.5 15 17.9 29.9 43.9 41.9 73 18.1 43.8 26.3 86.5 21 108.7z"/></g></g><g><path class="st7" d="M381.8 330.1c-1.1.5-2.3.7-3.4.7-3.5 0-6.9-2.1-8.3-5.6-1.9-4.6.3-9.9 4.9-11.8.3-.1.5 0 .7.3l3.1 7.4 7.4-3.1h.4c.1 0 .2.2.3.3 1.7 4.6-.5 9.9-5.1 11.8z"/><circle class="st6" cx="399.2" cy="331" r="3.7"/><circle class="st6" cx="421.5" cy="321.8" r="3.7"/><path class="st7" d="M449 360.4c-2.4 5.7-6.8 10.1-12.5 12.5l-11.2 4.6c-2.8 1.2-5.8 1.8-8.8 1.8s-6-.6-8.8-1.8c-5.7-2.4-10.1-6.8-12.5-12.5s-2.4-12 0-17.6c2.3-5.7 6.8-10.1 12.5-12.5l11.2-4.6c5.7-2.4 12-2.4 17.6 0 5.7 2.3 10.1 6.8 12.5 12.5 2.3 5.7 2.3 12 0 17.6z"/><circle class="st7" cx="430.2" cy="300.9" r="8.5"/><path class="st3" d="M458 346.5l-11-.6c-.2-1.6-.6-3.2-1.1-4.8l10.1-4.2c.5-.2.7-.7.5-1.2s-.7-.7-1.2-.5l-10.1 4.2c-.7-1.6-1.5-3-2.5-4.4l7.2-8c.3-.4.3-.9-.1-1.3-.4-.3-.9-.3-1.3.1l-7 7.8c-2.1-2.5-4.8-4.6-7.8-6 2.4-6.3 1.4-13.4-2.5-19.8 2.3-.9 4.3-2.7 5.3-5.1v-.1l.2-.4v-.1c0-.1.1-.2.1-.4l.2-.9c.4-2.2.1-4.5-1-6.4l-.3-.6c-.1-.2-.2-.3-.3-.5-.4-.6-.9-1.1-1.5-1.6l-.1-.1-.3-.3c-.2-.1-.4-.3-.6-.4 0 0-.1 0-.1-.1l-1.4-.7c-4.7-1.9-10.2.4-12.2 5.1v.2c-.9 2.3-.9 4.9.1 7.2s2.8 4.1 5.2 5c1.1.5 2.3.7 3.5.7.5 0 1.1 0 1.6-.1 3.9 6 4.8 12.7 2.7 18.6-2.8-1.1-5.8-1.7-8.8-1.6.1-.2.3-.4.4-.7.2-.6.4-1.2.4-1.7 0-.6-.1-1.2-.4-1.8-1-2.3-3.6-3.4-6-2.5-1.1.5-2 1.3-2.5 2.5-.5 1.1-.5 2.4 0 3.5.3.7.8 1.3 1.3 1.8-.6.2-1.3.4-1.9.7l-11.2 4.6c-.6.3-1.2.5-1.8.8v-.4c0-.6-.1-1.2-.4-1.7-1-2.3-3.6-3.4-6-2.5-2.3 1-3.4 3.6-2.5 6 .5 1.1 1.4 2 2.5 2.5.2.1.5.2.7.2-2.1 2.1-3.8 4.6-5.1 7.4-5.6-2.6-9.7-8-11.2-14.8 4.2-2.3 6.1-7.4 4.2-11.9-.1-.2-.3-.4-.5-.5s-.5-.1-.7 0l-7 2.9-2.9-7c-.2-.5-.7-.7-1.2-.5-2.3 1-4.1 2.8-5.1 5.1s-1 4.9 0 7.2c1.5 3.6 5 5.8 8.7 5.8.9 0 1.9-.1 2.8-.4 1.7 7.3 6.1 13 12.2 15.8-1.1 3.2-1.5 6.5-1.2 9.7l-10.4-.6c-.5 0-.9.3-.9.8s.3.9.8 1l10.7.6c.3 1.6.7 3.3 1.4 4.9l-10 4.1c-.5.2-.7.7-.5 1.2.1.4.5.6.8.6.1 0 .2 0 .3-.1l10.1-4.2c.7 1.5 1.6 2.9 2.6 4.2l-7.3 8.2c-.3.4-.3.9.1 1.3.2.2.4.2.6.2s.5-.1.7-.3l7.2-8c2.3 2.5 5.1 4.4 8.3 5.8 2.9 1.2 5.9 1.8 9 1.8 3 0 6.1-.6 9-1.8l11.2-4.6c5.8-2.4 10.3-6.9 12.7-12.7 1.3-3.2 1.9-6.6 1.8-9.9l10.8.6c.5 0 .9-.4.9-.9-.1-.6-.5-1-1-1zM425.2 306c-1.9-.8-3.4-2.2-4.2-4.1-.7-1.6-.8-3.3-.4-4.9l6.8 2.8c.1 0 .2.1.3.1.3 0 .7-.2.8-.5.2-.5 0-1-.5-1.2l-6.9-2.9c1.8-3.4 5.9-5 9.5-3.5l1.3.6c.2.1.3.2.5.3.1.1.2.1.3.2l.1.1c.4.4.8.8 1.2 1.3.1.1.2.2.3.4.1.2.2.3.3.5.9 1.6 1.2 3.4.8 5.2l-.2.8c0 .1-.1.2-.1.2l-.2.4c-1.5 3.9-5.9 5.7-9.7 4.2zm-56.9 17.6c-1.5-3.6 0-7.7 3.3-9.6l2.9 7c.2.5.7.7 1.2.5l7-2.9c1 3.7-.8 7.6-4.4 9.1-3.9 1.7-8.4-.2-10-4.1zm50.2-3.4c.3-.1.7-.2 1-.2 1.1 0 2.1.6 2.6 1.7.3.7.3 1.4 0 2.1s-.8 1.2-1.5 1.5c-.1 0-.2.1-.3.1-.2.1-.4.1-.6.1-1.2.1-2.3-.6-2.7-1.7-.6-1.4.1-3 1.5-3.6zm-22.4 14.4c-.7-.3-1.2-.8-1.5-1.5-.6-1.4.1-3 1.5-3.6.3-.1.7-.2 1.1-.2 1.1 0 2.1.6 2.6 1.7s.1 2.3-.7 3.1c-.2.1-.3.3-.5.4-.1 0-.2.1-.3.1-.7.3-1.5.3-2.2 0zm47.6 22.3c-1.1 2.7-2.7 5-4.7 7s-4.4 3.6-7 4.7l-11.2 4.6c-5.4 2.2-11.2 2.2-16.6 0s-9.5-6.4-11.7-11.7c-2.2-5.3-2.2-11.2 0-16.6 1.5-3.6 3.9-6.7 6.9-9 .2-.2.5-.4.7-.5 1.3-.9 2.6-1.6 4.1-2.2l11.2-4.6c1.5-.6 3-1 4.4-1.3.3-.1.5-.1.8-.1 1-.2 2-.2 3-.2 8.5 0 16.6 5 20 13.4 2.3 5.3 2.3 11.2.1 16.5z"/></g><g><path d="M194 372.8s55-52 2-211l25-18s57 131 13 246" fill="#9b5851"/><path class="st3" d="M227.8 389.1c-.1.4-.5.6-.8.6-.1 0-.2 0-.3-.1-.5-.2-.7-.7-.5-1.2 22.6-59.2 17.9-122.7 10-165.6-6.5-34.9-16.1-62.1-20.5-73.7-.2-.6-.5-1.2-.7-1.8-.6-1.4-1-2.5-1.3-3.2l-1.8 1.3-1.5 1.1-18.9 13.6-1.4 1c0 .1.1.2.1.4.5 1.6 1.1 3.3 1.6 5 .2.6.4 1.3.6 1.9 14.3 44.9 27.5 106.3 16.3 157.7-7.1 32.8-20.6 45.8-21.1 46.3-.4.3-.9.3-1.3 0-.3-.4-.3-.9 0-1.3.1-.1 13.7-13.3 20.6-45.6 6.2-28.8 8.2-78.9-16.1-155.7-.2-.6-.4-1.3-.6-1.9-.7-2.2-1.5-4.5-2.2-6.8-.1-.4 0-.8.3-1l.5-.4 1.5-1.1 19.3-13.9 1.5-1.1 2.2-1.6c.2-.2.5-.2.8-.1.3.1.5.3.6.5 0 .1.8 1.8 2 5 .2.6.5 1.2.7 1.8 4.6 12 14 39 20.4 73.3 8.1 43.1 12.8 107-10 166.6z"/><path class="st9" d="M196.9 47.5c-.3.6-.3 1.4 0 2s.8 1.1 1.4 1.4c.6.3 1.3.3 2 0l10.5-4.4c.3-.1.6-.1.8.1.2.2.4.5.4.8v35.9c0 .5-.4.9-.9.9h-14c-1.4 0-2.6 1.2-2.6 2.6s1.2 2.6 2.6 2.6h14c.5 0 .9.4.9.9v38.9c0 .3-.2.6-.4.8s-.6.2-.8.1l-10.5-4.4c-.7-.3-1.3-.3-2 0-.6.3-1.1.8-1.4 1.4-.3.6-.3 1.4 0 2s.8 1.1 1.4 1.4l13.2 5.5c.5.2.7.7.5 1.2s-.7.7-1.2.5l-.6-.2-22.5 14.6c.2.3.2.8-.1 1.1-.2.2-.4.3-.7.3-.2 0-.4-.1-.6-.2-15.2-13.7-24.6-39.1-24.6-66.3 0-42.3 22.2-76.7 49.4-76.7.5 0 .9.4.9.9V40c0 .4-.2.7-.6.8l-13.2 5.5c-.5 0-1 .5-1.3 1.2z"/><path class="st9" d="M210.2 150.4c0 .2-.1.5-.2.7-.2.2-.4.3-.6.3l-25.6 2.4c-.4 0-.7-.1-.9-.5l-6.7-12.6c-.3-.6-.9-1.1-1.5-1.3-.7-.2-1.4-.1-2 .2s-1.1.9-1.3 1.5c-.2.7-.1 1.4.2 2l5.3 10.1c.1.3.1.6 0 .8-.1.3-.4.4-.7.5l-38.7 3.7c-.2 0-.5 0-.7-.2s-.3-.4-.3-.6l-1.3-13.9c-.1-.7-.4-1.3-.9-1.8-.5-.4-1.2-.7-1.9-.6-.7.1-1.3.4-1.8.9-.4.5-.7 1.2-.6 1.9l1.3 13.9c0 .5-.3.9-.8 1l-35.8 3.4c-.3 0-.6-.1-.8-.3-.2-.2-.2-.5-.2-.8l3.3-10.9c.2-.7.1-1.4-.2-2-.3-.6-.9-1.1-1.5-1.3-.7-.2-1.4-.1-2 .2s-1.1.9-1.3 1.5l-4 13.7c-.1.4-.4.6-.8.6l-28.6 2.7h-.1c-.2 0-.4-.1-.6-.2-.2-.1-.3-.4-.3-.6-1.2-13.2 5.6-26.4 19.2-37 13.5-10.6 32.2-17.4 52.5-19.4 20.3-1.9 39.9 1.4 55.2 9.2 15.3 8 24.5 19.6 25.7 32.8z"/><path class="st9" d="M358.3 153.2c0 .5-.4.9-.9.9h-28.8c-.4 0-.7-.2-.8-.6l-5.5-13.2c-.5-1.3-2.1-2-3.4-1.4-.6.3-1.1.8-1.4 1.4-.3.6-.3 1.3 0 2l4.4 10.5c.1.3.1.6-.1.8s-.4.4-.8.4h-35.9c-.5 0-.9-.4-.9-.9v-14c0-1.4-1.2-2.6-2.6-2.6s-2.6 1.2-2.6 2.6v14c0 .5-.4.9-.9.9h-38.9c-.3 0-.6-.1-.8-.4-.2-.2-.2-.6-.1-.8l4.4-10.5c.5-1.3-.1-2.9-1.4-3.4-.6-.3-1.4-.3-2 0s-1.1.8-1.4 1.4l-5.5 13.2c-.1.3-.5.6-.8.6h-25.8c-.5 0-.9-.4-.9-.9 0-27.2 34.4-49.4 76.7-49.4s76.7 22.2 76.7 49.4z"/><path class="st9" d="M308.2 62.7L287.9 83c-.3.2-.7.3-1 .2l-13.2-5.5c-.6-.3-1.4-.3-2 0s-1.1.8-1.4 1.4-.3 1.3 0 2c.3.6.8 1.1 1.4 1.4l10.5 4.4c.3.1.5.4.5.6.1.3 0 .6-.2.8l-25.4 25.4c-.3.3-.9.3-1.3 0l-9.9-9.9c-1-1-2.7-1-3.7 0-.5.5-.8 1.1-.8 1.8s.3 1.3.8 1.8l9.9 9.9c.3.3.3.9 0 1.3l-27.5 27.5c-.2.2-.5.3-.8.2s-.5-.3-.7-.5l-4.4-10.5c-.3-.6-.8-1.1-1.4-1.4-.7-.3-1.3-.3-2 0s-1.2.8-1.4 1.4c-.3.6-.3 1.3 0 2l4.5 14.3c.1.3 0 .7-.2.9l-12.1 12.1-5 4.7-10.5 10.5c-.3.2-.6.3-1 .2l-13.2-5.5c-.6-.3-1.3-.3-2 0-.6.3-1.1.8-1.4 1.4-.3.6-.3 1.3 0 2 .3.6.8 1.1 1.4 1.4l10.5 4.4c.3.1.5.4.5.7.1.3 0 .6-.2.8l-27.5 27.5c-.4.3-.9.3-1.3 0l-9.9-9.9c-1-1-2.7-1-3.7 0s-1 2.7 0 3.7l9.9 9.9c.3.3.3.9 0 1.3l-25.4 25.4c-.2.2-.5.3-.8.2s-.5-.3-.6-.5l-4.4-10.5c-.6-1.3-2.1-1.9-3.4-1.4s-2 2.1-1.4 3.4l5.5 13.2c.1.3.1.7-.2 1l-20.3 20.3c-.2.2-.4.3-.6.3s-.5-.1-.6-.3c-19.3-19.3-10.6-59.2 19.3-89.1 21.6-21.6 49.1-32.8 70.4-28.8-1.2-6.7-1-14.2.9-22.3 3.8-16.6 13.7-33.6 28-47.9C249 50.8 289 42.2 308.2 61.5c.4.3.4.9 0 1.2z"/><path class="st3" d="M277.7 98.8c-5.6 0-11.3.4-16.7 1.2l15.6-15.6c.2-.2.3-.5.2-.8-.1-.3-.3-.5-.5-.6l-10.5-4.4c-.6-.3-1.1-.8-1.4-1.4s-.3-1.4 0-2 .8-1.1 1.4-1.4 1.3-.3 2 0l13.2 5.5c.3.1.7.1 1-.2l20.3-20.3c.4-.3.4-.9 0-1.3C283 38.2 243 46.8 213.1 76.7c-2.8 2.8-5.4 5.7-7.8 8.6h-12.1c-1.4 0-2.6-1.2-2.6-2.6s1.2-2.6 2.6-2.6h14c.5 0 .9-.4.9-.9V43.3c0-.3-.2-.6-.4-.8s-.6-.2-.8-.1l-10.5 4.4c-.7.3-1.3.3-2 0-.6-.3-1.1-.8-1.4-1.4-.5-1.3.1-2.8 1.4-3.4l13.2-5.5c.3-.1.6-.5.6-.8V7c0-.5-.4-.9-.9-.9-27.2 0-49.4 34.4-49.4 76.7 0 8.1.8 16.1 2.4 23.7-10.8-2.4-22.7-3.1-34.9-2-20.3 1.9-38.9 8.8-52.5 19.4-13.6 10.7-20.5 23.8-19.2 37 0 .2.1.5.3.6s.4.2.6.2h.1l28.6-2.7c.4 0 .7-.3.8-.6l4.2-13.7c.2-.7.6-1.2 1.3-1.5.6-.3 1.3-.4 2-.2s1.2.6 1.5 1.3c.3.6.4 1.3.2 2L90 157.2c-.1.3 0 .6.2.8s.5.4.8.3l35.8-3.4c.5 0 .9-.5.8-1L126 140c-.1-.7.1-1.4.6-1.9.4-.5 1.1-.9 1.8-.9.7-.1 1.4.1 1.9.6.5.4.9 1.1.9 1.8l1.3 13.9c0 .5.5.9 1 .8l12.5-1.1c-11.2 5.1-22.2 12.8-32.1 22.6-29.9 29.9-38.5 69.9-19.3 89.1.2.2.4.3.6.3s.5-.1.6-.3l20.3-20.3c.2-.3.3-.6.2-1l-5.5-13.2c-.6-1.3.1-2.9 1.4-3.4s2.8.1 3.4 1.4l4.4 10.5c.1.3.4.5.6.5.3.1.6 0 .8-.2l25.4-25.4c.3-.4.3-.9 0-1.3l-9.9-9.9c-1-1-1-2.7 0-3.7s2.7-1 3.7 0l9.9 9.9c.4.3.9.3 1.3 0l27.5-27.5c.2-.2.3-.5.2-.8s-.3-.5-.5-.7l-10.5-4.4c-.6-.3-1.1-.8-1.4-1.4-.3-.6-.3-1.4 0-2s.8-1.1 1.4-1.4c.6-.3 1.3-.3 2 0l13.2 5.5c.3.1.7.1 1-.2l6.2-6.2 1.4-1.4 2.9-2.9 5-4.7 11.6-11.6h15.9c.4 0 .7-.2.8-.6l5.5-13.2c.3-.7.8-1.1 1.4-1.4.6-.3 1.4-.3 2 0 1.3.5 2 2.1 1.4 3.4l-4.4 10.5c-.1.3-.1.6.1.8.2.2.4.4.8.4h38.9c.5 0 .9-.4.9-.9v-14c0-1.4 1.2-2.6 2.6-2.6s2.6 1.2 2.6 2.6v14c0 .5.4.9.9.9h35.9c.3 0 .6-.1.8-.4.2-.2.2-.6.1-.8l-4.4-10.5c-.3-.7-.3-1.4 0-2s.8-1.1 1.4-1.4c1.3-.5 2.9.1 3.4 1.4l5.5 13.2c.1.3.5.6.8.6h28.8c.5 0 .9-.4.9-.9-.1-27.2-34.5-49.4-76.7-49.4zm-118.1-16c0-40.8 20.9-74.1 46.7-74.8v27.2l-12.6 5.2c-2.2.9-3.3 3.5-2.4 5.8.5 1.1 1.3 1.9 2.4 2.4 1.1.5 2.3.5 3.4 0l9.3-3.8v33.7h-13.1c-2.4 0-4.4 2-4.4 4.4s2 4.4 4.4 4.4H204c-7.6 9.6-13.3 20-16.7 30.4-7.1-4.8-15.6-8.4-25-10.7-1.9-7.9-2.7-16-2.7-24.2zm-25.4 69.5l-1.2-13c-.1-1.2-.7-2.2-1.6-3-.9-.8-2.1-1.1-3.2-1-1.2.1-2.2.7-3 1.6-.7.9-1.1 2.1-1 3.2l1.2 13-33.4 3.2 3-9.6c.3-1.1.2-2.3-.3-3.4-.5-1-1.5-1.8-2.6-2.1-2.3-.7-4.8.6-5.5 2.9l-4 13.1-27.1 2.6c-.8-12.3 5.8-24.5 18.6-34.5 13.2-10.4 31.5-17.1 51.5-19 23.5-2.2 45.7 2.6 61.1 13.1-.5 1.8-1 3.5-1.4 5.2-1.8 8.1-2.1 15.6-.9 22.3-1.6-.3-3.3-.5-5-.7l-5.5-10.4c-.5-1-1.5-1.8-2.6-2.2-1.1-.3-2.3-.2-3.3.3s-1.8 1.5-2.2 2.6c-.3 1.1-.2 2.3.3 3.4l3.4 6.5c-5.9.6-12 2.1-18.1 4.4h-.3l-16.9 1.5zm43-6.2c-1.9-.1-3.8 0-5.8.1l-3.8-7.1c-.3-.6-.4-1.3-.2-2s.7-1.2 1.3-1.5 1.3-.4 2-.2 1.2.7 1.5 1.3l5 9.4zm14.6 20.3l-1.4 1.4-6.4 6.4-12.7-5.2c-1.1-.5-2.3-.5-3.4 0s-1.9 1.3-2.4 2.4c-.5 1.1-.5 2.3 0 3.4s1.3 1.9 2.4 2.4l9.3 3.8-25.9 25.9-9.3-9.3c-1.7-1.7-4.5-1.7-6.2 0s-1.7 4.5 0 6.2l9.3 9.3-23.8 23.8-3.8-9.3c-.9-2.2-3.5-3.3-5.8-2.4-2.2.9-3.3 3.5-2.4 5.8l5.2 12.6-19.3 19.3c-17.7-18.8-9-57.1 19.9-85.9 18.4-18.4 41-29.1 60.2-29.1 3.2 0 6.3.3 9.3.9.9 3.9 2.3 7.6 4.3 10.8l1.2 1.8c.9 1.3 1.9 2.5 3 3.6l-1.3 1.4zm7.2-7l-4.6 4.4c-1.1-1.2-2.1-2.4-2.9-3.7-.3-.5-.7-1-1-1.5-11.9-20.1-2.2-54.4 23.9-80.6 18.8-18.8 41.5-29 60.3-29 10.1 0 19 3 25.6 9.1L281 77.4l-12.6-5.2c-1.1-.5-2.3-.5-3.4 0s-1.9 1.3-2.4 2.4-.5 2.3 0 3.4 1.3 1.9 2.4 2.4l9.3 3.8-16.6 16.7-7.2 7.1-9.3-9.3c-1.7-1.7-4.5-1.7-6.2 0s-1.7 4.5 0 6.2l9.3 9.3-25.9 25.8-3.8-9.3c-.5-1.1-1.3-1.9-2.4-2.4-1.1-.5-2.3-.5-3.4 0-1.1.4-1.9 1.3-2.4 2.4-.5 1.1-.5 2.3 0 3.3l3.4 10.6.6 1.8.4 1.2-11.8 11.8zm126.2-12.1l-5.2-12.6c-.9-2.2-3.5-3.3-5.8-2.4-1.1.4-1.9 1.3-2.4 2.4-.4 1.1-.4 2.3 0 3.4l3.9 9.3H282v-13.1c0-2.4-2-4.4-4.4-4.4s-4.4 2-4.4 4.4v13.1h-36.7l3.9-9.3c.9-2.2-.1-4.8-2.4-5.7-1.1-.5-2.3-.5-3.4 0-1.1.4-1.9 1.3-2.4 2.4l-5.2 12.6h-14.6l-.6-1.9-.6-1.8-3.2-10.2c-.3-.6-.3-1.4 0-2s.8-1.1 1.4-1.4c.6-.3 1.3-.3 2 0 .6.3 1.1.8 1.4 1.4l4.4 10.5c.1.3.4.5.7.5.3.1.6 0 .8-.2l27.5-27.5c.3-.4.3-.9 0-1.3l-9.9-9.9c-.5-.5-.8-1.1-.8-1.8s.3-1.4.8-1.8c1-1 2.7-1 3.7 0l9.9 9.9c.3.3.9.3 1.3 0l7.6-7.6c6.1-1 12.5-1.5 18.9-1.5 40.8 0 74.1 20.9 74.8 46.7h-27.3v-.2z"/></g></svg>