<?xml version="1.0" encoding="utf-8"?>
<!-- Generator: Adobe Illustrator 21.1.0, SVG Export Plug-In . SVG Version: 6.00 Build 0)  -->
<svg version="1.1" id="Layer_1" xmlns="http://www.w3.org/2000/svg" xmlns:xlink="http://www.w3.org/1999/xlink" x="0px" y="0px"
	 viewBox="0 0 461 547.6" style="enable-background:new 0 0 461 547.6;" xml:space="preserve">
<style type="text/css">
	.st0{fill:#FC7E56;stroke:#FC7E56;stroke-width:1.8;stroke-linecap:round;stroke-linejoin:round;stroke-miterlimit:10;}
	.st1{fill:#FFE36E;stroke:#FFE36E;stroke-width:1.8;stroke-linecap:round;stroke-linejoin:round;stroke-miterlimit:10;}
	.st2{fill:#EA5397;stroke:#EA5397;stroke-linecap:round;stroke-linejoin:round;stroke-miterlimit:10;}
	.st3{fill:#07C8E8;}
	.st4{fill:#B52BC9;stroke:#B52BC9;stroke-width:1.8;stroke-linecap:round;stroke-linejoin:round;stroke-miterlimit:10;}
	.st5{fill:none;stroke:#1E1E1E;stroke-width:1.8;stroke-linecap:round;stroke-linejoin:round;stroke-miterlimit:10;}
	.st6{fill:#F9E606;}
	.st7{fill:#EA5397;stroke:#EA5397;stroke-miterlimit:10;}
	.st8{fill:#EA5397;}
	.st9{fill:#9B5851;}
	.st10{fill:#B7DB53;stroke:#B7DB53;stroke-width:1.8;stroke-linecap:round;stroke-linejoin:round;stroke-miterlimit:10;}
	.st11{fill:none;stroke:#353535;stroke-width:1.8;stroke-linecap:round;stroke-linejoin:round;stroke-miterlimit:10;}
	.st12{fill:#F9CC12;stroke:#F9CC12;stroke-width:1.8;stroke-linecap:round;stroke-linejoin:round;stroke-miterlimit:10;}
	.st13{fill:none;stroke:#1E1E1E;stroke-width:1.8;stroke-linejoin:round;stroke-miterlimit:10;}
	.st14{fill:#07C8E8;stroke:#07C8E8;stroke-width:1.8;stroke-linecap:round;stroke-linejoin:round;stroke-miterlimit:10;}
</style>
<circle class="st0" cx="240.5" cy="227.6" r="186.5"/>
<path class="st1" d="M2.8,304.2c-7.6-31.9,8.3-76.4,40.2-85.1c19.7-5.4,37.7,4.7,52.2,17.1c12.6,10.7,20.1,30.9,37.8,34.7
	c21.1,4.5,41.5-17.6,58.8-26.5c20.7-10.6,41.7-20.8,61.7-32.7c24.3-14.5,66.6,5.5,90.9,13.6c22.1,7.4,44.5,14,65.9,23.5
	c20.3,9,52.5,16.7,49.7,45.4c-1.8,17.6-15.6,30.4-22.9,45.6c-8.1,16.9-12.5,38.7-2.4,55.8c10.4,17.7,21.3,29.9,22.2,51.8
	c1.4,31.4-16.7,73.9-49.2,84.9c-43.8,14.8-77.5-36.8-121-31.5c-24.9,3.1-43,24.7-65.4,36.1c-26.5,13.4-58.8,11.7-86.8,1.6
	c-24.2-8.7-50.4-21-70.6-37.9c-26.8-22.2-24.5-45.9-13.9-75.9c8.3-23.6,4-51.2-11.1-71.1C29.7,341.8,17,332.5,9,319.6
	C6.2,315,4.1,309.8,2.8,304.2z"/>
<path class="st2" d="M379.3,312.2c1.8,4.3-0.3,9.3-4.6,11.1c-4.3,1.8-9.3-0.3-11.1-4.6s0.3-9.3,4.6-11.1l3.3,7.9L379.3,312.2"/>
<ellipse transform="matrix(0.9239 -0.3827 0.3827 0.9239 -94.4365 174.8087)" class="st3" cx="392.2" cy="324.8" rx="3.7" ry="3.7"/>
<ellipse transform="matrix(0.9239 -0.3827 0.3827 0.9239 -89.1908 182.6593)" class="st3" cx="414.5" cy="315.5" rx="3.7" ry="3.7"/>
<g>
	<g>
		<g>
			<g>
				<g>
					<path class="st0" d="M240.1,432.6l14.3-2.2c1.2-0.2,2.3-1,2.8-2.1l6.3-13c1.4-2.8,5.4-2.8,6.8-0.1l6.5,12.9
						c0.6,1.1,1.6,1.9,2.9,2l14.3,2c3.1,0.4,4.4,4.2,2.1,6.4l-10.2,10.1c-0.9,0.9-1.3,2.1-1.1,3.4l2.5,14.2c0.6,3.1-2.7,5.5-5.5,4
						l-12.8-6.6c-1.1-0.6-2.4-0.6-3.5,0l-12.7,6.8c-2.8,1.5-6-0.9-5.5-3.9l2.3-14.2c0.2-1.2-0.2-2.5-1.1-3.3l-10.4-10
						C235.8,436.9,237,433.1,240.1,432.6z"/>
					<line class="st0" x1="237.7" y1="435.4" x2="267" y2="444.1"/>
				</g>
				<line class="st0" x1="249.4" y1="470" x2="267" y2="444.1"/>
			</g>
			<line class="st0" x1="285.5" y1="469.5" x2="267" y2="444.1"/>
		</g>
		<line class="st0" x1="296.3" y1="434.8" x2="267" y2="444.1"/>
	</g>
	<line class="st0" x1="267" y1="414.1" x2="267" y2="443.7"/>
</g>
<path class="st4" d="M387.2,188c-45.9-19-98.5,2.8-117.5,48.7l33.9,14c0.9-2.3,3.5-3.3,5.8-2.4c2.3,0.9,3.3,3.5,2.4,5.8l82.1,34
	c0.9-2.3,3.5-3.3,5.8-2.4c2.3,0.9,3.3,3.5,2.4,5.8l33.9,14C454.9,259.7,433.1,207,387.2,188z"/>
<path class="st5" d="M384,180.2c-45.9-19-98.5,2.8-117.5,48.7l33.9,14c0.9-2.3,3.5-3.3,5.8-2.4c2.3,0.9,3.3,3.5,2.4,5.8l82.1,34
	c0.9-2.3,3.5-3.3,5.8-2.4c2.3,0.9,3.3,3.5,2.4,5.8l33.9,14C451.7,251.8,429.9,199.2,384,180.2z"/>
<line class="st5" x1="390.4" y1="164.8" x2="302" y2="378.2"/>
<path class="st5" d="M305.6,240.1c4.8-11.6,24.4-50.6,76.7-60"/>
<path class="st5" d="M397.1,277.8c4.9-11.8,18.3-53-11.9-96.5"/>
<rect x="211.8" y="359.7" transform="matrix(0.9518 0.3068 -0.3068 0.9518 123.3157 -48.1889)" class="st6" width="6.2" height="17"/>
<path class="st7" d="M429.3,366.2l-11.2,4.6c-11.5,4.8-24.7-0.7-29.5-12.2v0c-4.8-11.5,0.7-24.7,12.2-29.5l11.2-4.6
	c11.5-4.8,24.7,0.7,29.5,12.2l0,0C446.3,348.3,440.8,361.5,429.3,366.2z"/>
<path class="st5" d="M384.5,338.7c-6.6-2.7-11-8.8-12.5-16.2"/>
<ellipse transform="matrix(0.9239 -0.3827 0.3827 0.9239 -94.9714 174.1194)" class="st5" cx="390.2" cy="325.8" rx="3.7" ry="3.7"/>
<ellipse transform="matrix(0.9239 -0.3827 0.3827 0.9239 -89.7258 181.9701)" class="st5" cx="412.5" cy="316.5" rx="3.7" ry="3.7"/>
<line class="st5" x1="374.1" y1="360.6" x2="384.6" y2="356.3"/>
<line class="st5" x1="371.8" y1="349.3" x2="382.8" y2="349.9"/>
<line class="st5" x1="387.8" y1="362.1" x2="380.5" y2="370.3"/>
<line class="st5" x1="448.6" y1="329.8" x2="438.1" y2="334.1"/>
<line class="st5" x1="442.3" y1="320.1" x2="434.9" y2="328.3"/>
<line class="st5" x1="439.9" y1="340.5" x2="451" y2="341.1"/>
<path class="st5" d="M376.3,311.2c1.8,4.3-0.3,9.3-4.6,11.1c-4.3,1.8-9.3-0.3-11.1-4.6s0.3-9.3,4.6-11.1l3.3,7.9L376.3,311.2"/>
<path class="st8" d="M431.4,296.4c0,0.1-0.1,0.3-0.1,0.4c0,0.1-0.1,0.3-0.1,0.4c0,0.1-0.1,0.3-0.1,0.4c0,0.1-0.1,0.3-0.1,0.4
	c0,0,0,0,0,0c-1.8,4.3-6.7,6.3-11,4.6c-4.4-1.8-6.5-6.7-4.8-11.1l7.9,3.2l-7.9-3.3c1.8-4.3,6.7-6.3,11-4.6l1.3,0.6
	c0.2,0.1,0.4,0.3,0.6,0.4c0.2,0.1,0.3,0.2,0.4,0.4c0.5,0.4,1,0.9,1.3,1.4c0.1,0.1,0.2,0.3,0.3,0.4c0.1,0.2,0.2,0.3,0.3,0.5
	C431.4,292.3,431.8,294.3,431.4,296.4z"/>
<path class="st5" d="M425.8,321.6c2.7-6.6,1.5-14-2.6-20.3"/>
<path class="st5" d="M425.3,363.2l-11.2,4.6c-11.5,4.8-24.7-0.7-29.5-12.2v0c-4.8-11.5,0.7-24.7,12.2-29.5l11.2-4.6
	c11.5-4.8,24.7,0.7,29.5,12.2l0,0C442.3,345.3,436.8,358.5,425.3,363.2z"/>
<path class="st9" d="M186.8,366.6c0,0,55-52,2-211l25-18c0,0,57,131,13,246"/>
<path class="st5" d="M179.8,365.6c0,0,55-52,2-211l25-18c0,0,57,131,13,246"/>
<path class="st10" d="M179.8,146.3c-14.5-13.1-24.3-37.6-24.3-65.7c0-41.8,21.7-75.8,48.5-75.8v28.8l-13.2,5.5
	c-1.8,0.7-2.6,2.8-1.9,4.6c0.7,1.8,2.8,2.6,4.6,1.9l10.5-4.4v35.9h-14c-1.9,0-3.5,1.6-3.5,3.5s1.6,3.5,3.5,3.5h14v38.9l-10.5-4.4
	c-1.8-0.7-3.8,0.1-4.6,1.9s0.1,3.8,1.9,4.6l13.2,5.5"/>
<path class="st10" d="M84.2,142.3c0.6-1.8,2.5-2.9,4.4-2.3c1.8,0.6,2.9,2.5,2.3,4.4l-3.4,10.9l35.8-3.4l-1.3-13.9
	c-0.2-1.9,1.2-3.6,3.2-3.8c1.9-0.2,3.6,1.2,3.8,3.2l1.3,13.9l38.7-3.7l-5.3-10.1c-0.9-1.7-0.3-3.8,1.5-4.7c1.7-0.9,3.8-0.3,4.7,1.5
	l6.7,12.6l25.6-2.4c-2.5-26.7-38.3-45.1-80-41.2c-41.6,3.9-73.4,28.8-70.8,55.4L80,156L84.2,142.3z"/>
<path class="st10" d="M106.9,228.6c-0.7-1.8,0.1-3.8,1.9-4.6c1.8-0.7,3.8,0.1,4.6,1.9l4.4,10.5l25.4-25.4l-9.9-9.9
	c-1.4-1.4-1.4-3.6,0-4.9s3.6-1.4,4.9,0l9.9,9.9l27.5-27.5l-10.5-4.4c-1.8-0.7-2.6-2.8-1.9-4.6c0.7-1.8,2.8-2.6,4.6-1.9l13.2,5.5
	l18.2-18.2c-18.9-18.9-58.3-10.3-87.9,19.3s-38.2,68.9-19.3,87.9l20.3-20.3L106.9,228.6z"/>
<path class="st10" d="M316,132.9c-0.7-1.8-2.8-2.6-4.6-1.9c-1.8,0.7-2.6,2.8-1.9,4.6l4.4,10.5H278v-14c0-1.9-1.6-3.5-3.5-3.5
	s-3.5,1.6-3.5,3.5v14h-38.9l4.4-10.5c0.7-1.8-0.1-3.8-1.9-4.6s-3.8,0.1-4.6,1.9l-5.5,13.2h-25.8c0-26.8,33.9-48.5,75.8-48.5
	s75.8,21.7,75.8,48.5h-28.8L316,132.9z"/>
<path class="st10" d="M264.9,70.9c-1.8-0.7-3.8,0.1-4.6,1.9c-0.7,1.8,0.1,3.8,1.9,4.6l10.5,4.4l-25.4,25.4l-9.9-9.9
	c-1.4-1.4-3.6-1.4-4.9,0s-1.4,3.6,0,4.9l9.9,9.9l-27.5,27.5l-4.4-10.5c-0.7-1.8-2.8-2.6-4.6-1.9s-2.6,2.8-1.9,4.6l5.5,13.2
	l-18.2,18.2c-18.9-18.9-10.3-58.3,19.3-87.9S279.5,37,298.4,56l-20.3,20.3L264.9,70.9z"/>
<path class="st5" d="M154.1,101.4c-1.7-7.7-2.6-16.1-2.6-24.7c0-41.8,21.7-75.8,48.5-75.8v28.8l-13.2,5.5c-1.8,0.7-2.6,2.8-1.9,4.6
	c0.7,1.8,2.8,2.6,4.6,1.9l10.5-4.4v35.9h-14c-1.9,0-3.5,1.6-3.5,3.5s1.6,3.5,3.5,3.5h12.5"/>
<path class="st5" d="M180.1,112.7c-14.9-10.3-37.4-15.8-61.9-13.4c-41.6,3.9-73.4,28.8-70.8,55.4L76,152l4.2-13.7
	c0.6-1.8,2.5-2.9,4.4-2.3c1.8,0.6,2.9,2.5,2.3,4.4l-3.4,10.9l35.8-3.4l-1.3-13.9c-0.2-1.9,1.2-3.6,3.2-3.8c1.9-0.2,3.6,1.2,3.8,3.2
	l1.3,13.9l17.7-1.6"/>
<path class="st11" d="M163.6,140.8l-3.9-7.4c-0.9-1.7-0.3-3.8,1.5-4.7c1.7-0.9,3.8-0.3,4.7,1.5l5.6,10.6"/>
<path class="st5" d="M178,141.9c-20.5-4.4-48.4,6-70.7,28.3c-29.6,29.6-38.2,68.9-19.3,87.9l20.3-20.3l-5.5-13.2
	c-0.7-1.8,0.1-3.8,1.9-4.6c1.8-0.7,3.8,0.1,4.6,1.9l4.4,10.5l25.4-25.4l-9.9-9.9c-1.4-1.4-1.4-3.6,0-4.9s3.6-1.4,4.9,0l9.9,9.9
	l27.5-27.5l-10.5-4.4c-1.8-0.7-2.6-2.8-1.9-4.6c0.7-1.8,2.8-2.6,4.6-1.9l13.2,5.5l10.5-10.5"/>
<path class="st5" d="M251.2,95.2c6.2-1,12.6-1.6,19.3-1.6c41.8,0,75.8,21.7,75.8,48.5h-28.8l-5.5-13.2c-0.7-1.8-2.8-2.6-4.6-1.9
	c-1.8,0.7-2.6,2.8-1.9,4.6l4.4,10.5H274v-14c0-1.9-1.6-3.5-3.5-3.5s-3.5,1.6-3.5,3.5v14h-38.9l4.4-10.5c0.7-1.8-0.1-3.8-1.9-4.6
	s-3.8,0.1-4.6,1.9l-5.5,13.2h-16"/>
<path class="st5" d="M260.9,66.9c-1.8-0.7-3.8,0.1-4.6,1.9c-0.7,1.8,0.1,3.8,1.9,4.6l10.5,4.4l-25.4,25.4l-9.9-9.9
	c-1.4-1.4-3.6-1.4-4.9,0s-1.4,3.6,0,4.9l9.9,9.9l-27.5,27.5l-4.4-10.5c-0.7-1.8-2.8-2.6-4.6-1.9s-2.6,2.8-1.9,4.6l5.5,13.2
	l-18.2,18.2c-18.9-18.9-10.3-58.3,19.3-87.9S275.5,33,294.4,52l-20.3,20.3L260.9,66.9z"/>
<path class="st12" d="M406.1,481.3l-41.8,1.7c-1.9,0.1-3.8-0.6-5-2.1c-10.9-13.1-10.2-32.8,2.1-45.1l0,0c12.3-12.3,32-13,45.1-2.1
	c1.5,1.2,2.2,3.1,2.1,5L407,477"/>
<polygon class="st12" points="419.6,468.9 394.6,493.9 388.6,482.7 408.4,462.9 "/>
<path class="st5" d="M380.3,480.2l-24.6,1c-1.9,0.1-3.8-0.6-5-2.1c-10.9-13.1-10.2-32.8,2.1-45.1l0,0c12.3-12.3,32-13,45.1-2.1
	c1.5,1.2,2.2,3.1,2.1,5l-1.1,24.7"/>
<polygon class="st5" points="411,467.2 386,492.2 379.9,481 399.8,461.2 "/>
<line class="st5" x1="352.8" y1="434" x2="389.9" y2="471.1"/>
<line class="st13" x1="394.2" y1="466.8" x2="370.9" y2="424.5"/>
<line class="st13" x1="385.5" y1="475.4" x2="343.3" y2="452.1"/>
<path class="st5" d="M235.1,428.6l14.3-2.2c1.2-0.2,2.3-1,2.8-2.1l6.3-13c1.4-2.8,5.4-2.8,6.8-0.1l6.5,12.9c0.6,1.1,1.6,1.9,2.9,2
	l14.3,2c3.1,0.4,4.4,4.2,2.1,6.4l-10.2,10.1c-0.9,0.9-1.3,2.1-1.1,3.4l2.5,14.2c0.6,3.1-2.7,5.5-5.5,4l-12.8-6.6
	c-1.1-0.6-2.4-0.6-3.5,0l-12.7,6.8c-2.8,1.5-6-0.9-5.5-3.9l2.3-14.2c0.2-1.2-0.2-2.5-1.1-3.3l-10.4-10
	C230.8,432.9,232,429.1,235.1,428.6z"/>
<line class="st5" x1="232.7" y1="431.4" x2="262" y2="440.1"/>
<line class="st5" x1="244.4" y1="466" x2="262" y2="440.1"/>
<line class="st5" x1="280.5" y1="465.5" x2="262" y2="440.1"/>
<line class="st5" x1="291.3" y1="430.8" x2="262" y2="440.1"/>
<line class="st5" x1="262" y1="410.1" x2="262" y2="439.7"/>
<path class="st5" d="M429.4,294.4c0,0.1-0.1,0.3-0.1,0.4c0,0.1-0.1,0.3-0.1,0.4c0,0.1-0.1,0.3-0.1,0.4c0,0.1-0.1,0.3-0.1,0.4
	c0,0,0,0,0,0c-1.8,4.3-6.7,6.3-11,4.6c-4.4-1.8-6.5-6.7-4.8-11.1l7.9,3.2l-7.9-3.3c1.8-4.3,6.7-6.3,11-4.6l1.3,0.6
	c0.2,0.1,0.4,0.3,0.6,0.4c0.2,0.1,0.3,0.2,0.4,0.4c0.5,0.4,1,0.9,1.3,1.4c0.1,0.1,0.2,0.3,0.3,0.4c0.1,0.2,0.2,0.3,0.3,0.5
	C429.4,290.3,429.8,292.3,429.4,294.4z"/>
<g>
	<line class="st14" x1="75.5" y1="307.6" x2="160.1" y2="511.8"/>
	<line class="st14" x1="99.3" y1="298.8" x2="183.5" y2="502.1"/>
	<path class="st14" d="M163.7,488.3l20.1,15.9c7-20.6-0.3-65-20-112.5c-25-60.5-60.7-103.1-79.6-95.3
		c-18.9,7.8-13.9,63.2,11.1,123.6c19.7,47.6,45.9,84.1,65.4,93.7L163.7,488.3z"/>
</g>
<line class="st11" x1="114.3" y1="446.3" x2="122.7" y2="466.6"/>
<line class="st11" x1="156.5" y1="428.8" x2="164.9" y2="449.2"/>
<line class="st11" x1="144.3" y1="459.9" x2="152.7" y2="480.2"/>
<g>
	<line class="st5" x1="67.8" y1="307.5" x2="152.4" y2="511.7"/>
	<line class="st5" x1="91.6" y1="298.8" x2="175.8" y2="502"/>
	<path class="st5" d="M156,488.3l20.1,15.9c7-20.6-0.3-65-20-112.5c-25-60.5-60.7-103.1-79.6-95.3c-18.9,7.8-13.9,63.2,11.1,123.6
		c19.7,47.6,45.9,84.1,65.4,93.7L156,488.3z"/>
</g>
</svg>
