<svg id="Layer_1" xmlns="http://www.w3.org/2000/svg" viewBox="0 0 461 547.6"><style>.st0{fill:#fc7e56;stroke:#fc7e56;stroke-width:1.8;stroke-linecap:round;stroke-linejoin:round;stroke-miterlimit:10}.st3{fill:#07c8e8}.st5{fill:none;stroke:#1e1e1e;stroke-width:1.8;stroke-linejoin:round;stroke-miterlimit:10}.st10,.st11,.st5{stroke-linecap:round}.st10{stroke-width:1.8;stroke-linejoin:round;stroke-miterlimit:10;fill:#b7db53;stroke:#b7db53}.st11{fill:none;stroke:#353535}.st11,.st12,.st13,.st14{stroke-width:1.8;stroke-linejoin:round;stroke-miterlimit:10}.st12{stroke-linecap:round;fill:#f9cc12;stroke:#f9cc12}.st13,.st14{fill:none;stroke:#1e1e1e}.st14{fill:#07c8e8;stroke:#07c8e8;stroke-linecap:round}</style><circle class="st0" cx="240.5" cy="227.6" r="186.5"/><path d="M2.8 304.2c-7.6-31.9 8.3-76.4 40.2-85.1 19.7-5.4 37.7 4.7 52.2 17.1 12.6 10.7 20.1 30.9 37.8 34.7 21.1 4.5 41.5-17.6 58.8-26.5 20.7-10.6 41.7-20.8 61.7-32.7 24.3-14.5 66.6 5.5 90.9 13.6 22.1 7.4 44.5 14 65.9 23.5 20.3 9 52.5 16.7 49.7 45.4-1.8 17.6-15.6 30.4-22.9 45.6-8.1 16.9-12.5 38.7-2.4 55.8 10.4 17.7 21.3 29.9 22.2 51.8 1.4 31.4-16.7 73.9-49.2 84.9-43.8 14.8-77.5-36.8-121-31.5-24.9 3.1-43 24.7-65.4 36.1-26.5 13.4-58.8 11.7-86.8 1.6-24.2-8.7-50.4-21-70.6-37.9-26.8-22.2-24.5-45.9-13.9-75.9 8.3-23.6 4-51.2-11.1-71.1-9.2-11.8-21.9-21.1-29.9-34-2.8-4.6-4.9-9.8-6.2-15.4z" fill="#ffe36e" stroke="#ffe36e" stroke-width="1.8" stroke-linecap="round" stroke-linejoin="round" stroke-miterlimit="10"/><path d="M379.3 312.2c1.8 4.3-.3 9.3-4.6 11.1-4.3 1.8-9.3-.3-11.1-4.6s.3-9.3 4.6-11.1l3.3 7.9 7.8-3.3" fill="#ea5397" stroke="#ea5397" stroke-linecap="round" stroke-linejoin="round" stroke-miterlimit="10"/><ellipse transform="rotate(-22.5 392.175 324.774)" class="st3" cx="392.2" cy="324.8" rx="3.7" ry="3.7"/><ellipse transform="rotate(-22.5 414.53 315.514)" class="st3" cx="414.5" cy="315.5" rx="3.7" ry="3.7"/><path class="st0" d="M240.1 432.6l14.3-2.2c1.2-.2 2.3-1 2.8-2.1l6.3-13c1.4-2.8 5.4-2.8 6.8-.1l6.5 12.9c.6 1.1 1.6 1.9 2.9 2l14.3 2c3.1.4 4.4 4.2 2.1 6.4l-10.2 10.1c-.9.9-1.3 2.1-1.1 3.4l2.5 14.2c.6 3.1-2.7 5.5-5.5 4l-12.8-6.6c-1.1-.6-2.4-.6-3.5 0l-12.7 6.8c-2.8 1.5-6-.9-5.5-3.9l2.3-14.2c.2-1.2-.2-2.5-1.1-3.3l-10.4-10c-2.3-2.1-1.1-5.9 2-6.4zM237.7 435.4l29.3 8.7M249.4 470l17.6-25.9M285.5 469.5L267 444.1M296.3 434.8l-29.3 9.3M267 414.1v29.6"/><path d="M387.2 188c-45.9-19-98.5 2.8-117.5 48.7l33.9 14c.9-2.3 3.5-3.3 5.8-2.4 2.3.9 3.3 3.5 2.4 5.8l82.1 34c.9-2.3 3.5-3.3 5.8-2.4 2.3.9 3.3 3.5 2.4 5.8l33.9 14c18.9-45.8-2.9-98.5-48.8-117.5z" fill="#b52bc9" stroke="#b52bc9" stroke-width="1.8" stroke-linecap="round" stroke-linejoin="round" stroke-miterlimit="10"/><path class="st5" d="M384 180.2c-45.9-19-98.5 2.8-117.5 48.7l33.9 14c.9-2.3 3.5-3.3 5.8-2.4 2.3.9 3.3 3.5 2.4 5.8l82.1 34c.9-2.3 3.5-3.3 5.8-2.4 2.3.9 3.3 3.5 2.4 5.8l33.9 14c18.9-45.9-2.9-98.5-48.8-117.5zM390.4 164.8L302 378.2M305.6 240.1c4.8-11.6 24.4-50.6 76.7-60M397.1 277.8c4.9-11.8 18.3-53-11.9-96.5"/><path transform="rotate(17.862 214.912 368.178)" fill="#f9e606" d="M211.8 359.7h6.2v17h-6.2z"/><path d="M429.3 366.2l-11.2 4.6c-11.5 4.8-24.7-.7-29.5-12.2-4.8-11.5.7-24.7 12.2-29.5l11.2-4.6c11.5-4.8 24.7.7 29.5 12.2 4.8 11.6-.7 24.8-12.2 29.5z" fill="#ea5397" stroke="#ea5397" stroke-miterlimit="10"/><path class="st5" d="M384.5 338.7c-6.6-2.7-11-8.8-12.5-16.2"/><ellipse transform="rotate(-22.5 390.175 325.774)" class="st5" cx="390.2" cy="325.8" rx="3.7" ry="3.7"/><ellipse transform="rotate(-22.5 412.53 316.514)" class="st5" cx="412.5" cy="316.5" rx="3.7" ry="3.7"/><path class="st5" d="M374.1 360.6l10.5-4.3M371.8 349.3l11 .6M387.8 362.1l-7.3 8.2M448.6 329.8l-10.5 4.3M442.3 320.1l-7.4 8.2M439.9 340.5l11.1.6M376.3 311.2c1.8 4.3-.3 9.3-4.6 11.1-4.3 1.8-9.3-.3-11.1-4.6s.3-9.3 4.6-11.1l3.3 7.9 7.8-3.3"/><path d="M431.4 296.4c0 .1-.1.3-.1.4 0 .1-.1.3-.1.4 0 .1-.1.3-.1.4 0 .1-.1.3-.1.4-1.8 4.3-6.7 6.3-11 4.6-4.4-1.8-6.5-6.7-4.8-11.1l7.9 3.2-7.9-3.3c1.8-4.3 6.7-6.3 11-4.6l1.3.6c.2.1.4.3.6.4.2.1.3.2.4.4.5.4 1 .9 1.3 1.4.1.1.2.3.3.4.1.2.2.3.3.5 1 1.8 1.4 3.8 1 5.9z" fill="#ea5397"/><path class="st5" d="M425.8 321.6c2.7-6.6 1.5-14-2.6-20.3M425.3 363.2l-11.2 4.6c-11.5 4.8-24.7-.7-29.5-12.2-4.8-11.5.7-24.7 12.2-29.5l11.2-4.6c11.5-4.8 24.7.7 29.5 12.2 4.8 11.6-.7 24.8-12.2 29.5z"/><path d="M186.8 366.6s55-52 2-211l25-18s57 131 13 246" fill="#9b5851"/><path class="st5" d="M179.8 365.6s55-52 2-211l25-18s57 131 13 246"/><path class="st10" d="M179.8 146.3c-14.5-13.1-24.3-37.6-24.3-65.7 0-41.8 21.7-75.8 48.5-75.8v28.8l-13.2 5.5c-1.8.7-2.6 2.8-1.9 4.6.7 1.8 2.8 2.6 4.6 1.9l10.5-4.4v35.9h-14c-1.9 0-3.5 1.6-3.5 3.5s1.6 3.5 3.5 3.5h14V123l-10.5-4.4c-1.8-.7-3.8.1-4.6 1.9s.1 3.8 1.9 4.6l13.2 5.5"/><path class="st10" d="M84.2 142.3c.6-1.8 2.5-2.9 4.4-2.3 1.8.6 2.9 2.5 2.3 4.4l-3.4 10.9 35.8-3.4L122 138c-.2-1.9 1.2-3.6 3.2-3.8 1.9-.2 3.6 1.2 3.8 3.2l1.3 13.9 38.7-3.7-5.3-10.1c-.9-1.7-.3-3.8 1.5-4.7 1.7-.9 3.8-.3 4.7 1.5l6.7 12.6 25.6-2.4c-2.5-26.7-38.3-45.1-80-41.2-41.6 3.9-73.4 28.8-70.8 55.4L80 156l4.2-13.7z"/><path class="st10" d="M106.9 228.6c-.7-1.8.1-3.8 1.9-4.6 1.8-.7 3.8.1 4.6 1.9l4.4 10.5 25.4-25.4-9.9-9.9c-1.4-1.4-1.4-3.6 0-4.9s3.6-1.4 4.9 0l9.9 9.9 27.5-27.5-10.5-4.4c-1.8-.7-2.6-2.8-1.9-4.6.7-1.8 2.8-2.6 4.6-1.9l13.2 5.5 18.2-18.2c-18.9-18.9-58.3-10.3-87.9 19.3S73.1 243.2 92 262.2l20.3-20.3-5.4-13.3zM316 132.9c-.7-1.8-2.8-2.6-4.6-1.9-1.8.7-2.6 2.8-1.9 4.6l4.4 10.5H278v-14c0-1.9-1.6-3.5-3.5-3.5s-3.5 1.6-3.5 3.5v14h-38.9l4.4-10.5c.7-1.8-.1-3.8-1.9-4.6s-3.8.1-4.6 1.9l-5.5 13.2h-25.8c0-26.8 33.9-48.5 75.8-48.5s75.8 21.7 75.8 48.5h-28.8l-5.5-13.2z"/><path class="st10" d="M264.9 70.9c-1.8-.7-3.8.1-4.6 1.9-.7 1.8.1 3.8 1.9 4.6l10.5 4.4-25.4 25.4-9.9-9.9c-1.4-1.4-3.6-1.4-4.9 0s-1.4 3.6 0 4.9l9.9 9.9-27.5 27.5-4.4-10.5c-.7-1.8-2.8-2.6-4.6-1.9s-2.6 2.8-1.9 4.6l5.5 13.2-18.2 18.2c-18.9-18.9-10.3-58.3 19.3-87.9S279.5 37 298.4 56l-20.3 20.3-13.2-5.4z"/><path class="st5" d="M154.1 101.4c-1.7-7.7-2.6-16.1-2.6-24.7C151.5 34.9 173.2.9 200 .9v28.8l-13.2 5.5c-1.8.7-2.6 2.8-1.9 4.6.7 1.8 2.8 2.6 4.6 1.9l10.5-4.4v35.9h-14c-1.9 0-3.5 1.6-3.5 3.5s1.6 3.5 3.5 3.5h12.5"/><path class="st5" d="M180.1 112.7c-14.9-10.3-37.4-15.8-61.9-13.4-41.6 3.9-73.4 28.8-70.8 55.4L76 152l4.2-13.7c.6-1.8 2.5-2.9 4.4-2.3 1.8.6 2.9 2.5 2.3 4.4l-3.4 10.9 35.8-3.4L118 134c-.2-1.9 1.2-3.6 3.2-3.8 1.9-.2 3.6 1.2 3.8 3.2l1.3 13.9 17.7-1.6"/><path class="st11" d="M163.6 140.8l-3.9-7.4c-.9-1.7-.3-3.8 1.5-4.7 1.7-.9 3.8-.3 4.7 1.5l5.6 10.6"/><path class="st5" d="M178 141.9c-20.5-4.4-48.4 6-70.7 28.3-29.6 29.6-38.2 68.9-19.3 87.9l20.3-20.3-5.5-13.2c-.7-1.8.1-3.8 1.9-4.6 1.8-.7 3.8.1 4.6 1.9l4.4 10.5 25.4-25.4-9.9-9.9c-1.4-1.4-1.4-3.6 0-4.9s3.6-1.4 4.9 0l9.9 9.9 27.5-27.5-10.5-4.4c-1.8-.7-2.6-2.8-1.9-4.6.7-1.8 2.8-2.6 4.6-1.9l13.2 5.5 10.5-10.5M251.2 95.2c6.2-1 12.6-1.6 19.3-1.6 41.8 0 75.8 21.7 75.8 48.5h-28.8l-5.5-13.2c-.7-1.8-2.8-2.6-4.6-1.9-1.8.7-2.6 2.8-1.9 4.6l4.4 10.5H274v-14c0-1.9-1.6-3.5-3.5-3.5s-3.5 1.6-3.5 3.5v14h-38.9l4.4-10.5c.7-1.8-.1-3.8-1.9-4.6s-3.8.1-4.6 1.9l-5.5 13.2h-16"/><path class="st5" d="M260.9 66.9c-1.8-.7-3.8.1-4.6 1.9-.7 1.8.1 3.8 1.9 4.6l10.5 4.4-25.4 25.4-9.9-9.9c-1.4-1.4-3.6-1.4-4.9 0s-1.4 3.6 0 4.9l9.9 9.9-27.5 27.5-4.4-10.5c-.7-1.8-2.8-2.6-4.6-1.9s-2.6 2.8-1.9 4.6l5.5 13.2-18.2 18.2c-18.9-18.9-10.3-58.3 19.3-87.9S275.5 33 294.4 52l-20.3 20.3-13.2-5.4z"/><path class="st12" d="M406.1 481.3l-41.8 1.7c-1.9.1-3.8-.6-5-2.1-10.9-13.1-10.2-32.8 2.1-45.1 12.3-12.3 32-13 45.1-2.1 1.5 1.2 2.2 3.1 2.1 5L407 477"/><path class="st12" d="M419.6 468.9l-25 25-6-11.2 19.8-19.8z"/><path class="st5" d="M380.3 480.2l-24.6 1c-1.9.1-3.8-.6-5-2.1-10.9-13.1-10.2-32.8 2.1-45.1 12.3-12.3 32-13 45.1-2.1 1.5 1.2 2.2 3.1 2.1 5l-1.1 24.7M411 467.2l-25 25-6.1-11.2 19.9-19.8zM352.8 434l37.1 37.1"/><path class="st13" d="M394.2 466.8l-23.3-42.3M385.5 475.4l-42.2-23.3"/><path class="st5" d="M235.1 428.6l14.3-2.2c1.2-.2 2.3-1 2.8-2.1l6.3-13c1.4-2.8 5.4-2.8 6.8-.1l6.5 12.9c.6 1.1 1.6 1.9 2.9 2l14.3 2c3.1.4 4.4 4.2 2.1 6.4l-10.2 10.1c-.9.9-1.3 2.1-1.1 3.4l2.5 14.2c.6 3.1-2.7 5.5-5.5 4l-12.8-6.6c-1.1-.6-2.4-.6-3.5 0l-12.7 6.8c-2.8 1.5-6-.9-5.5-3.9l2.3-14.2c.2-1.2-.2-2.5-1.1-3.3l-10.4-10c-2.3-2.1-1.1-5.9 2-6.4zM232.7 431.4l29.3 8.7M244.4 466l17.6-25.9M280.5 465.5L262 440.1M291.3 430.8l-29.3 9.3M262 410.1v29.6M429.4 294.4c0 .1-.1.3-.1.4 0 .1-.1.3-.1.4 0 .1-.1.3-.1.4 0 .1-.1.3-.1.4-1.8 4.3-6.7 6.3-11 4.6-4.4-1.8-6.5-6.7-4.8-11.1l7.9 3.2-7.9-3.3c1.8-4.3 6.7-6.3 11-4.6l1.3.6c.2.1.4.3.6.4.2.1.3.2.4.4.5.4 1 .9 1.3 1.4.1.1.2.3.3.4.1.2.2.3.3.5 1 1.8 1.4 3.8 1 5.9z"/><g><path class="st14" d="M75.5 307.6l84.6 204.2M99.3 298.8l84.2 203.3M163.7 488.3l20.1 15.9c7-20.6-.3-65-20-112.5-25-60.5-60.7-103.1-79.6-95.3-18.9 7.8-13.9 63.2 11.1 123.6 19.7 47.6 45.9 84.1 65.4 93.7l3-25.4z"/></g><path class="st11" d="M114.3 446.3l8.4 20.3M156.5 428.8l8.4 20.4M144.3 459.9l8.4 20.3"/><g><path class="st5" d="M67.8 307.5l84.6 204.2M91.6 298.8L175.8 502M156 488.3l20.1 15.9c7-20.6-.3-65-20-112.5-25-60.5-60.7-103.1-79.6-95.3-18.9 7.8-13.9 63.2 11.1 123.6 19.7 47.6 45.9 84.1 65.4 93.7l3-25.4z"/></g></svg>