<svg id="Layer_1" xmlns="http://www.w3.org/2000/svg" viewBox="0 0 86.8 75.6"><style>.st1{fill:#1e1e1e}</style><path d="M86.8 11.6v45.2c0 3.1-2.5 5.6-5.6 5.6h-28l3.3 11.4H68c.5 0 .9.4.9.9s-.4.9-.9.9H24.8c-.5 0-.9-.4-.9-.9s.4-.9.9-.9h11.5l3.2-11.4h-28c-3.1 0-5.6-2.5-5.6-5.6V11.6C5.9 8.5 8.4 6 11.5 6h69.6c3.2 0 5.7 2.6 5.7 5.6z" fill="#fc7e56"/><path class="st1" d="M75.2 0H5.6C2.5 0 0 2.5 0 5.6v45.2c0 3.1 2.5 5.6 5.6 5.6h28l-3.3 11.4H18.8c-.5 0-.9.4-.9.9s.4.9.9.9h43.3c.5 0 .9-.4.9-.9s-.4-.9-.9-.9H50.5l-3.2-11.4h28c3.1 0 5.6-2.5 5.6-5.6V5.6c-.1-3-2.6-5.6-5.7-5.6zM48.6 67.8H32.2l3.2-11.4h10l3.2 11.4zm30.4-17c0 2.1-1.7 3.8-3.8 3.8H5.6c-2.1 0-3.8-1.7-3.8-3.8V5.6c0-2.1 1.7-3.8 3.8-3.8h69.6c2.1 0 3.8 1.7 3.8 3.8v45.2z"/><path class="st1" d="M59 32.5h-6.1v-.7c0-2.2-.4-4.3-1.2-6.3l4.6-3.6c.4-.3.4-.9.1-1.3-.3-.4-.9-.5-1.3-.1l-4.2 3.4c-.8-1.4-1.7-2.6-2.8-3.7.1-.5.2-1 .2-1.5 0-4.3-3.5-7.9-7.9-7.9s-7.9 3.5-7.9 7.9c0 .5.1 1 .2 1.5-1.3 1.2-2.3 2.6-3.1 4.3l-4.5-3.2c-.4-.3-1-.2-1.3.2s-.2 1 .2 1.3l4.8 3.5c-.6 1.8-1 3.7-1 5.6v.7h-6.1c-.5 0-.9.4-.9.9s.4.9.9.9h6.2c.3 2.2 1.1 4.3 2.1 6.1L24.4 45c-.4.3-.4.9-.1 1.3.2.2.4.3.7.3.2 0 .4-.1.6-.2l5.5-4.4c2.3 2.9 5.6 4.8 9.2 4.8 3.8 0 7.3-2 9.6-5.3l5.8 4.2c.2.1.3.2.5.2.3 0 .5-.1.7-.4.3-.4.2-1-.2-1.3L50.8 40c.9-1.7 1.5-3.5 1.8-5.6h6.2c.5 0 .9-.4.9-.9.1-.6-.3-1-.7-1zM34.3 18.8c0-3.3 2.7-6.1 6.1-6.1 3.4 0 6.1 2.7 6.1 6.1v.2c-.2-.2-.4-.3-.7-.4-.3-.1-.5-.3-.8-.4-.5-.2-.9-.4-1.4-.5-.2-.1-.5-.1-.7-.2h-.1c-.2-.1-.5-.1-.8-.2-.3 0-.5-.1-.8-.1h-1.6c-.3 0-.5 0-.8.1-.3 0-.5.1-.8.2h-.1c-.2.1-.5.1-.7.2-.5.1-.9.3-1.4.5-.3.1-.6.3-.8.4-.2.1-.5.3-.7.4v-.2zm6.1 26.1c-5.9 0-10.7-5.8-10.7-13 0-4.2 1.7-8.2 4.6-10.6 1.8-1.5 3.9-2.4 6.1-2.4 1.4 0 2.7.3 4 .9.5.2 1 .5 1.4.9.2.1.3.2.4.4.1.1.2.1.2.2 2.9 2.4 4.6 6.4 4.6 10.6.1 7.2-4.7 13-10.6 13z"/><path class="st1" d="M45.8 18.5c.2.1.5.3.7.4-.3-.1-.5-.3-.7-.4zm-1.4 1.3c.5.2 1 .5 1.4.9-.4-.3-.9-.6-1.4-.9zm-10.1-.9c.2-.1.4-.3.7-.4-.2.1-.4.3-.7.4z"/></svg>