<svg id="Layer_1" xmlns="http://www.w3.org/2000/svg" viewBox="0 0 100 100"><style></style><path d="M97 41.6c0 .6-.2 1.2-.5 1.7v40.2c0 .5-.4.9-.9.9s-.9-.4-.9-.9V44.7L78.5 50v25c0 .1 0 .3-.1.4-1.4 4-17.2 5.1-25.8 5.1s-24.4-1.1-25.8-5.1c-.1-.1-.1-.3-.1-.4V50L9.9 44.5h-.1C8.7 43.9 8 42.8 8 41.6s.7-2.3 1.8-2.9L50.6 23c1.2-.6 2.7-.6 3.9 0l40.6 15.6c1.2.7 1.9 1.8 1.9 3z" fill="#07c8e8"/><path d="M90.1 31.7L49.5 16.1c-1.2-.6-2.7-.6-3.9 0L4.8 31.7c-1.1.6-1.8 1.7-1.8 2.9s.7 2.3 1.8 2.9h.1L21.5 43v25c0 .1 0 .3.1.4 1.4 4 17.2 5.1 25.8 5.1s24.4-1.1 25.8-5.1c.1-.1.1-.3.1-.4V43l16.2-5.3v38.8c0 .5.4.9.9.9s.9-.4.9-.9V36.3c.3-.5.5-1.1.5-1.7.2-1.2-.5-2.3-1.7-2.9zM47.5 71.8c-15.3 0-23.8-2.5-24.1-3.8.4-1.4 8.8-3.8 24.1-3.8s23.8 2.5 24.1 3.8c-.4 1.3-8.8 3.8-24.1 3.8zm24.2-6.1c-4.6-2.7-16.9-3.4-24.2-3.4s-19.6.7-24.2 3.4V43.6l22.3 7.3c.6.3 1.2.4 1.9.4s1.3-.1 1.9-.4l22.3-7.3v22.1zm17.7-29.9L48.8 49.1s-.1 0-.1.1c-.7.4-1.6.4-2.3 0 0 0-.1 0-.1-.1L5.6 35.8c-.5-.2-.7-.7-.7-1.2s.3-1 .7-1.2l40.7-15.7h.1c.7-.4 1.6-.4 2.4 0l40.6 15.6c.5.2.8.7.8 1.3 0 .5-.3 1-.8 1.2z" fill="#1e1e1e"/></svg>