<svg id="Layer_1" xmlns="http://www.w3.org/2000/svg" viewBox="0 0 100 100"><style>.st2{fill:#1e1e1e}</style><path class="st2" d="M8.7 49.6v.1l22.4 15.8c.1.1.1.2.1.3v2c0 .1-.1.2-.2.3h-.2c-.1 0-.1 0-.2-.1L6.4 50.9c-.1-.1-.1-.2-.1-.3v-2c0-.1 0-.2.1-.3l24.2-17c.1-.1.3-.1.4 0 .1.1.2.2.2.4v1.7c0 .1-.1.3-.2.3L8.7 49.6zM62.3 20.7L40.2 79.6c-.1.2-.2.3-.4.3h-1.7c-.1 0-.3-.1-.3-.2-.1-.1-.1-.3-.1-.4l22.1-58.9c.1-.2.2-.3.4-.3h1.7c.1 0 .3.1.3.2.1.2.1.3.1.4zM93.7 48.7v2c0 .1 0 .2-.1.3L69.2 68h-.4c-.1-.1-.2-.2-.2-.3v-1.9c0-.1.1-.3.2-.4l22.4-15.7v-.1L68.8 33.8c-.1-.1-.1-.2-.1-.3v-1.7c0-.2.1-.3.2-.4.2-.1.3-.1.5 0l24.2 16.9c.1.2.1.3.1.4z"/></svg>