<svg id="Layer_1" xmlns="http://www.w3.org/2000/svg" viewBox="0 0 100 100"><style>.st2{fill:#1e1e1e}</style><path d="M91.8 14.6v74.9c0 1.3-1.1 2.4-2.4 2.4H14.6c-1.3 0-2.4-1.1-2.4-2.4V14.6c0-1.3 1.1-2.4 2.4-2.4h74.9c1.3 0 2.3 1.1 2.3 2.4z" fill="#07c8e8"/><path class="st2" d="M32.8 34.9L15.9 46.8l16.9 11.9c.1.1.2.2.2.4v1.5c0 .2-.1.3-.3.4-.1 0-.2.1-.2.1-.1 0-.2 0-.3-.1L13.7 48c-.1-.1-.2-.2-.2-.4V46c0-.2.1-.3.2-.4l18.4-12.9c.2-.1.4-.1.6 0 .2.1.3.3.3.5v1.3c0 .1-.1.3-.2.4zM56.5 24.8L39.7 69.6c-.1.2-.2.3-.4.3H38c-.1 0-.3-.1-.4-.2-.1-.1-.1-.3-.1-.4l16.8-44.8c.1-.2.2-.3.4-.3H56c.1 0 .3.1.4.2.1.1.1.2.1.4zM80.6 46v1.5c0 .2-.1.3-.2.4l-18.5 13c-.2.1-.3.1-.4.1h-.2c-.2-.1-.3-.3-.3-.4v-1.5c0-.2.1-.4.2-.5L78 46.8 61.2 34.9c-.1-.1-.2-.2-.2-.4v-1.3c0-.2.1-.4.3-.5.2-.1.4-.1.6 0l18.4 12.9c.2.1.3.2.3.4z"/><path d="M84.5 85.9H9.6c-.8 0-1.4-.6-1.4-1.4V9.6c0-.8.6-1.4 1.4-1.4h74.9c.8 0 1.4.6 1.4 1.4v74.9c0 .8-.6 1.4-1.4 1.4z" fill="none" stroke="#1e1e1e" stroke-width="1.88" stroke-miterlimit="10"/></svg>