<svg id="Layer_1" xmlns="http://www.w3.org/2000/svg" viewBox="0 0 100 100"><style>.st2{fill:#1e1e1e}</style><ellipse transform="rotate(-76.714 52.644 53.096)" cx="52.6" cy="53.1" rx="41.6" ry="41.6" fill="#b7db53"/><path class="st2" d="M47.4 88.5c-22.9 0-41.6-18.7-41.6-41.6S24.4 5.3 47.4 5.3C70.3 5.3 89 24 89 46.9S70.3 88.5 47.4 88.5zm0-81.2C25.5 7.3 7.7 25.1 7.7 46.9s17.8 39.6 39.6 39.6C69.2 86.5 87 68.8 87 46.9S69.2 7.3 47.4 7.3z"/><path class="st2" d="M34.7 65.3l.9-1.1c.1-.1.3-.1.4 0 2.6 2.4 6.7 5.1 11.8 5.1 6.4 0 10-4 10-9.5 0-15.4-21.4-10.8-21.4-25.9 0-6.1 5.1-11 11.2-11.1 5.4-.1 8.3 2.2 11 4.9.1.1.1.3 0 .4l-1 1c-.1.1-.3.1-.4 0-2.7-2.7-4.9-4.3-9.5-4.3-5.3 0-8.9 4-8.9 8.9 0 13.6 21.4 8.8 21.4 25.9 0 7.3-5.6 11.7-12.3 11.7-5.6 0-10.2-2.8-13.1-5.5-.2-.2-.2-.4-.1-.5zm12.2-49.9h1.6c.2 0 .3.1.3.3v8.2h-2.2v-8.2c0-.1.2-.3.3-.3zm-.3 55.5h2.2v7.2c0 .2-.1.3-.3.3h-1.6c-.2 0-.3-.1-.3-.3v-7.2z"/></svg>