<svg id="Layer_1" xmlns="http://www.w3.org/2000/svg" viewBox="0 0 100 100"><style>.st1{fill:#1e1e1e}</style><path d="M88.3 46c0 20-16.2 36.2-36.2 36.2C32.2 82.2 16 66 16 46 16 26 32.2 9.8 52.2 9.8c19.9.1 36.1 16.3 36.1 36.2z" fill="#07c8e8"/><path class="st1" d="M46.4 77.6c-20 0-36.2-16.2-36.2-36.2 0-20 16.2-36.2 36.2-36.2s36.2 16.2 36.2 36.2c-.1 20-16.3 36.2-36.2 36.2zm0-70.6C27.4 7 12 22.4 12 41.4s15.4 34.4 34.4 34.4 34.4-15.4 34.4-34.4S65.3 7 46.4 7z"/><path class="st1" d="M47.2 84.2V93h18.3c.5 0 .9.4.9.9s-.4.9-.9.9H27.1c-.5 0-.9-.4-.9-.9s.4-.9.9-.9h18.3v-8.9c-10.1-.5-20.1-4.6-27.8-12.3-.4-.4-.4-.9 0-1.3s.9-.4 1.3 0c15.8 15.8 41.5 15.8 57.3 0C83.8 62.8 88 52.7 88 41.8c0-10.8-4.2-21-11.9-28.7-.4-.3-.4-.9 0-1.3.4-.3.9-.3 1.3 0 8 8 12.4 18.6 12.4 29.9s-4.4 22-12.4 30C69.2 80 58.3 84.2 47.5 84.2h-.3z"/></svg>