<svg xmlns="http://www.w3.org/2000/svg" viewBox="0 0 93.08 108.87"><defs><style>.cls-1{fill:#231f20;}</style></defs><title>globe</title><g id="Layer_2" data-name="Layer 2"><g id="callouts"><path class="cls-1" d="M93.08,41.87a53,53,0,0,0-19-40.7,5,5,0,0,0-6.42,7.66,43.08,43.08,0,0,1-27,76.1,3.18,3.18,0,0,0-1.27,0,42.91,42.91,0,0,1-22.46-6.67,5,5,0,0,0-5.36,8.44,52.84,52.84,0,0,0,23.43,8v4.16H13a5,5,0,1,0,0,10H66a5,5,0,1,0,0-10H45V94.71A53.15,53.15,0,0,0,93.08,41.87Z"/><path class="cls-1" d="M40,81.87a40,40,0,1,0-40-40A40,40,0,0,0,40,81.87Zm0-70a30,30,0,1,1-30,30A30,30,0,0,1,40,11.87Z"/></g></g></svg>