<svg id="Layer_1" xmlns="http://www.w3.org/2000/svg" viewBox="0 0 100 100"><style>.st1{fill:#1e1e1e}.st3{fill:#f9cc12}</style><path class="st3" d="M97.5 36.4L78.2 55.7l4.5 5c.1.1.2.2.2.4 1.9 2.3 1.7 5.7-.4 7.8-1.5 1.5-3.6 2-5.5 1.6.4 1.9-.1 4-1.6 5.5-1.1 1.2-2.7 1.7-4.2 1.7-.5 0-.9-.1-1.3-.2.4 1.9-.1 4-1.6 5.5-1.5 1.4-3.5 2-5.5 1.6.4 1.9-.1 4-1.6 5.5l-.2.2c-1 1-2.5 1.6-4 1.6s-3-.6-4-1.7l-5.9-5.9-.3.3c-2.4 2.4-6.3 2.4-8.7 0-2.1-2.1-2.4-5.3-.9-7.6-2.4 1.5-5.6 1.2-7.6-.8-1.2-1.2-1.8-2.7-1.8-4.4 0-1.2.3-2.3.9-3.3-1 .6-2.1 1-3.3 1-1.6 0-3.2-.6-4.3-1.8-1.2-1.2-1.8-2.7-1.8-4.3 0-1.7.6-3.2 1.8-4.4l.3-.3L5.1 42.3c-.3-.3-.3-.9 0-1.2l21.7-22.8c.2-.2.4-.3.7-.3.2 0 .5.1.6.3l4.3 4.3 4.3 4.3c.2.2.4.4.6.5.2.1.5 0 .8 0 4.9-.4 8.8.1 11.8 1.6l1.9-1.9c2.4-2.4 5.7-3.6 9.1-3.2l5.8.7 9.5-9.5c.4-.4.9-.4 1.3 0l20 20c.2.2.3.4.3.6s-.2.5-.3.7z"/><path class="st1" d="M27.9 58.4c-.2.5-.5.9-.9 1.3l-.2.2-6.1-6.1c0-.1.1-.1.2-.2.4-.4.8-.7 1.3-.9l5.7 5.7zM29.3 59.8c-.1 0-.1.1-.2.1.1 0 .1-.1.2-.1zM36.4 66.9c-.2.5-.5.9-.9 1.3l-.2.2-6.1-6.1c0-.1.1-.1.2-.2.4-.4.8-.7 1.3-.9l5.7 5.7zM37.8 68.3c-.1 0-.1.1-.2.1.1-.1.1-.1.2-.1zM44.9 75.4c-.2.5-.5.9-.9 1.3l-.2.2-6.1-6.1.2-.2c.4-.4.8-.7 1.3-.9l5.7 5.7z"/><path class="st3" d="M28.3 56.6c0 .6-.1 1.2-.4 1.8-.2.5-.5.9-.9 1.3l-.2.2C26 60.6 25 61 24 61c-1.2 0-2.3-.5-3.1-1.3-.8-.8-1.3-1.9-1.3-3.1 0-1.1.4-2.1 1.1-2.9 0-.1.1-.1.2-.2.4-.4.8-.7 1.3-.9.6-.3 1.2-.4 1.8-.4 1.1 0 2.2.4 3.1 1.3.7.9 1.2 2 1.2 3.1z"/><path class="st1" d="M27.9 61c-.2.3-.5.5-.7.8.3-.2.6-.4.8-.7l-.1-.1z"/><path class="st1" d="M94.9 28.4c-.4-.3-.9-.3-1.3 0L74 48 55.3 29.3c-.3-.3-.9-.4-1.2 0l-7.6 7.5c-.8.8-1.5 1.8-2 2.9-1 2.3-2.7 4-4.4 4.6-1.2.4-3.5.2-4.1-.8-.8-1.4 0-3.9 1.8-8.4.4-.9.9-1.8 1.6-2.5l11-11c2-2 4.8-3 7.6-2.7l6.3.7c.3 0 .5-.1.7-.2l9.8-9.8c.4-.3.4-.9 0-1.3-.3-.3-.9-.3-1.3 0L64 17.8l-5.8-.7c-3.4-.4-6.7.8-9.1 3.2l-1.9 1.9c-3.1-1.5-6.9-2-11.8-1.6-.3 0-.6.1-.8 0-.2-.1-.4-.3-.6-.5l-8.6-8.6c-.4-.4-.9-.4-1.3 0-.3.3-.3.9 0 1.3l8.6 8.6c.3.3.7.7 1.2.9.6.2 1.2.2 1.7.1 4.2-.4 7.6 0 10.3 1.2l-7.7 7.7c-.9.9-1.6 2-2 3.1-2 5.2-2.8 7.9-1.7 10 1.1 2 4.3 2.3 6.2 1.6 2.2-.8 4.2-2.8 5.4-5.6.4-1 1-1.8 1.6-2.4l6.9-6.9 23.9 24c.8.8 1.2 1.8 1.2 2.9 0 1.1-.4 2.1-1.2 2.9-1.6 1.6-4.2 1.6-5.8 0L57.5 45.6c-.3-.4-.9-.4-1.3 0s-.4.9 0 1.3l15.3 15.3c1.6 1.6 1.6 4.2 0 5.8-1.6 1.6-4.2 1.6-5.8 0L50.5 52.7c-.3-.4-.9-.4-1.3 0s-.4.9 0 1.3l15.3 15.3c1.6 1.6 1.6 4.2 0 5.8-.8.8-1.8 1.2-2.9 1.2-1.1 0-2.1-.4-2.9-1.2L43.4 59.8c-.4-.4-.9-.4-1.3 0-.3.4-.3.9 0 1.3l15.3 15.3c1.6 1.6 1.6 4.2 0 5.8l-.1.1c-1.5 1.5-4 1.5-5.5 0l-5.6-5.6c.6-.9.9-2 .9-3.1 0-1.6-.6-3.2-1.8-4.3-1.2-1.2-2.7-1.8-4.4-1.8-1.1 0-2.2.3-3.1.9-.1 0-.1.1-.2.1 0 0 .1-.1.1-.2.6-.9.9-2 .9-3.1 0-1.7-.6-3.2-1.8-4.3-2-2-5.1-2.3-7.5-.9-.1 0-.1.1-.2.1 0-.1.1-.1.1-.2.6-.9.9-2 .9-3.1 0-1.6-.6-3.2-1.8-4.3-2-2-5.1-2.3-7.5-.9l-17-17c-.3-.4-.9-.4-1.3 0-.4.3-.4.9 0 1.3l16.9 16.9c-1 1.1-1.6 2.6-1.6 4.1 0 1.6.6 3.2 1.8 4.3 1.2 1.2 2.7 1.8 4.4 1.8 1.2 0 2.3-.3 3.3-1 .2-.3.4-.6.7-.8l.2.2c-.3.2-.5.5-.8.7-.6 1-1 2.1-1 3.3 0 1.6.6 3.2 1.8 4.3 1.2 1.2 2.7 1.8 4.3 1.8 1.2 0 2.3-.3 3.3-1 .2-.3.4-.6.7-.8l.2.2c-.3.2-.5.5-.8.6-.6 1-1 2.1-1 3.3 0 1.6.6 3.2 1.8 4.3 1.2 1.2 2.8 1.8 4.3 1.8s3-.5 4.1-1.6l5.4 5.4c1.1 1.1 2.6 1.7 4 1.7 1.5 0 2.9-.6 4-1.7l.1-.1c1.5-1.5 2-3.6 1.6-5.5.4.1.9.2 1.3.2 1.6 0 3.1-.6 4.2-1.7 1.5-1.5 2-3.6 1.6-5.5.4.1.9.2 1.3.2 1.5 0 3-.6 4.2-1.7 1.5-1.5 2-3.6 1.6-5.5.4.1.9.1 1.3.1 1.6 0 3.1-.6 4.2-1.7s1.7-2.6 1.7-4.2-.6-3.1-1.7-4.2l-4.6-4.6 19.6-19.6c.3-.6.3-1.2 0-1.5zm-67 30c-.2.5-.5.9-.9 1.3l-.2.2C26 60.6 25 61 24 61c-1.2 0-2.3-.5-3.1-1.3-.8-.8-1.3-1.9-1.3-3.1 0-1.1.4-2.1 1.1-2.9 0-.1.1-.1.2-.2.4-.4.8-.7 1.3-.9.6-.3 1.2-.4 1.8-.4 1.1 0 2.2.4 3.1 1.3.8.8 1.3 1.9 1.3 3.1-.1.6-.2 1.3-.5 1.8zm8.5 8.5c-.2.5-.5.9-.9 1.3l-.2.2c-.8.7-1.8 1.1-2.9 1.1-1.2 0-2.3-.5-3.1-1.3-.8-.8-1.3-1.9-1.3-3.1 0-1.1.4-2.1 1.1-2.9 0-.1.1-.1.2-.2.4-.4.8-.7 1.3-.9.6-.3 1.2-.4 1.8-.4 1.1 0 2.2.4 3.1 1.3.8.8 1.3 1.9 1.3 3.1 0 .6-.2 1.2-.4 1.8zm1.4 9.8c-.8-.8-1.3-1.9-1.3-3.1 0-1.1.4-2.1 1.1-2.9l.2-.2c.4-.4.8-.7 1.3-.9.5-.3 1.2-.4 1.8-.4 1.2 0 2.2.5 3.1 1.3.8.8 1.3 1.9 1.3 3.1 0 .6-.1 1.2-.4 1.8-.2.5-.5.9-.9 1.3l-.2.2c-1.7 1.5-4.3 1.4-6-.2z"/><g><path class="st3" d="M36.8 65.1c0 .6-.1 1.2-.4 1.8-.2.5-.5.9-.9 1.3l-.2.2c-.8.7-1.8 1.1-2.9 1.1-1.2 0-2.3-.5-3.1-1.3-.8-.8-1.3-1.9-1.3-3.1 0-1.1.4-2.1 1.1-2.9 0-.1.1-.1.2-.2.4-.4.8-.7 1.3-.9.6-.3 1.2-.4 1.8-.4 1.1 0 2.2.4 3.1 1.3.8.8 1.3 1.9 1.3 3.1z"/><path class="st1" d="M27.9 61c-.2.3-.5.5-.7.8.3-.2.6-.4.8-.7l-.1-.1zm8.5 8.4c-.2.3-.5.5-.7.8.3-.2.6-.4.8-.6l-.1-.2z"/></g><g><path class="st3" d="M45.3 73.6c0 .6-.1 1.2-.4 1.8-.2.5-.5.9-.9 1.3l-.2.2c-1.7 1.5-4.3 1.5-6-.2-.8-.8-1.3-1.9-1.3-3.1 0-1.1.4-2.1 1.1-2.9l.2-.2c.4-.4.8-.7 1.3-.9.5-.3 1.2-.4 1.8-.4 1.2 0 2.2.5 3.1 1.3.8.8 1.3 1.9 1.3 3.1z"/><path class="st1" d="M36.4 69.4c-.2.3-.5.5-.7.8.3-.2.6-.4.8-.6l-.1-.2z"/></g></svg>