<svg xmlns="http://www.w3.org/2000/svg" viewBox="0 0 111.53 93.2"><defs><style>.cls-1{fill:#231f20;}</style></defs><title>heart</title><g id="Layer_2" data-name="Layer 2"><g id="callouts"><path class="cls-1" d="M55.77,93.2a5,5,0,0,1-2.24-.53C51.34,91.58,0,65.52,0,31.79,0,12.48,12.48,0,31.79,0,44,0,51.53,5.62,55.77,10.6,60,5.62,67.49,0,79.74,0c19.31,0,31.79,12.48,31.79,31.79,0,33.73-51.34,59.79-53.53,60.88A5,5,0,0,1,55.77,93.2ZM31.79,10C25.24,10,10,12.12,10,31.79c0,21.72,31.12,42.92,45.74,50.76a157.58,157.58,0,0,0,22.4-14.92C88.81,59,101.53,45.8,101.53,31.79,101.53,12.12,86.29,10,79.74,10,65,10,60.49,21.54,60.44,21.65a5,5,0,0,1-9.35,0C50.91,21.21,46.28,10,31.79,10Z"/></g></g></svg>