<svg id="Layer_1" xmlns="http://www.w3.org/2000/svg" viewBox="0 0 100 100"><style>.st2{fill:#ea5397}</style><path class="st2" d="M45.9 20.6c.5.6.9 1.2 1.4 1.8.3.4.9.5 1.3.2-.9-.8-1.8-1.4-2.7-2z"/><path class="st2" d="M91.8 41.5c0 10.1-4.9 20.1-14.6 29.6-8.6 8.5-18.7 14.3-24 17-.4.2-.8.3-1.2.3s-.8-.1-1.2-.3c-5.3-2.7-15.4-8.5-24-17-4.2-4.2-7.5-8.4-9.9-12.7-1.8-3.2-3-6.4-3.8-9.6-.6-2.4-.9-4.9-.9-7.3 0-11.8 8.6-23.9 23-23.9 4 0 7.5 1 10.7 3 .5.6.9 1.2 1.4 1.8.3.4.9.5 1.3.2 1.2 1.1 2.4 2.3 3.5 3.8 4.5-5.9 10-8.8 16.8-8.8 4.7 0 8.8 1.3 12.2 3.5 1.7 1.1 3.2 2.3 4.5 3.8 4 4.5 6.2 10.6 6.2 16.6z"/><path d="M87.4 30.7c-.2-1.1-.5-2.1-.8-3.2-.3-.9-.7-1.8-1.1-2.7-3.5-7.4-10.7-13.2-20.6-13.2-6.8 0-12.3 2.9-16.8 8.8-4.5-5.9-10-8.8-16.8-8.8-14.4 0-23 12.2-23 23.9 0 7.8 2.9 15.5 8.7 22.9 1.4 1.8 2.9 3.6 4.6 5.3.4.5.9.9 1.3 1.3 1.7 1.7 3.5 3.2 5.3 4.7 7.2 5.9 14.5 10.1 18.7 12.3.4.2.8.3 1.2.3s.8-.1 1.2-.3c5.3-2.7 15.4-8.5 24-17 9.7-9.5 14.6-19.5 14.6-29.6-.1-1.5-.2-3.1-.5-4.7zM72 63.8c-8.5 8.3-18.4 14-23.6 16.7-.2.1-.5.1-.8 0-5.2-2.7-15.1-8.4-23.6-16.7-2.1-2.1-4-4.2-5.6-6.3-1.2-1.5-2.2-3-3.1-4.4-.9-1.4-1.6-2.8-2.3-4.2-2-4.4-3-8.9-3-13.4 0-10.9 7.9-22.1 21.2-22.1 5.9 0 10.7 2.4 14.7 7.2.5.6.9 1.2 1.4 1.8.3.4.9.5 1.3.2.1 0 .1-.1.2-.2 4.3-6.1 9.5-9 16.1-9 7 0 12.5 3.1 16.2 7.7.6.7 1.1 1.5 1.6 2.2.5.8 1 1.7 1.4 2.6 1.4 3 2.1 6.4 2.1 9.7-.2 9.5-4.9 19-14.2 28.2z" fill="#1e1e1e"/></svg>