<svg id="Layer_1" xmlns="http://www.w3.org/2000/svg" viewBox="0 0 100 100"><style>.st2{fill:#1e1e1e}</style><path class="st2" d="M20.6 20.5v12.3H8.3V20.5h12.3m.8-1.8H7.6c-.6 0-1.1.5-1.1 1.1v13.8c0 .6.5 1.1 1.1 1.1h13.8c.6 0 1.1-.5 1.1-1.1V19.8c-.1-.6-.6-1.1-1.1-1.1zM91.7 20.5v12.3H28.5V20.5h63.2m.7-1.8H27.7c-.6 0-1.1.5-1.1 1.1v13.8c0 .6.5 1.1 1.1 1.1h64.7c.6 0 1.1-.5 1.1-1.1V19.8c0-.6-.5-1.1-1.1-1.1zM91.7 43.8v12.3H28.5V43.8h63.2m.7-1.8H27.7c-.6 0-1.1.5-1.1 1.1v13.8c0 .6.5 1.1 1.1 1.1h64.7c.6 0 1.1-.5 1.1-1.1V43.1c0-.6-.5-1.1-1.1-1.1zM91.7 67.2v12.3H28.5V67.2h63.2m.7-1.8H27.7c-.6 0-1.1.5-1.1 1.1v13.8c0 .6.5 1.1 1.1 1.1h64.7c.6 0 1.1-.5 1.1-1.1V66.4c0-.5-.5-1-1.1-1zM20.6 43.8v12.3H8.3V43.8h12.3m.8-1.8H7.6c-.6 0-1.1.5-1.1 1.1v13.8c0 .6.5 1.1 1.1 1.1h13.8c.6 0 1.1-.5 1.1-1.1V43.1c-.1-.6-.6-1.1-1.1-1.1zM20.6 67.2v12.3H8.3V67.2h12.3m.8-1.8H7.6c-.6 0-1.1.5-1.1 1.1v13.8c0 .6.5 1.1 1.1 1.1h13.8c.6 0 1.1-.5 1.1-1.1V66.4c-.1-.5-.6-1-1.1-1z"/></svg>