<svg id="Layer_1" xmlns="http://www.w3.org/2000/svg" viewBox="0 0 100 100"><style>.st2{fill:#1e1e1e}.st3{fill:#ea5397}</style><path class="st3" d="M24.4 21.8v13.8c0 .6-.5 1.1-1.1 1.1H9.6c-.6 0-1.1-.5-1.1-1.1V21.8c0-.6.5-1.1 1.1-1.1h13.8c.5 0 1 .5 1 1.1zM95.5 21.8v13.8c0 .6-.5 1.1-1.1 1.1H29.7c-.6 0-1.1-.5-1.1-1.1V21.8c0-.6.5-1.1 1.1-1.1h64.7c.6 0 1.1.5 1.1 1.1zM95.5 45.1v13.8c0 .6-.5 1.1-1.1 1.1H29.7c-.6 0-1.1-.5-1.1-1.1V45.1c0-.6.5-1.1 1.1-1.1h64.7c.6 0 1.1.5 1.1 1.1zM95.5 68.4v13.8c0 .6-.5 1.1-1.1 1.1H29.7c-.6 0-1.1-.5-1.1-1.1V68.4c0-.6.5-1.1 1.1-1.1h64.7c.6.1 1.1.6 1.1 1.1zM24.4 45.1v13.8c0 .6-.5 1.1-1.1 1.1H9.6c-.6 0-1.1-.5-1.1-1.1V45.1c0-.6.5-1.1 1.1-1.1h13.8c.5 0 1 .5 1 1.1zM24.4 68.4v13.8c0 .6-.5 1.1-1.1 1.1H9.6c-.6 0-1.1-.5-1.1-1.1V68.4c0-.6.5-1.1 1.1-1.1h13.8c.5.1 1 .6 1 1.1z"/><g><path class="st2" d="M18.6 18.5v12.3H6.3V18.5h12.3m.8-1.8H5.6c-.6 0-1.1.5-1.1 1.1v13.8c0 .6.5 1.1 1.1 1.1h13.8c.6 0 1.1-.5 1.1-1.1V17.8c-.1-.6-.6-1.1-1.1-1.1zM89.7 18.5v12.3H26.5V18.5h63.2m.7-1.8H25.7c-.6 0-1.1.5-1.1 1.1v13.8c0 .6.5 1.1 1.1 1.1h64.7c.6 0 1.1-.5 1.1-1.1V17.8c0-.6-.5-1.1-1.1-1.1zM89.7 41.8v12.3H26.5V41.8h63.2m.7-1.8H25.7c-.6 0-1.1.5-1.1 1.1v13.8c0 .6.5 1.1 1.1 1.1h64.7c.6 0 1.1-.5 1.1-1.1V41.1c0-.6-.5-1.1-1.1-1.1zM89.7 65.2v12.3H26.5V65.2h63.2m.7-1.8H25.7c-.6 0-1.1.5-1.1 1.1v13.8c0 .6.5 1.1 1.1 1.1h64.7c.6 0 1.1-.5 1.1-1.1V64.4c0-.5-.5-1-1.1-1zM18.6 41.8v12.3H6.3V41.8h12.3m.8-1.8H5.6c-.6 0-1.1.5-1.1 1.1v13.8c0 .6.5 1.1 1.1 1.1h13.8c.6 0 1.1-.5 1.1-1.1V41.1c-.1-.6-.6-1.1-1.1-1.1zM18.6 65.2v12.3H6.3V65.2h12.3m.8-1.8H5.6c-.6 0-1.1.5-1.1 1.1v13.8c0 .6.5 1.1 1.1 1.1h13.8c.6 0 1.1-.5 1.1-1.1V64.4c-.1-.5-.6-1-1.1-1z"/></g></svg>