<svg id="Layer_1" xmlns="http://www.w3.org/2000/svg" viewBox="0 0 100 100"><style>.st1{fill:#1e1e1e}</style><path d="M76.1 13.8v62.5c0 .3-.2.6-.4.8-.1.1-.3.2-.5.2-.1 0-.2 0-.3-.1L55.5 69H43l7.7 18.9c.3.7.3 1.5 0 2.3-.3.8-.9 1.3-1.6 1.6-1 .4-2.1.6-3.3.6-3.5 0-6.7-2.1-8-5.4l-7.4-18C18 68.1 8.2 57.7 8.2 45.1c0-13.2 10.8-24 24-24h23.4L74.8 13c.3-.1.6-.1.8.1.3.1.5.4.5.7z" fill="#fc7e56"/><path class="st1" d="M71.3 7.7c-.3-.2-.6-.2-.8-.1l-19.3 8.1H27.7c-13.2 0-24 10.8-24 24 0 13 10.4 23.6 23.3 23.9l7.4 18.1c1.4 3.3 4.6 5.4 8 5.4 1.1 0 2.2-.2 3.3-.6.8-.3 1.3-.9 1.6-1.6.3-.7.3-1.6 0-2.3l-7.7-18.9H51l19.3 8.1c.1 0 .2.1.3.1.2 0 .4 0 .5-.1.2-.2.4-.5.4-.8V8.4c.2-.3 0-.5-.2-.7zM45.8 83.2c.2.6 0 1.3-.7 1.6-3.5 1.4-7.5-.2-9-3.8L29 63.6h8.7l8.1 19.6zm4.6-21.3H27.7C15.5 61.9 5.5 52 5.5 39.7c0-12.2 9.9-22.2 22.2-22.2h22.7v44.4zm19.5 7.7l-17.7-7.4v-45l17.7-7.4v59.8zM95.3 41.1H82.2c-.5 0-.9-.4-.9-.9s.4-.9.9-.9h13.2c.5 0 .9.4.9.9s-.5.9-1 .9zM92.7 53.5c-.1 0-.2 0-.3-.1l-12.2-4.9c-.5-.2-.7-.7-.5-1.2s.7-.7 1.2-.5L93 51.7c.5.2.7.7.5 1.2-.2.4-.5.6-.8.6zM80.4 33.7c-.4 0-.7-.2-.8-.6-.2-.5 0-1 .5-1.2L92.3 27c.5-.2 1 0 1.2.5.2.5 0 1-.5 1.2l-12.2 4.9c-.1.1-.2.1-.4.1z"/></svg>