<svg id="Layer_1" xmlns="http://www.w3.org/2000/svg" viewBox="0 0 100 100"><style>.st2{fill:#1e1e1e}</style><circle cx="53" cy="53" r="36.2" fill="#fc7e56"/><path class="st2" d="M47 10.8C27.1 10.8 10.8 27 10.8 47S27.1 83.2 47 83.2 83.2 67 83.2 47 66.9 10.8 47 10.8zm0 70.6C28 81.4 12.6 66 12.6 47S28 12.6 47 12.6 81.4 28 81.4 47 66 81.4 47 81.4z"/><path class="st2" d="M65.3 28.7c-.9-.9-2.2-1-3.3-.4l-19.7 11c-.7.4-1.1 1-1.2 1.7v.1H41c-.7.1-1.4.5-1.7 1.2L28.3 62c-.7 1.2-.5 2.5.4 3.3.5.5 1.2.8 1.9.8.5 0 1-.1 1.5-.4l19.8-11c.6-.4 1.1-1 1.2-1.7v-.1H53c.7-.1 1.4-.5 1.7-1.2l11-19.7c.6-1.1.5-2.4-.4-3.3zM51.2 52.8c0 .1-.1.3-.3.4l-19.7 11c-.4.2-.9.2-1.2-.1-.3-.3-.3-.7-.1-1.2l11-19.7c.1-.2.3-.3.4-.3h.1c.1 0 .2 0 .4.2l9.3 9.3c.1.1.1.2.1.4zm12.9-21.7l-11 19.7c-.1.2-.3.3-.4.3-.1 0-.3 0-.5-.2L43 41.7c-.2-.2-.2-.4-.2-.5 0-.1.1-.3.3-.4l19.7-11c.4-.2.9-.2 1.2.1.3.4.4.8.1 1.2z"/></svg>