<svg id="Layer_1" xmlns="http://www.w3.org/2000/svg" viewBox="0 0 100 100"><style></style><path d="M97.9 75.7c0 .5-.4.9-.9.9H54.3c1 2.7 1.6 5.7 1.6 8.8 0 .5-.4.9-.9.9H7c-.5 0-.9-.4-.9-.9 0-11.8 8.2-21.7 19.3-24.3-5.1-2.2-8.6-7.2-8.6-13.1 0-7.9 6.4-14.2 14.2-14.2S45.2 40.1 45.2 48c0 5.9-3.6 10.9-8.6 13.1 2.8.7 5.5 1.8 7.9 3.3 3.6-8 10.8-14.1 19.6-16-5.8-2.4-10-8.1-10-14.7 0-8.8 7.1-15.9 15.9-15.9s15.9 7.1 15.9 15.9c0 6.7-4.1 12.4-10 14.7 12.6 2.7 22 13.9 22 27.3z" fill="#07c8e8"/><path d="M71.9 44.4c5.8-2.4 10-8.1 10-14.7 0-8.8-7.1-15.9-15.9-15.9s-15.9 7.1-15.9 15.9c0 6.7 4.1 12.4 10 14.7-8.8 1.9-16 8-19.6 16-2.4-1.5-5-2.7-7.9-3.3 5.1-2.2 8.6-7.2 8.6-13.1 0-7.9-6.4-14.2-14.2-14.2S12.8 36.1 12.8 44c0 5.9 3.6 10.9 8.6 13.1-11 2.5-19.3 12.5-19.3 24.3 0 .5.4.9.9.9h48c.5 0 .9-.4.9-.9 0-3.1-.6-6-1.6-8.8H93c.5 0 .9-.4.9-.9 0-13.4-9.4-24.6-22-27.3zm-20-14.7c0-7.8 6.3-14.1 14.1-14.1s14.1 6.3 14.1 14.1S73.8 43.8 66 43.8s-14.1-6.4-14.1-14.1zM14.6 44c0-6.9 5.6-12.4 12.4-12.4S39.4 37.1 39.4 44 33.9 56.4 27 56.4 14.6 50.9 14.6 44zM3.9 80.4C4.4 68.1 14.6 58.2 27 58.2s22.6 9.9 23.1 22.2H3.9zm45.6-9.6c-1.7-3.7-4.3-6.9-7.6-9.3 4-9.3 13.2-15.9 24-15.9C80 45.6 91.5 56.8 92 70.8H49.5z" fill="#1e1e1e"/></svg>