<svg id="Layer_1" xmlns="http://www.w3.org/2000/svg" viewBox="0 0 100 100"><style>.st1{fill:#1e1e1e}</style><path d="M85.4 15.8v74.6c0 .5-.4.9-.9.9H22c-.5 0-.9-.4-.9-.9V15.8c0-.5.4-.9.9-.9h62.6c.4 0 .8.4.8.9z" fill="#05B4DD"/><path class="st1" d="M78.1 85.1H15.5c-.5 0-.9-.4-.9-.9V9.6c0-.5.4-.9.9-.9h62.6c.5 0 .9.4.9.9v74.6c-.1.5-.5.9-.9.9zm-61.8-1.8h60.8V10.4H16.3v72.9z"/><path class="st1" d="M70 26H23.6c-.5 0-.9-.4-.9-.9s.4-.9.9-.9H70c.5 0 .9.4.9.9s-.5.9-.9.9zM70 40.5H23.6c-.5 0-.9-.4-.9-.9s.4-.9.9-.9H70c.5 0 .9.4.9.9s-.5.9-.9.9zM70 55H23.6c-.5 0-.9-.4-.9-.9s.4-.9.9-.9H70c.5 0 .9.4.9.9s-.5.9-.9.9zM70 69.5H23.6c-.5 0-.9-.4-.9-.9s.4-.9.9-.9H70c.5 0 .9.4.9.9s-.5.9-.9.9z"/></svg>
