<svg xmlns="http://www.w3.org/2000/svg" viewBox="0 0 83 101"><defs><style>.cls-1{fill:#231f20;}</style></defs><title>program</title><g id="Layer_2" data-name="Layer 2"><g id="callouts"><path class="cls-1" d="M78,101H5a5,5,0,0,1-5-5V5A5,5,0,0,1,5,0H78a5,5,0,0,1,5,5V96A5,5,0,0,1,78,101ZM10,91H73V10H10Z"/><path class="cls-1" d="M62,28H22a5,5,0,0,1,0-10H62a5,5,0,0,1,0,10Z"/><path class="cls-1" d="M61.5,46h-40a5,5,0,0,1,0-10h40a5,5,0,0,1,0,10Z"/><path class="cls-1" d="M61.5,64h-40a5,5,0,0,1,0-10h40a5,5,0,0,1,0,10Z"/><path class="cls-1" d="M62,82H22a5,5,0,0,1,0-10H62a5,5,0,0,1,0,10Z"/></g></g></svg>