<svg id="Layer_1" xmlns="http://www.w3.org/2000/svg" viewBox="0 0 100 100"><style></style><path d="M93.9 44.4L73.6 64.2 78.4 92c.1.8-.7 1.3-1.3 1L52 79.8 27 93c-.7.3-1.5-.2-1.3-1l4.8-27.9-20.4-19.7c-.5-.5-.2-1.4.5-1.6l28-4.1 12.5-25.4c.3-.7 1.3-.7 1.6 0l12.5 25.4 28 4.1c.9.2 1.2 1.1.7 1.6z" fill="#f9cc12"/><path d="M48 9.799999999999999l11.7 23.8c.3.5.8.9 1.4 1l26.2 3.8-19 18.5c-.4.4-.6 1-.5 1.6l4.5 26.1-23.5-12.3c-.2-.2-.5-.3-.8-.3s-.6.1-.8.2L23.7 84.6l4.5-26.1c.1-.6-.1-1.2-.5-1.6l-19-18.5 26.2-3.8c.6-.1 1.1-.5 1.4-1L48 9.8m0-2.9c-.3 0-.7.2-.8.5L34.7 32.8l-28 4.1c-.8.1-1.1 1-.5 1.6l20.3 19.8L21.6 86c-.1.6.4 1.1.9 1.1.1 0 .3 0 .4-.1l25-13.2L73 87c.1.1.3.1.4.1.5 0 1-.5.9-1.1l-4.8-27.9 20.3-19.8c.5-.5.2-1.5-.5-1.6l-28-4.1L48.8 7.4c-.1-.3-.5-.5-.8-.5z" fill="#1e1e1e"/></svg>