<svg id="Layer_1" xmlns="http://www.w3.org/2000/svg" viewBox="0 0 100 100"><style></style><path d="M50 12.799999999999999l11.7 23.8c.3.5.8.9 1.4 1l26.2 3.8-19 18.5c-.4.4-.6 1-.5 1.6l4.5 26.1-23.5-12.4c-.2-.1-.5-.2-.8-.2s-.6.1-.8.2L25.7 87.6l4.5-26.1c.1-.6-.1-1.2-.5-1.6l-19-18.5 26.2-3.8c.6-.1 1.1-.5 1.4-1L50 12.8m0-2.9c-.3 0-.7.2-.8.5L36.7 35.8l-28 4.1c-.8.1-1.1 1-.5 1.6l20.3 19.8L23.6 89c-.1.6.4 1.1.9 1.1.1 0 .3 0 .4-.1l25-13.2L75 90c.1.1.3.1.4.1.5 0 1-.5.9-1.1l-4.8-27.9 20.3-19.8c.5-.5.2-1.5-.5-1.6l-28-4.1-12.5-25.2c-.1-.3-.5-.5-.8-.5z" fill="#1e1e1e"/></svg>