<svg id="Layer_1" xmlns="http://www.w3.org/2000/svg" viewBox="0 0 100 100"><style></style><path d="M94.8 55.5c-.7 10.6-5.3 20.1-12.3 27.1-7 7-16.6 11.5-27.1 12.2-.9.1-1.7.1-2.6.1-7.8 0-15.3-2.1-21.9-6.1l-16 3.5c-1 .2-2.1-.1-2.8-.8-.7-.8-1-1.8-.8-2.8L15 71.5c-3.3-6.6-4.8-14-4.3-21.5C12.1 28.9 29 12 50.1 10.7c12.1-.8 24 3.7 32.5 12.3 8.5 8.6 13 20.4 12.2 32.5z" fill="#07c8e8"/><path d="M47.2 89.4c-7.8 0-15.3-2.1-21.9-6.1L9.4 86.7c-1 .2-2.1-.1-2.8-.8-.7-.7-1.1-1.8-.8-2.8L9.6 66c-3.3-6.6-4.8-14-4.3-21.5 1.4-21.1 18.3-38 39.4-39.3 12.1-.8 24 3.7 32.5 12.3 8.5 8.6 13 20.4 12.2 32.6C87.9 71.2 71 88 49.8 89.3c-.8.1-1.7.1-2.6.1zm-21.7-8c.2 0 .3 0 .5.1 7.1 4.4 15.3 6.5 23.8 6C70 86.3 86.3 70.1 87.6 49.9c.7-11.6-3.5-23-11.7-31.2C67.6 10.5 56.3 6.3 44.7 7 24.5 8.2 8.3 24.4 7 44.6c-.5 7.2 1 14.4 4.2 20.8.1.2.1.4.1.6L7.5 83.4c-.1.4 0 .9.3 1.2.3.3.8.5 1.2.4l16.3-3.6h.2zM88.4 50z" fill="#1e1e1e"/></svg>