<svg xmlns="http://www.w3.org/2000/svg" viewBox="0 0 114.51 89.45"><defs><style>.cls-1{fill:#231f20;}</style></defs><title>talk</title><g id="Layer_2" data-name="Layer 2"><g id="callouts"><path class="cls-1" d="M10.5,89.45a5,5,0,0,1-4.81-6.36L10,67.71C3.46,60.51,0,52.09,0,43.2,0,19.38,25.68,0,57.25,0s57.25,19.38,57.25,43.2S88.82,86.4,57.25,86.4a74.77,74.77,0,0,1-18.16-2.2L11.42,89.37A5,5,0,0,1,10.5,89.45ZM57.25,10C31.2,10,10,24.89,10,43.2c0,7,3.15,13.76,9.1,19.49a5,5,0,0,1,1.35,5L17.5,78.06l20.85-3.9a5,5,0,0,1,2.21.08A64.48,64.48,0,0,0,57.25,76.4c26.06,0,47.25-14.89,47.25-33.2S83.31,10,57.25,10Z"/></g></g></svg>