<svg id="Layer_1" data-name="Layer 1" xmlns="http://www.w3.org/2000/svg" viewBox="0 0 29.62 25.95"><defs><style>.cls-1{fill:#05b4dd}.cls-2{fill:#a31eba}</style></defs><path class="cls-1" d="M14.07 2.06h3.7v3.78h-3.7zM11.88 2h-3.7v5.63a7.2 7.2 0 0 0-1.63-.2C2.69 7.43.19 9.86.19 13.6s2.35 5.88 6.88 5.92a24.22 24.22 0 0 0 4.81-.52zm-3.7 14.46a6.72 6.72 0 0 1-1.27.08 2.68 2.68 0 0 1-2.94-3C4 11.57 5 10.37 6.91 10.37a3.15 3.15 0 0 1 1.23.2z" transform="translate(-.19 -2.02)"/><path class="cls-1" d="M14.07 14.91c0 3.18-.16 4.41-.72 5.45a5.48 5.48 0 0 1-2.94 2.46l3.42 1.63a5.82 5.82 0 0 0 3-2.7c.6-1.15.88-2.63.88-5.57V7.67H14v7.24zM21.39 18.17a7.47 7.47 0 0 0 4.85 1.47 7.12 7.12 0 0 0 3.34-.83v-2.95a5.73 5.73 0 0 1-2.58.64c-1.43 0-3.69-.56-3.69-3.1s2.29-3.1 3.69-3.1a4.91 4.91 0 0 1 2.5.7V8a7.43 7.43 0 0 0-3.22-.72 7.15 7.15 0 0 0-4.69 1.62 6.09 6.09 0 0 0-2 4.5 6.05 6.05 0 0 0 1.83 4.77z" transform="translate(-.19 -2.02)"/><path class="cls-2" d="M23.86 21v4.36a2.56 2.56 0 0 1-.68 1.91 2.64 2.64 0 0 1-1.93.68 2.63 2.63 0 0 1-1.92-.68 2.56 2.56 0 0 1-.68-1.91V21l.06-.07h.5a.74.74 0 0 1 .59.21.9.9 0 0 1 .19.65v3.61c0 1 .42 1.51 1.26 1.51s1.27-.5 1.27-1.51V21a4.17 4.17 0 0 1 .67-.05 4.27 4.27 0 0 1 .67.05zM24.82 27.24a1.53 1.53 0 0 1 .18-.56 1.71 1.71 0 0 1 .36-.46 3.69 3.69 0 0 0 2 .66 1.18 1.18 0 0 0 .76-.22.72.72 0 0 0 .28-.57c0-.38-.27-.68-.77-.9l-1.18-.5a2.57 2.57 0 0 1-1.04-.69 1.69 1.69 0 0 1-.34-1.05 1.81 1.81 0 0 1 .67-1.45 2.57 2.57 0 0 1 .77-.41 3 3 0 0 1 1-.15 4.55 4.55 0 0 1 2.15.55 1.44 1.44 0 0 1-.47 1 4.14 4.14 0 0 0-1.77-.49 1.06 1.06 0 0 0-.73.22.67.67 0 0 0-.26.53c0 .3.24.55.71.75l1.18.5a2.72 2.72 0 0 1 1.1.79 1.74 1.74 0 0 1 .39 1.12 2.13 2.13 0 0 1-.16.84 1.81 1.81 0 0 1-.48.65 2.24 2.24 0 0 1-.81.43 3.52 3.52 0 0 1-1.14.16 4.32 4.32 0 0 1-2.4-.75z" transform="translate(-.19 -2.02)"/></svg>