<svg id="Layer_1" data-name="Layer 1" xmlns="http://www.w3.org/2000/svg" viewBox="0 0 239.46 249.74"><defs><style>.cls-3{fill:#1e1e1e}.cls-4{fill:#ea5397}.cls-5{fill:#07c8e8}</style></defs><path d="M112.79 49.3a45 45 0 0 0 10.9-6.47C131.79 36.58 140 28.45 150.9 29c13.32.69 24.66 7.75 36.48 13 12.42 5.53 24.81 11.17 36.85 17.49 10.45 5.49 20.06 14.34 20.49 26.91.48 14.5-10.06 26.58-13.49 40.19-3.13 12.38-1.37 23.16 4.25 34.23 4.31 8.66 8 16.2 8.41 28a83.7 83.7 0 0 1-6.23 33.46c-6.55 15.88-23.6 28-40.9 21.49-14.23-5.41-24.94-21.57-41.71-19-9.49 1.47-16 8.86-22.58 15.1-7.49 7.11-16.76 12.68-27 14.4-11.39 1.89-23.17-1-33.54-6.11-11.8-5.75-23.93-14.03-33-23.57-13.82-14.59-13.09-30.29-7.37-50.85 4.26-15.28 2-33.53-5.67-46.43a95.62 95.62 0 0 0-6.8-9.65 76.28 76.28 0 0 1-8.73-13.09 51.82 51.82 0 0 1 9.51-58.44c17.5-17.75 46.88-18.42 66.86-4.33 8.34 5.89 15.44 11.62 26.06 7.5z" transform="translate(-5.27 -5.13)" fill="#ffe36e"/><path d="M208.65 147.11a1.21 1.21 0 0 1-.5.5c-.1 0-.2.1-.3.1a.37.37 0 0 1-.3-.1l-33.9-14a1.21 1.21 0 0 1-.5-.5.85.85 0 0 1 0-.7 3.19 3.19 0 0 0 0-2.7 3.24 3.24 0 0 0-1.9-1.9 3.19 3.19 0 0 0-2.7 0 3.54 3.54 0 0 0-1.9 1.9 1.21 1.21 0 0 1-.5.5.85.85 0 0 1-.7 0l-82.1-34a.88.88 0 0 1-.5-1.2 3.52 3.52 0 0 0-6.5-2.7.88.88 0 0 1-1.2.5l-33.9-14a1.21 1.21 0 0 1-.5-.5.85.85 0 0 1 0-.7 90.86 90.86 0 0 1 167.9 69.5z" transform="translate(-5.27 -5.13)" fill="#b52bc9"/><path class="cls-3" d="M205.45 69.81A90.53 90.53 0 0 0 157.15 21l6-14.6a.92.92 0 1 0-1.7-.7l-6 14.6a90.81 90.81 0 0 0-117.9 49.5.85.85 0 0 0 0 .7 1.21 1.21 0 0 0 .5.5L72 85a.88.88 0 0 0 1.2-.5 3.52 3.52 0 1 1 6.5 2.7.88.88 0 0 0 .5 1.2l40.2 16.7-47.3 114.1a.88.88 0 0 0 .5 1.2c.1 0 .2.1.3.1a.76.76 0 0 0 .8-.6L122 105.71l40.2 16.6a.85.85 0 0 0 .7 0 1.21 1.21 0 0 0 .5-.5 3.24 3.24 0 0 1 1.9-1.9 3.19 3.19 0 0 1 2.7 0 3.49 3.49 0 0 1 1.9 4.6.88.88 0 0 0 .5 1.2l33.9 14a.37.37 0 0 0 .3.1.76.76 0 0 0 .8-.6 89.36 89.36 0 0 0 .05-69.4zM71.85 83l-32.3-13.4a88.44 88.44 0 0 1 47.8-47.4 89.8 89.8 0 0 1 34.1-6.8 88.59 88.59 0 0 1 30.4 5.4c-50.4 10-70 47.5-75 59.7a5.35 5.35 0 0 0-5 2.5zm49.2 20.4L81.55 87a5.38 5.38 0 0 0-3-6c5.2-12.3 24.9-49.6 75.7-58.8a.76.76 0 0 0 .4-.2v-.1l-.1.1zm47.3 14.8a5.52 5.52 0 0 0-3.8.1 5.67 5.67 0 0 0-2.5 2.1l-39.4-16.4 33.6-81.2c0-.1-.1-.2-.1-.3s.1 0 .2.1l-.1.3c0 .1 0 .1.1.2 29.65 42.41 17 82.9 12 95.11zm35.8 19.6l-32.3-13.4A5.35 5.35 0 0 0 170 119c4.9-12 17.8-52.4-10.9-95.2a89.1 89.1 0 0 1 45.1 114z" transform="translate(-5.27 -5.13)"/><path class="cls-4" d="M146.75 165.11a8.29 8.29 0 0 1-3.4.7 9 9 0 0 1-3.4-17.4c.3-.1.5 0 .7.3l3.1 7.4 7.4-3.1h.4c.1 0 .2.2.3.3a9.32 9.32 0 0 1-5.1 11.8z" transform="translate(-5.27 -5.13)"/><circle class="cls-5" cx="158.88" cy="160.88" r="3.7"/><circle class="cls-5" cx="181.18" cy="151.68" r="3.7"/><path class="cls-4" d="M214 195.41a23.2 23.2 0 0 1-12.5 12.5l-11.2 4.6a22.41 22.41 0 0 1-17.6 0 23.2 23.2 0 0 1-12.5-12.5 22.41 22.41 0 0 1 0-17.6 22.88 22.88 0 0 1 12.5-12.5l11.2-4.6a22.41 22.41 0 0 1 17.6 0 22.88 22.88 0 0 1 12.5 12.5 23.31 23.31 0 0 1 0 17.6z" transform="translate(-5.27 -5.13)"/><circle class="cls-4" cx="189.88" cy="130.78" r="8.5"/><path class="cls-3" d="M223 181.51l-11-.6a27.69 27.69 0 0 0-1.1-4.8l10.1-4.2a.92.92 0 0 0-.7-1.7l-10.1 4.2a23.8 23.8 0 0 0-2.5-4.4l7.2-8a.92.92 0 0 0-1.4-1.2l-7 7.8a23 23 0 0 0-7.8-6c2.4-6.3 1.4-13.4-2.5-19.8a9.47 9.47 0 0 0 5.3-5.1v-.1l.2-.4v-.1c0-.1.1-.2.1-.4l.2-.9a9.44 9.44 0 0 0-1-6.4l-.3-.6c-.1-.2-.2-.3-.3-.5a7.52 7.52 0 0 0-1.5-1.6l-.1-.1-.3-.3c-.2-.1-.4-.3-.6-.4a.1.1 0 0 1-.1-.1l-1.4-.7a9.51 9.51 0 0 0-12.2 5.1v.2a9.45 9.45 0 0 0 .1 7.2 9.13 9.13 0 0 0 5.2 5 8.42 8.42 0 0 0 3.5.7 8.6 8.6 0 0 0 1.6-.1c3.9 6 4.8 12.7 2.7 18.6a22.15 22.15 0 0 0-8.8-1.6 4.35 4.35 0 0 0 .4-.7 5.93 5.93 0 0 0 .4-1.7 3.92 3.92 0 0 0-.4-1.8 4.6 4.6 0 0 0-8.5 0 4.27 4.27 0 0 0 0 3.5 5.94 5.94 0 0 0 1.3 1.8 14.58 14.58 0 0 0-1.9.7l-11.2 4.6c-.6.3-1.2.5-1.8.8V167a3.29 3.29 0 0 0-.4-1.7 4.6 4.6 0 0 0-8.5 3.5 5.07 5.07 0 0 0 2.5 2.5 1.85 1.85 0 0 0 .7.2 25.69 25.69 0 0 0-5.1 7.4c-5.6-2.6-9.7-8-11.2-14.8a9.4 9.4 0 0 0 4.2-11.9 1.21 1.21 0 0 0-.5-.5.85.85 0 0 0-.7 0l-7 2.9-2.9-7a.88.88 0 0 0-1.2-.5 9.78 9.78 0 0 0-5.1 5.1 9 9 0 0 0 0 7.2 9.43 9.43 0 0 0 8.7 5.8 9 9 0 0 0 2.8-.4c1.7 7.3 6.1 13 12.2 15.8a23.18 23.18 0 0 0-1.2 9.7l-10.4-.6a.82.82 0 0 0-.9.8 1 1 0 0 0 .8 1l10.7.6a22.57 22.57 0 0 0 1.4 4.9l-10 4.1a.88.88 0 0 0-.5 1.2.84.84 0 0 0 .8.6.37.37 0 0 0 .3-.1l10.1-4.2a22.64 22.64 0 0 0 2.6 4.2l-7.3 8.2a.94.94 0 0 0 .1 1.3.73.73 0 0 0 .6.2 1.08 1.08 0 0 0 .7-.3l7.2-8a24.38 24.38 0 0 0 8.3 5.8 23.32 23.32 0 0 0 9 1.8 23.69 23.69 0 0 0 9-1.8l11.2-4.6a23.26 23.26 0 0 0 12.7-12.7 24.45 24.45 0 0 0 1.8-9.9l10.8.6a.9.9 0 0 0 .9-.9 1.07 1.07 0 0 0-1-.99zM190.15 141a7.67 7.67 0 0 1-4.2-4.1 7.55 7.55 0 0 1-.4-4.9l6.8 2.8c.1 0 .2.1.3.1a.87.87 0 0 0 .3-1.7l-6.9-2.9a7.52 7.52 0 0 1 9.5-3.5l1.3.6c.2.1.3.2.5.3s.2.1.3.2l.1.1a15.38 15.38 0 0 1 1.2 1.3 1.38 1.38 0 0 1 .3.4c.1.2.2.3.3.5a7.26 7.26 0 0 1 .8 5.2l-.2.8a.35.35 0 0 1-.1.2l-.2.4a7.45 7.45 0 0 1-9.7 4.2zm-56.9 17.6a7.7 7.7 0 0 1 3.3-9.6l2.9 7a.88.88 0 0 0 1.2.5l7-2.9a7.64 7.64 0 0 1-14.4 5zm50.2-3.4a3.55 3.55 0 0 1 1-.2 2.81 2.81 0 0 1 2.6 1.7 2.56 2.56 0 0 1 0 2.1 2.76 2.76 0 0 1-1.5 1.5c-.1 0-.2.1-.3.1a1.27 1.27 0 0 1-.6.1 2.62 2.62 0 0 1-2.7-1.7 2.76 2.76 0 0 1 1.5-3.59zm-22.4 14.4a2.76 2.76 0 0 1 0-5.1 3.59 3.59 0 0 1 1.1-.2 2.81 2.81 0 0 1 2.6 1.7 2.77 2.77 0 0 1-.7 3.1c-.2.1-.3.3-.5.4s-.2.1-.3.1a2.8 2.8 0 0 1-2.2.01zm47.6 22.3a21 21 0 0 1-4.7 7 22.11 22.11 0 0 1-7 4.7l-11.2 4.6a21.7 21.7 0 0 1-16.6 0 21.32 21.32 0 0 1-11.7-11.7 21.7 21.7 0 0 1 0-16.6 22 22 0 0 1 6.9-9 3 3 0 0 1 .7-.5 20.17 20.17 0 0 1 4.1-2.2l11.2-4.6a27.08 27.08 0 0 1 4.4-1.3 2.2 2.2 0 0 1 .8-.1 15.14 15.14 0 0 1 3-.2 21.52 21.52 0 0 1 20 13.4 21 21 0 0 1 .1 16.51z" transform="translate(-5.27 -5.13)"/></svg>