<?xml version="1.0" encoding="utf-8"?>
<!-- Generator: Adobe Illustrator 19.0.0, SVG Export Plug-In . SVG Version: 6.00 Build 0)  -->
<!DOCTYPE svg PUBLIC "-//W3C//DTD SVG 1.1//EN" "http://www.w3.org/Graphics/SVG/1.1/DTD/svg11.dtd">
<svg version="1.1" id="Layer_1" xmlns="http://www.w3.org/2000/svg" xmlns:xlink="http://www.w3.org/1999/xlink" x="0px" y="0px"
	 viewBox="-189 189.3 260 103.4" style="enable-background:new -189 189.3 260 103.4;" xml:space="preserve">
<g>
	<polygon points="-108.2,189.3 -175.2,189.3 -175.2,208.3 -152.2,208.3 -152.2,290.3 -131.2,290.3 -131.2,208.3 -108.2,208.3 	"/>
	<g>
		<rect x="-98.2" y="189.3" width="19" height="18"/>
		<rect x="-98.2" y="217.3" width="19" height="73"/>
	</g>
	<path d="M18.3,214.9c-21.5,0-38.9,17.4-38.9,38.9c0,21.5,17.4,38.9,38.9,38.9s38.9-17.4,38.9-38.9
		C57.2,232.3,39.8,214.9,18.3,214.9z M-2.7,253.8c0-12.2,9.9-22,22-22s22,9.8,22,22c0,1-0.1,1.9-0.2,2.8
		c-1.8-14-14.8-15.5-18.9-15.5c-4.5,0-5.9,0.6-8.4,2.2v15c0,0,2.2-1.5,5.1-1.5c2.9,0,9,1.7,9,8.9c0,7.2-4.9,10-9.6,10
		C7.2,275.8-2.7,265.6-2.7,253.8z"/>
	<path d="M-28.2,232.3v-16h-14v-27h-18v27h-9v16h9v35c0,0,0,6.3,0,7c0,0.7,0,16.6,31,16v-16c0,0-13,0.9-13-7v-35H-28.2z"/>
</g>
</svg>
