<?xml version="1.0" encoding="utf-8"?>
<!-- Generator: Adobe Illustrator 15.0.2, SVG Export Plug-In . SVG Version: 6.00 Build 0)  -->
<!DOCTYPE svg PUBLIC "-//W3C//DTD SVG 1.1//EN" "http://www.w3.org/Graphics/SVG/1.1/DTD/svg11.dtd" [
	<!ENTITY ns_extend "http://ns.adobe.com/Extensibility/1.0/">
	<!ENTITY ns_ai "http://ns.adobe.com/AdobeIllustrator/10.0/">
	<!ENTITY ns_graphs "http://ns.adobe.com/Graphs/1.0/">
	<!ENTITY ns_vars "http://ns.adobe.com/Variables/1.0/">
	<!ENTITY ns_imrep "http://ns.adobe.com/ImageReplacement/1.0/">
	<!ENTITY ns_sfw "http://ns.adobe.com/SaveForWeb/1.0/">
	<!ENTITY ns_custom "http://ns.adobe.com/GenericCustomNamespace/1.0/">
	<!ENTITY ns_adobe_xpath "http://ns.adobe.com/XPath/1.0/">
]>
<svg version="1.1" id="Layer_1" xmlns:x="&ns_extend;" xmlns:i="&ns_ai;" xmlns:graph="&ns_graphs;"
	 xmlns="http://www.w3.org/2000/svg" xmlns:xlink="http://www.w3.org/1999/xlink" x="0px" y="0px" width="398.304px"
	 height="132.59px" viewBox="0 0 398.304 132.59" enable-background="new 0 0 398.304 132.59" xml:space="preserve">
<metadata>
	<sfw  xmlns="&ns_sfw;">
		<slices></slices>
		<sliceSourceBounds  x="301.981" y="-367.649" width="398.304" height="132.591" bottomLeftOrigin="true"></sliceSourceBounds>
	</sfw>
</metadata>
<g>
	<path fill="#663399" d="M0,65.797C0,28.906,29.906,0,66.796,0s66.795,28.906,66.795,65.797c0,39.556-29.904,66.793-66.795,66.793
		C29.906,132.59,0,105.353,0,65.797z"/>
	<path fill="#FFFFFF" d="M68.071,114.384c-6.745,0.001-13.915-2.813-21.313-8.364c-4.364-3.275-6.869-5.855-9.079-8.131
		c-1.914-1.972-3.722-3.834-6.579-5.978c-2.769-2.077-5.744-3.341-7.605-3.83c-0.978-0.257-1.76-0.989-2.081-1.948
		s-0.138-2.014,0.487-2.809c3.072-3.904,6.536-5.884,10.295-5.884c2.719,0,5.516,1.063,8.312,3.161
		c2.612,1.962,5.001,4.352,7.576,7.244L86.47,54.492c1.067-0.926,2.638-0.984,3.769-0.135l9.445,7.088
		c0.725,0.544,1.165,1.386,1.197,2.292c0.032,0.905-0.346,1.777-1.029,2.372L60.87,100.006c2.08,1.223,3.969,1.82,5.727,1.82
		c3.353,0,6.641-2.211,10.053-6.758c1.421-1.895,1.58-2.715,1.686-3.258c0.082-0.421,0.194-0.996,0.557-1.611
		c0.433-0.736,1.159-1.252,1.996-1.42c0.837-0.17,1.707,0.029,2.389,0.541c2.965,2.225,4.688,4.526,5.271,7.039
		c0.652,2.816-0.164,5.773-2.427,8.789C81.652,111.104,75.242,114.383,68.071,114.384z"/>
	<path fill="#FFFFFF" d="M47.203,76.866c-0.632,0-1.266-0.199-1.801-0.601l-9.445-7.088c-0.725-0.544-1.165-1.386-1.197-2.292
		c-0.032-0.904,0.346-1.776,1.029-2.371l38.981-33.899c-2.08-1.222-3.969-1.82-5.727-1.82c-3.353,0-6.641,2.21-10.053,6.757
		c-1.421,1.895-1.58,2.715-1.686,3.259c-0.082,0.42-0.194,0.996-0.557,1.611c-0.433,0.736-1.159,1.252-1.996,1.419
		c-0.836,0.169-1.705-0.029-2.389-0.542c-2.965-2.224-4.688-4.526-5.271-7.039c-0.652-2.816,0.164-5.773,2.427-8.789
		c4.468-5.955,10.878-9.235,18.049-9.235c6.745,0,13.916,2.814,21.313,8.364c4.364,3.275,6.869,5.855,9.079,8.131
		c1.914,1.972,3.722,3.833,6.579,5.978c2.769,2.077,5.744,3.341,7.605,3.83c0.978,0.257,1.76,0.99,2.081,1.948
		s0.138,2.014-0.487,2.809c-3.072,3.904-6.536,5.884-10.295,5.884c-2.719,0-5.516-1.064-8.312-3.162
		c-2.612-1.961-5.001-4.352-7.576-7.243L49.171,76.13C48.608,76.619,47.906,76.866,47.203,76.866z"/>
</g>
<g>
	<g>
		<path fill="#663399" d="M163.327,58.904c-2.293,1.698-4.756,2.505-7.729,2.505c-2.676,0-5.351-0.764-6.965-2.378
			c-1.273-1.273-1.741-2.888-1.741-5.945v-8.875h-3.906v-2.76l10.743-9.555h1.996v6.709h7.092v5.605h-7.092v6.71
			c0,2.08,0.807,2.973,2.633,2.973c1.486,0,3.143-0.553,4.969-1.741V58.904z"/>
		<path fill="#663399" d="M175.898,38.605v5.988h0.085c1.571-4.204,4.077-6.37,7.177-6.37c1.698,0,3.397,0.552,5.436,1.741
			l-3.907,8.917c-1.401-1.316-2.548-1.868-3.779-1.868c-2.165,0-3.694,2.123-4.161,4.714v9.3h-8.833V38.605H175.898z"/>
		<path fill="#663399" d="M214.203,52.789c0,2.081,1.189,2.93,3.312,2.208l-2.293,6.03c-1.358,0.297-2.421,0.382-3.821,0.382
			c-3.397,0-4.969-1.062-5.69-3.864c-2.081,2.591-4.587,3.864-7.645,3.864c-3.736,0-7.644-1.953-7.644-8.493V38.605h8.833v12.146
			c0,2.378,0.807,3.397,2.633,3.397c1.316,0,2.336-0.68,3.482-2.294V38.605h8.832V52.789z"/>
		<path fill="#663399" d="M238.538,58.904c-2.293,1.698-4.756,2.505-7.729,2.505c-2.676,0-5.351-0.764-6.965-2.378
			c-1.273-1.273-1.741-2.888-1.741-5.945v-8.875h-3.906v-2.76l10.743-9.555h1.996v6.709h7.092v5.605h-7.092v6.71
			c0,2.08,0.807,2.973,2.633,2.973c1.486,0,3.143-0.553,4.969-1.741V58.904z"/>
		<path fill="#663399" d="M243.041,32.066h8.833v9.385c2.081-2.251,4.204-3.228,7.177-3.228c4.374,0,7.686,2.378,7.686,8.238v14.565
			h-8.832v-12.23c0-2.08-0.935-3.312-2.591-3.312c-1.273,0-2.421,0.764-3.439,2.208v13.334h-8.833V32.066z"/>
		<path fill="#663399" d="M273.278,46.972h-3.439v-5.605h3.439V40.05c0-5.351,3.397-8.366,9.003-8.366
			c1.401,0,2.633,0.17,3.821,0.468v5.859c-0.637-0.212-0.977-0.297-1.486-0.297c-1.741,0-2.505,0.935-2.505,3.015v0.638h3.821v5.605
			h-3.821v14.056h-8.833V46.972z"/>
		<path fill="#663399" d="M312.856,52.789c0,2.081,1.189,2.93,3.312,2.208l-2.293,6.03c-1.358,0.297-2.421,0.382-3.822,0.382
			c-3.396,0-4.968-1.062-5.689-3.864c-2.081,2.591-4.587,3.864-7.645,3.864c-3.736,0-7.644-1.953-7.644-8.493V38.605h8.833v12.146
			c0,2.378,0.807,3.397,2.633,3.397c1.316,0,2.336-0.68,3.482-2.294V38.605h8.832V52.789z"/>
		<path fill="#663399" d="M319.272,32.066h8.832v28.961h-8.832V32.066z"/>
	</g>
	<g>
		<path fill="#663399" d="M163.327,90.536c-2.293,1.699-4.756,2.506-7.729,2.506c-2.676,0-5.351-0.764-6.965-2.379
			c-1.273-1.273-1.741-2.887-1.741-5.945v-8.875h-3.906v-2.76l10.743-9.554h1.996v6.708h7.092v5.605h-7.092v6.711
			c0,2.08,0.807,2.973,2.633,2.973c1.486,0,3.143-0.553,4.969-1.742V90.536z"/>
		<path fill="#663399" d="M189.954,88.667c-2.463,2.846-6.072,4.375-10.361,4.375c-7.729,0-12.739-5.139-12.739-11.678
			c0-6.582,4.969-11.508,11.593-11.508c6.837,0,12.188,5.477,11.211,13.248h-14.65c0.042,2.293,2.76,4.459,6.157,4.459
			c2.378,0,4.586-0.764,7.177-2.547L189.954,88.667z M182.396,79.792c-0.042-3.312-1.316-5.01-3.864-5.01
			c-2.293,0-4.076,1.486-3.864,5.01H182.396z"/>
		<path fill="#663399" d="M212.93,91.639c-2.931,1.062-4.714,1.402-7.135,1.402c-7.517,0-12.739-4.713-12.739-11.465
			c0-5.605,3.779-11.721,12.484-11.721c2.378,0,4.926,0.381,7.22,1.146v7.432c-1.954-0.893-3.737-1.316-5.605-1.316
			c-3.143,0-5.266,1.783-5.266,4.373c0,2.549,2.25,4.289,5.521,4.289c1.655,0,3.1-0.383,5.521-1.4V91.639z"/>
		<path fill="#663399" d="M217.39,63.698h8.833v9.384c2.081-2.25,4.204-3.227,7.177-3.227c4.374,0,7.686,2.377,7.686,8.238v14.564
			h-8.832V80.43c0-2.082-0.935-3.312-2.591-3.312c-1.273,0-2.421,0.764-3.439,2.207v13.334h-8.833V63.698z"/>
		<path fill="#663399" d="M246.184,70.237h8.832v2.932c2.421-2.379,4.417-3.312,7.22-3.312c4.926,0,7.686,3.014,7.686,7.982v14.82
			h-8.832V80.387c0-2.252-0.808-3.27-2.548-3.27c-1.401,0-2.549,0.764-3.525,2.42v13.121h-8.832V70.237z"/>
		<path fill="#663399" d="M287.164,69.856c9.555,0,13.207,6.156,13.207,11.592c0,5.945-4.204,11.594-13.122,11.594
			c-9.555,0-13.292-6.115-13.292-11.594C273.957,75.672,277.906,69.856,287.164,69.856z M287.164,85.78
			c2.591,0,4.374-1.783,4.374-4.332c0-2.547-1.783-4.33-4.374-4.33c-2.59,0-4.374,1.783-4.374,4.33
			C282.79,83.997,284.574,85.78,287.164,85.78z"/>
		<path fill="#663399" d="M304.662,63.698h8.832v28.96h-8.832V63.698z"/>
		<path fill="#663399" d="M330.949,69.856c9.555,0,13.207,6.156,13.207,11.592c0,5.945-4.204,11.594-13.122,11.594
			c-9.555,0-13.292-6.115-13.292-11.594C317.742,75.672,321.691,69.856,330.949,69.856z M330.949,85.78
			c2.591,0,4.374-1.783,4.374-4.332c0-2.547-1.783-4.33-4.374-4.33c-2.59,0-4.374,1.783-4.374,4.33
			C326.575,83.997,328.359,85.78,330.949,85.78z"/>
		<path fill="#663399" d="M370.741,74.655h-3.354c0.977,1.443,1.358,2.633,1.358,4.33c0,2.039-0.765,3.609-2.038,4.885
			c-3.439,3.439-7.135,1.74-7.135,3.65c0,1.912,5.563,0.553,8.791,3.781c1.104,1.104,1.656,2.377,1.656,3.906
			c0,3.736-3.695,7.262-11.976,7.262c-8.62,0-10.956-2.719-10.956-5.691c0-2.377,2.123-4.543,5.562-5.01v-0.086
			c-1.273-0.551-1.868-1.443-1.868-2.633c0-1.359,0.935-2.42,2.633-3.057c-3.567-1.359-5.436-3.865-5.436-7.262
			c0-4.035,3.143-8.875,11.933-8.875h10.829V74.655z M358.384,99.03c2.973,0,4.544-0.936,4.544-2.762
			c0-1.867-1.784-3.143-4.544-3.143c-2.548,0-4.247,1.189-4.247,3.016C354.137,97.84,355.199,99.03,358.384,99.03z M358.299,81.788
			c2.123,0,3.737-1.4,3.737-3.27s-1.529-3.186-3.695-3.186c-2.08,0-3.651,1.402-3.651,3.271
			C354.689,80.387,356.261,81.788,358.299,81.788z"/>
		<path fill="#663399" d="M380.766,89.389l-8.876-19.152h9.513l4.119,11l4.501-11h8.281l-15.5,32.104h-8.366L380.766,89.389z"/>
	</g>
</g>
</svg>
