<svg id="Layer_1" data-name="Layer 1" xmlns="http://www.w3.org/2000/svg" viewBox="0 0 291.82 102.93"><defs><style>.cls-1{fill:#a31eba}.cls-2{fill:#05b4dd}</style></defs><path class="cls-1" d="M135.91 97.45a6.34 6.34 0 0 1 .48-2 5.73 5.73 0 0 1 1-1.74 11 11 0 0 0 4.92 1.49 2.78 2.78 0 0 0 1.52-.34 1 1 0 0 0 .53-.9c0-.71-.54-1.24-1.63-1.59l-1.94-.74c-3-1.09-4.42-2.85-4.42-5.3a5.27 5.27 0 0 1 1.86-4.26 7.46 7.46 0 0 1 5-1.58 15.35 15.35 0 0 1 3.43.44 14.53 14.53 0 0 1 3.07 1 4.93 4.93 0 0 1-.39 2.17 3.61 3.61 0 0 1-1.13 1.68 12.52 12.52 0 0 0-4.95-1.34 1.59 1.59 0 0 0-1.07.31 1 1 0 0 0-.38.82c0 .56.45 1 1.35 1.34l2.19.78c3.13 1.11 4.7 3 4.7 5.69a5.12 5.12 0 0 1-1.94 4.21 8.75 8.75 0 0 1-5.55 1.55 13.37 13.37 0 0 1-6.65-1.69zM168 96.11a6.11 6.11 0 0 1-.67 1.59 4.18 4.18 0 0 1-1 1.24 4.69 4.69 0 0 1-3.82-1.88 7.19 7.19 0 0 1-5 2.12 6 6 0 0 1-2.41-.44 5.21 5.21 0 0 1-1.73-1.18 5 5 0 0 1-1.06-1.72 6 6 0 0 1-.35-2 6.1 6.1 0 0 1 .55-2.67 5.23 5.23 0 0 1 1.5-1.91 6.83 6.83 0 0 1 2.23-1.15 9.17 9.17 0 0 1 2.72-.39h1.43l1.08.05v-.68a2 2 0 0 0-2.3-2.25 20.77 20.77 0 0 0-5.2 1.17 7.14 7.14 0 0 1-1.34-3.86q.85-.31 1.89-.6c.7-.19 1.41-.35 2.14-.49s1.45-.26 2.16-.34a17 17 0 0 1 1.91-.12 8.21 8.21 0 0 1 2.38.35 5.86 5.86 0 0 1 2 1.08 5.3 5.3 0 0 1 1.38 1.87 6.73 6.73 0 0 1 .51 2.74v7.18a2.58 2.58 0 0 0 1 2.29zm-10.7-2.65c0 1.1.64 1.66 1.91 1.66a3.66 3.66 0 0 0 2.23-1v-2.86l-1.19-.05h-.72a2 2 0 0 0-2.23 2.25zM186.33 87v7.24a6 6 0 0 0 .84 3.5 4.6 4.6 0 0 1-3.17 1.2 3.06 3.06 0 0 1-2.51-.85 4.12 4.12 0 0 1-.68-2.58V88a3.81 3.81 0 0 0-.31-1.77 1.29 1.29 0 0 0-1.24-.57 3.12 3.12 0 0 0-1.2.29 4.67 4.67 0 0 0-1.38.92v11.8a12 12 0 0 1-1.31.16h-2.9a12 12 0 0 1-1.31-.16V81l.25-.25h2.09a2.86 2.86 0 0 1 2.9 2.13 7.49 7.49 0 0 1 4.91-2.2 4.42 4.42 0 0 1 3.69 1.73 7.37 7.37 0 0 1 1.33 4.59zM204.32 80.66a7.4 7.4 0 0 1 3.29.78v-8.56l.21-.25H210a3 3 0 0 1 2.36.75A4 4 0 0 1 213 76v17.6a2.88 2.88 0 0 0 1 2.55 6.11 6.11 0 0 1-.67 1.59 4 4 0 0 1-1 1.24 4.3 4.3 0 0 1-3.78-2 6.78 6.78 0 0 1-5.09 2.22 5.1 5.1 0 0 1-4.56-2.47 14.68 14.68 0 0 1-1-10.63 8.89 8.89 0 0 1 1.5-2.91 6.74 6.74 0 0 1 2.24-1.86 6.14 6.14 0 0 1 2.68-.67zm.68 14.07a3.33 3.33 0 0 0 2.6-1.38v-7.74a5.08 5.08 0 0 0-2.32-.85q-2.41 0-2.42 5.3.01 4.67 2.14 4.67zM223.66 85.08v13.57a12.35 12.35 0 0 1-1.31.16h-2.92a11.93 11.93 0 0 1-1.32-.16V87c0-1.37-.56-2-1.67-2h-.53a6.54 6.54 0 0 1-.21-2 8 8 0 0 1 .21-2l1.7-.13h2.19a3.64 3.64 0 0 1 2.83 1.13 4.44 4.44 0 0 1 1.03 3.08zm-6.19-11.17a5.42 5.42 0 0 1 2.65-.57 4.89 4.89 0 0 1 2.58.57 5.1 5.1 0 0 1 0 4.1 5.9 5.9 0 0 1-2.69.53 5 5 0 0 1-2.54-.53 5.21 5.21 0 0 1 0-4.1zM241.58 91.62h-9.19a3.9 3.9 0 0 0 .81 2.45 3 3 0 0 0 2.43.87 9.38 9.38 0 0 0 2-.24 18.6 18.6 0 0 0 2.55-.78 5.6 5.6 0 0 1 1.45 3.25 11.67 11.67 0 0 1-6.93 2 8.74 8.74 0 0 1-3.73-.7 6.51 6.51 0 0 1-2.44-2 7.85 7.85 0 0 1-1.32-3 17.15 17.15 0 0 1-.39-3.78 13.68 13.68 0 0 1 .47-3.66 8.42 8.42 0 0 1 1.45-2.92 6.82 6.82 0 0 1 2.48-1.94 8.19 8.19 0 0 1 3.52-.71 7.79 7.79 0 0 1 3.05.57 6.85 6.85 0 0 1 2.32 1.55 7 7 0 0 1 1.42 2.42 8.61 8.61 0 0 1 .51 3 12.36 12.36 0 0 1-.46 3.62zm-9.23-3.82H237v-.39a3.74 3.74 0 0 0-.58-2.16 2 2 0 0 0-1.73-.84 1.88 1.88 0 0 0-1.67.79 5.34 5.34 0 0 0-.67 2.6zM256.14 82.14a4.47 4.47 0 0 1 3.33-1.41 4.52 4.52 0 0 1 1.07 1.27 4.22 4.22 0 0 1 .62 1.56 2.86 2.86 0 0 0-1 2.54v9.34a23.85 23.85 0 0 1-.51 5.39 8.34 8.34 0 0 1-1.55 3.39 5.48 5.48 0 0 1-2.64 1.75 12.66 12.66 0 0 1-3.75.5 18.16 18.16 0 0 1-6.64-1.17 6.87 6.87 0 0 1 .39-2.16 5.55 5.55 0 0 1 .95-1.84 11.61 11.61 0 0 0 4.81 1.06q3.57 0 3.57-3.57v-1.16a6.77 6.77 0 0 1-4 1.38 5.3 5.3 0 0 1-4.76-2.5 12.38 12.38 0 0 1-1.6-6.77 12.93 12.93 0 0 1 .54-3.87 9.1 9.1 0 0 1 1.49-2.87 6.54 6.54 0 0 1 2.21-1.84 5.72 5.72 0 0 1 2.67-.64 7.17 7.17 0 0 1 4.8 1.62zm-1.34 11.21v-7.57a3.55 3.55 0 0 0-2.35-1.2c-1.62 0-2.42 1.77-2.42 5.31q0 4.67 2.1 4.66a3.73 3.73 0 0 0 2.67-1.2zM277.07 82.57q2.55 2.54 2.55 7.28a12.88 12.88 0 0 1-.55 3.85 8.57 8.57 0 0 1-1.59 3 7 7 0 0 1-2.57 1.87 8.88 8.88 0 0 1-3.5.65 8.41 8.41 0 0 1-3.48-.67 7.14 7.14 0 0 1-2.54-1.89 8.19 8.19 0 0 1-1.58-3 14.1 14.1 0 0 1 0-7.66 8.75 8.75 0 0 1 1.56-3 6.91 6.91 0 0 1 2.54-1.91 8.74 8.74 0 0 1 3.5-.67 7.8 7.8 0 0 1 5.66 2.15zm-5.64 2.05a2 2 0 0 0-1.26.37 2.57 2.57 0 0 0-.77 1 5.11 5.11 0 0 0-.39 1.46 14.34 14.34 0 0 0-.11 1.79c0 1 0 1.84.09 2.56a7 7 0 0 0 .36 1.81 2.24 2.24 0 0 0 .75 1.07 2 2 0 0 0 1.26.36 2 2 0 0 0 2.07-1.36 11.88 11.88 0 0 0 .49-3.88 11.69 11.69 0 0 0-.49-3.87 2 2 0 0 0-2-1.31z" transform="translate(-4.09 -3.53)"/><path class="cls-2" d="M36.94 24.28h8.75v8.94h-8.75zm-5.18-.09H23v13.27a17.5 17.5 0 0 0-3.85-.46C10 37 4.09 42.73 4.09 51.58c0 9.23 5.55 13.93 16.28 14a57.89 57.89 0 0 0 11.39-1.13zM23 58.36a16.08 16.08 0 0 1-3 .19c-4.52 0-7-2.55-7-7.16S15.57 44 20 44a7.51 7.51 0 0 1 2.91.47z" transform="translate(-4.09 -3.53)"/><path class="cls-2" d="M36.94 54.69c0 7.53-.38 10.45-1.69 12.89s-3.11 4-7 5.84l8.1 3.86c3.85-1.88 5.74-3.67 7.15-6.4s2.1-6.22 2.1-13.18V37.55h-8.75v17.14zM62.54 37A25.73 25.73 0 0 0 51 39.63v6.68a23.06 23.06 0 0 1 10.26-2.64c2.16 0 3 .57 3 2.17v1.88c-10.73.94-15.16 3.67-15.16 9.79 0 5.65 3.3 8.19 10.64 8.19a94.2 94.2 0 0 0 12.52-.94v-17.7c0-3.58-.19-5.27-.94-6.59C70 38.12 67.06 37 62.54 37zm2.17 22.2a20.9 20.9 0 0 1-4.24.38c-2.35 0-3.48-.75-3.48-2.45 0-2.26 1.88-3.2 7.72-3.76zM149.8 66c8.85 0 14.5-5.65 14.5-14.78 0-8.84-5.36-14.3-14.12-14.3-8.94 0-14.49 5.64-14.49 14.77 0 8.83 5.36 14.31 14.11 14.31zm.29-22.12c3.39 0 5.27 2.83 5.27 7.53s-2 7.53-5.37 7.53-5.36-2.73-5.36-7.53 2-7.53 5.46-7.53zm-13.46-5.55a52 52 0 0 0-11.39-1.23c-12.81 0-20 5.56-20 15.44 0 7.91 4.89 13 12.52 13a11.64 11.64 0 0 0 5.64-1.22v.19c0 5.55-2.44 7.81-8.19 7.81a20.37 20.37 0 0 1-9.46-2.32v8a26.82 26.82 0 0 0 9.41 1.7c4.62 0 8.29-1 11-3a7.42 7.42 0 0 0 1.32-1 11.13 11.13 0 0 0 1.88-2.26c1.88-2.92 2.54-6.4 2.54-13.84v-2.47c-.09-1.22-.09-2.35-.09-3.57l-.1-4.71-.09-3.67v-.94c1.79.19-.38-.19 2 .19l3-6.12zm-13.18 18.9v.66a9.9 9.9 0 0 1-3.3.56c-3.86 0-6-2.45-6-6.78 0-3 1.13-5.17 3.2-6.4a9.56 9.56 0 0 1 5.08-1.22h.94v.66l.1 2.82.09 4c0 1.22.1 2.35.1 3.29zM90.31 37a55.81 55.81 0 0 0-13.74 2v26.23h8.75V44.61a14.85 14.85 0 0 1 4.05-.61c3.11 0 4.24 1.22 4.24 4.61v16.62h8.75v-17c0-4.33-.56-6.4-2.35-8.19s-5.18-3-9.7-3zM222.1 51.67c0-8.84-5.37-14.3-14.12-14.3-8.94 0-14.5 5.64-14.5 14.78 0 8.75 5.37 14.3 14.22 14.3s14.4-5.64 14.4-14.78zm-19.68.19c0-4.8 2-7.53 5.46-7.53s5.28 2.83 5.28 7.53-2 7.53-5.37 7.53-5.37-2.63-5.37-7.53zM241.77 49v16.7h8.76v-17c0-4.33-.57-6.4-2.36-8.19s-5.17-3-9.69-3a56 56 0 0 0-13.75 2V65.7h8.76V45.09a11.72 11.72 0 0 1 4-.57c3.1 0 4.23 1.22 4.23 4.52zM278 65c1.23-1.32 1.7-2.73 1.7-5.74V47.44h-6.12V59c0 2.35-.75 3.2-2.92 3.2a9.91 9.91 0 0 1-2.82-.47V47.44h-6V65.7a36.28 36.28 0 0 0 9.6 1.32c3 .09 5.26-.66 6.56-2.02zm-106.54-2.59c2.82 2.63 8 3.57 11.48 3.48a16.69 16.69 0 0 0 7.91-2V57a13.65 13.65 0 0 1-6 1.5c-3.39 0-8.75-1.32-8.75-7.34s5.36-7.34 8.75-7.34a11.74 11.74 0 0 1 5.84 1.69V38.4a17.68 17.68 0 0 0-7.69-1.69c-3.48 0-8.28 1-11.1 3.76a14.4 14.4 0 0 0-4.8 10.64 14.37 14.37 0 0 0 4.33 11.3zM289 54.59c-1.42-.66-1.32-1.41-1.32-1.41s0-1.22 2.45-1.22a11.94 11.94 0 0 1 5.08 1.22v-4.61a11.65 11.65 0 0 0-6.21-1.13c-7.06.28-7 5.65-7 5.65a5.2 5.2 0 0 0 1.38 3.91 17.63 17.63 0 0 0 5 2.82c1.32.47 1.79 1.13 1.79 1.42s.18 1.31-2.45 1.31a14.87 14.87 0 0 1-5.65-1.5v4.8a16.72 16.72 0 0 0 8.28 1c2.64-.47 5.28-1.31 5.56-5.55S292 55.91 289 54.59zm-36.34 4.14h7v7h-7z" transform="translate(-4.09 -3.53)"/><path class="cls-1" d="M70.4 19.09a5.63 5.63 0 0 1-.61 3 2.5 2.5 0 0 1-2.3 1h-8.77a7 7 0 0 1-1.07-1.35 2.85 2.85 0 0 1-.52-1.46 4.1 4.1 0 0 1 .87-2.49A16.18 16.18 0 0 1 60.51 15l3.17-2.87a3.93 3.93 0 0 0 1.55-2.79 2.12 2.12 0 0 0-.54-1.49 2 2 0 0 0-1.51-.59 2.11 2.11 0 0 0-1.62.74 4.34 4.34 0 0 0-1 1.83 6 6 0 0 1-.93-.08 5.29 5.29 0 0 1-.94-.27 4.85 4.85 0 0 1-.82-.42 2.09 2.09 0 0 1-.57-.58 6.86 6.86 0 0 1 .88-2 6.42 6.42 0 0 1 1.41-1.57 6.32 6.32 0 0 1 1.9-1 7.41 7.41 0 0 1 2.37-.37 6.65 6.65 0 0 1 2.41.46 5.63 5.63 0 0 1 1.91 1.2A5.46 5.46 0 0 1 69.44 7a6.14 6.14 0 0 1 .46 2.42 5.74 5.74 0 0 1-.9 3.12 12.84 12.84 0 0 1-2.6 2.76l-2.12 1.75a12.12 12.12 0 0 0-2.38 2.36q1.26-.15 2.37-.24c.73-.05 1.44-.08 2.1-.08zM74.56 5.44a7 7 0 0 1 9.6 0 7.11 7.11 0 0 1 1.67 3.33 22.52 22.52 0 0 1 .41 4.71 22.52 22.52 0 0 1-.41 4.71 7.11 7.11 0 0 1-1.67 3.33 7 7 0 0 1-9.6 0 7.11 7.11 0 0 1-1.67-3.33 23.22 23.22 0 0 1-.41-4.71 23.22 23.22 0 0 1 .41-4.71 7.11 7.11 0 0 1 1.67-3.33zm3.12 13.36a1.65 1.65 0 0 0 1.68 1.11 1.85 1.85 0 0 0 1.11-.32 2.23 2.23 0 0 0 .68-1.07 8.11 8.11 0 0 0 .34-2c.06-.82.09-1.84.09-3.07s0-2.25-.09-3.06a8.21 8.21 0 0 0-.34-2 2.19 2.19 0 0 0-.68-1.06 1.78 1.78 0 0 0-1.11-.32 1.81 1.81 0 0 0-1.12.32 2 2 0 0 0-.68 1.06 8.8 8.8 0 0 0-.33 2c0 .81-.08 1.84-.08 3.06a17 17 0 0 0 .53 5.35zM93.61 19.26v-6.01c0-.3 0-.85.09-1.68s.09-1.39.11-1.73a10.47 10.47 0 0 1-3.9 2.7 3 3 0 0 1-1.23-1A3.48 3.48 0 0 1 88 9.9 14.83 14.83 0 0 0 93.73 4a13.31 13.31 0 0 1 2.18-.17A12.42 12.42 0 0 1 98 4v15.26h3.58a7.8 7.8 0 0 1 0 3.76H89.35a8.18 8.18 0 0 1-.23-1.91 7.5 7.5 0 0 1 .23-1.85h2.38zM103.47 18.15c0-2 1-3.61 3.17-4.9a5.2 5.2 0 0 1-2.7-4.52 4.34 4.34 0 0 1 .5-2.07A4.92 4.92 0 0 1 105.82 5a6.63 6.63 0 0 1 2.08-1.09 8.4 8.4 0 0 1 2.61-.4 8.5 8.5 0 0 1 2.64.39 6 6 0 0 1 2 1.07 5 5 0 0 1 1.31 1.65 4.91 4.91 0 0 1 .54 2.17q0 2.4-2.73 3.93a7.07 7.07 0 0 1 2.45 2.28 5.39 5.39 0 0 1 .8 3 4.59 4.59 0 0 1-.56 2.28 5.28 5.28 0 0 1-1.54 1.72 7.49 7.49 0 0 1-2.31 1.1 10.39 10.39 0 0 1-2.85.38 9.76 9.76 0 0 1-2.81-.37 6.42 6.42 0 0 1-2.13-1 4.68 4.68 0 0 1-1.32-1.75 5 5 0 0 1-.53-2.21zm6.89-3.2l-.73-.26a4.12 4.12 0 0 0-1.63 3.19 2.31 2.31 0 0 0 .67 1.71 2.36 2.36 0 0 0 1.77.67 2.28 2.28 0 0 0 1.75-.67 2.37 2.37 0 0 0 .63-1.68c.04-1.33-.82-2.32-2.46-2.91zm-2-6.25a1.93 1.93 0 0 0 .6 1.44 5.31 5.31 0 0 0 1.83 1l.38.15a3.05 3.05 0 0 0 1.38-2.52 2 2 0 0 0-.55-1.44 2.31 2.31 0 0 0-3 0 1.82 1.82 0 0 0-.6 1.37z" transform="translate(-4.09 -3.53)"/></svg>