<svg xmlns="http://www.w3.org/2000/svg" viewBox="0 0 310 58.9"><title>DjangoCon.us</title><path fill="currentColor" d="M34.9.1h9.3v9.5h-9.3zM29.4 0h-9.3v14.1c-1.3-.3-2.7-.5-4.1-.5-9.7 0-16 6.1-16 15.5C0 38.9 5.9 43.9 17.3 44c4.1 0 8.1-.4 12.1-1.2V0zm-9.3 36.3c-1.1.2-2.1.2-3.2.2-4.8 0-7.4-2.7-7.4-7.6s2.7-7.9 7.4-7.9c1.1 0 2.1.1 3.1.5l.1 14.8z"/><path fill="currentColor" d="M34.9 32.4c0 8-.4 11.1-1.8 13.7s-3.3 4.3-7.4 6.2l8.6 4.1c4.1-2 6.1-3.9 7.6-6.8s2.2-6.6 2.2-14V14.2h-9.3v18.2zM62.1 13.6c-4.3 0-8.5.9-12.3 2.8v7.1c3.4-1.8 7.1-2.7 10.9-2.8 2.3 0 3.2.6 3.2 2.3v2c-11.4 1-16.1 3.9-16.1 10.4 0 6 3.5 8.7 11.3 8.7 4.4 0 8.9-.4 13.3-1V24.3c0-3.8-.2-5.6-1-7-1.4-2.5-4.5-3.7-9.3-3.7zm2.3 23.6c-1.5.3-3 .4-4.5.4-2.5 0-3.7-.8-3.7-2.6 0-2.4 2-3.4 8.2-4v6.2zM154.8 44.4c9.4 0 15.4-6 15.4-15.7 0-9.4-5.7-15.2-15-15.2-9.5 0-15.4 6-15.4 15.7 0 9.4 5.7 15.2 15 15.2zm.3-23.5c3.6 0 5.6 3 5.6 8s-2.1 8-5.7 8-5.7-2.9-5.7-8 2.1-8 5.8-8zM140.8 15c-4-.9-8.1-1.3-12.1-1.3-13.6 0-21.3 5.9-21.3 16.4 0 8.4 5.2 13.8 13.3 13.8 2.1.1 4.1-.4 6-1.3v.2c0 5.9-2.6 8.3-8.7 8.3-3.5 0-6.9-.8-10-2.4v8.5c3.2 1.2 6.6 1.8 10 1.8 4.9 0 8.8-1.1 11.7-3.2.5-.3 1-.7 1.4-1.1.8-.7 1.4-1.5 2-2.4 2-3.1 2.7-6.8 2.7-14.7V35c-.1-1.3-.1-2.5-.1-3.8l-.1-5-.1-3.9v-1c1.9.2-.4-.2 2.1.2l3.2-6.5zm-14 20.1v.7c-1.1.4-2.3.6-3.5.6-4.1 0-6.4-2.6-6.4-7.2 0-3.2 1.2-5.5 3.4-6.8 1.6-.9 3.5-1.4 5.4-1.3h1v.7l.1 3 .1 4.2c0 1.3.1 2.5.1 3.5l-.2 2.6zM91.6 13.6c-4.9.1-9.9.8-14.6 2.1v27.9h9.3V21.7c1.4-.4 2.8-.7 4.3-.7 3.3 0 4.5 1.3 4.5 4.9v17.7h9.3V25.5c0-4.6-.6-6.8-2.5-8.7s-5.5-3.2-10.3-3.2zM231.6 29.2c0-9.4-5.7-15.2-15-15.2-9.5 0-15.4 6-15.4 15.7 0 9.3 5.7 15.2 15.1 15.2s15.3-6 15.3-15.7zm-20.9.2c0-5.1 2.1-8 5.8-8s5.6 3 5.6 8-2.1 8-5.7 8-5.7-2.8-5.7-8zM252.5 26.4v17.7h9.3V26c0-4.6-.6-6.8-2.5-8.7s-5.5-3.2-10.3-3.2c-4.9.1-9.9.8-14.6 2.1v27.9h9.3V22.2c1.4-.4 2.8-.7 4.3-.6 3.3 0 4.5 1.3 4.5 4.8zM291 43.4c1.3-1.4 1.8-2.9 1.8-6.1V24.7h-6.5V37c0 2.5-.8 3.4-3.1 3.4-1 0-2-.2-3-.5V24.7h-6.4v19.4c3.3.9 6.7 1.4 10.2 1.4 3.2.1 5.6-.7 7-2.1zM177.8 40.6c3 2.8 8.5 3.8 12.2 3.7 2.9 0 5.8-.7 8.4-2.1v-7.4c-2 1-4.2 1.6-6.4 1.6-3.6 0-9.3-1.4-9.3-7.8s5.7-7.8 9.3-7.8c2.2 0 4.3.7 6.2 1.8v-7.5c-2.5-1.2-5.3-1.8-8.1-1.8-3.7 0-8.8 1.1-11.8 4-3.2 2.9-5.1 7-5.1 11.3-.3 4.5 1.4 8.9 4.6 12zM302.7 32.3c-1.5-.7-1.4-1.5-1.4-1.5s0-1.3 2.6-1.3c1.9 0 3.7.5 5.4 1.3v-4.9c-2-1-4.3-1.4-6.6-1.2-7.5.3-7.4 6-7.4 6-.2 1.5.4 3 1.4 4.2 1.6 1.3 3.4 2.3 5.3 3 1.4.5 1.9 1.2 1.9 1.5s.2 1.4-2.6 1.4c-2.1-.1-4.1-.7-6-1.6v5.1c2.8 1.1 5.9 1.5 8.8 1.1 2.8-.5 5.6-1.4 5.9-5.9.3-4.4-4.1-5.8-7.3-7.2zM264.1 36.7h7.4v7.4h-7.4z"/></svg>
