<svg xmlns="http://www.w3.org/2000/svg" viewBox="0 0 323.67 106.46"><defs><style>.cls-1{fill:#0c4b33;}.cls-2{fill:#d66315;}.cls-3{fill:#f1dfc7;}</style></defs><title>DjangoCon-2017-color-with-background</title><g id="Layer_2" data-name="Layer 2"><g id="nav-bg"><polygon class="cls-1" points="278.1 37.32 278.1 29.54 125.83 29.54 125.83 0 52.07 0 52.07 12.41 17.03 12.41 17.03 26.41 0 26.41 0 70.91 24.26 70.91 24.26 83.31 57.99 83.31 57.99 70.91 110.06 70.91 110.06 83.9 140.82 83.9 140.82 106.46 323.67 106.46 323.67 37.32 278.1 37.32"/></g><g id="nav_and_hero_text" data-name="nav and hero text"><path class="cls-2" d="M155.53,80.63c-2.33-.48-3.54-1.33-3.54-2.86,0-1.91,1.43-2.48,3.29-2.48,2.86,0,4.29,1.28,5.5,2a2,2,0,0,0,1.11.37c.63,0,1-.37,1-1.16V74c0-.85-.37-1.38-1.37-2a13.44,13.44,0,0,0-7-1.76c-4.6,0-8.84,2.68-8.85,7.82,0,4.92,3.75,6.68,7.66,7.48,2.65.53,3.86,1.33,3.86,3.24,0,2.17-1.86,2.59-3.71,2.59a13.07,13.07,0,0,1-6.14-2,2.27,2.27,0,0,0-1.16-.37c-.58,0-.9.37-.9,1.16v2.65a2.13,2.13,0,0,0,1.32,2,14.86,14.86,0,0,0,7.67,1.92c4.92,0,9.37-2.63,9.38-8.19C163.62,83.35,160.18,81.59,155.53,80.63Z"/><path class="cls-2" d="M180.64,70.41c-3.7,0-5.82,1.52-7,3.06a2.7,2.7,0,0,0-2.91-2.7h-2.59a1,1,0,0,0-1,1l-.06,29.85a1,1,0,0,0,1,1h4.55a1,1,0,0,0,1-1l0-8.21a8.28,8.28,0,0,0,6.93,3.14c6.25,0,10.44-4.48,10.45-13.05S186.88,70.42,180.64,70.41Zm-1.57,20.74a6.49,6.49,0,0,1-5.39-2.92l0-9.53a6.49,6.49,0,0,1,5.4-2.9c3.33,0,5.39,2.07,5.38,7.68S182.4,91.16,179.07,91.16Z"/><path class="cls-2" d="M205.72,70.3c-7.41,0-12.39,4.74-12.41,13.21s5,13.24,12.36,13.25S218,92,218,83.55,213.08,70.31,205.72,70.3Zm0,20.91c-3.55,0-5.82-2.29-5.81-7.68s2.29-7.67,5.84-7.66,5.77,2.29,5.76,7.68S209.18,91.21,205.68,91.21Z"/><path class="cls-2" d="M244.16,94.45a2.87,2.87,0,0,1-1.32-1.22L236.29,84a4,4,0,0,0-1.59-1.33,3.41,3.41,0,0,0,1.64-1.21L242.61,74a3.53,3.53,0,0,1,1.33-1.21.92.92,0,0,0,.69-.9.89.89,0,0,0-1-1h-4.18a3.33,3.33,0,0,0-2.86,1.53l-5.84,7.19a2.83,2.83,0,0,1-2.7,1.27l0-9.05a.93.93,0,0,0-1-1h-4.55a1,1,0,0,0-1,1l0,23.4a1,1,0,0,0,1,1h4.55a1,1,0,0,0,1-1l0-10.48a2.36,2.36,0,0,1,2.38,1.38l5.91,8.64a3.22,3.22,0,0,0,2.85,1.49h4.66a.89.89,0,0,0,1-1A.92.92,0,0,0,244.16,94.45Z"/><path class="cls-2" d="M266.88,91.48l0-12.17c0-5.82-2-8.9-9.09-8.91-3,0-6.88.57-8.95,1.57-1.22.58-1.7,1.16-1.7,2.11v2.33c0,.74.32,1.11.9,1.11A4.63,4.63,0,0,0,249.7,77a16.82,16.82,0,0,1,7-1.57c3.49,0,3.75,1.65,3.75,5.14v.48a25.32,25.32,0,0,0-4.71-.49c-6.72,0-10.22,3.47-10.23,8.19,0,5.77,3.8,7.84,8.19,7.85,3.6,0,5.51-1.26,6.73-2.58.37,1.75,1.64,2.6,3.75,2.6,3.07,0,3.81-1.53,3.82-2.85v-.63C267.25,93.17,266.88,92.69,266.88,91.48Zm-6.4-1a6.1,6.1,0,0,1-4.4,1.9c-2.43,0-4.13-.91-4.12-4,0-2.81,1.6-4.34,5.2-4.33a14.4,14.4,0,0,1,3.33.43Z"/><path class="cls-2" d="M286,70.66A12.23,12.23,0,0,0,278,73.61,2.72,2.72,0,0,0,275.08,71h-2.59a1,1,0,0,0-1,1l0,23.39a1,1,0,0,0,1,1H277a1,1,0,0,0,1-1l0-17.52a14.62,14.62,0,0,1,5.61-1.26c2,0,3.28,1,3.28,3.39l0,15.4a1,1,0,0,0,1,1h4.55a1,1,0,0,0,1-1l0-16.41C293.49,73.53,291.11,70.67,286,70.66Z"/><path class="cls-2" d="M319,81c0-7.15-4-10.54-10.41-10.55-7.67,0-11.81,5.48-11.83,13.21S300.57,96.94,308.93,97a15.46,15.46,0,0,0,8.95-2.42,2.48,2.48,0,0,0,.85-2.22V91.15c0-.74-.31-1.16-.9-1.17a6.34,6.34,0,0,0-1.85.63,12.46,12.46,0,0,1-5.19,1.16c-5,0-7.51-2.24-7.5-6.95l15.4,0A19.49,19.49,0,0,0,319,81Zm-6,.15-9.63,0c.33-3.86,1.76-6.14,5.3-6.13a4.2,4.2,0,0,1,4.44,4.56C313.15,80.08,313.09,80.61,313,81.19Z"/><path class="cls-2" d="M59.24,27l14.84,0c.46,0,.8-.27.8-.64V24c0-.37-.33-.64-.8-.64l-9.18,0c3.53-2.87,10-6.75,10-11.85C75,7,71.1,5,66.4,5a17.59,17.59,0,0,0-6.58,1.34c-.88.4-1.22.81-1.22,1.52V9.67a.81.81,0,0,0,.92.85,3.09,3.09,0,0,0,1.3-.47,8.43,8.43,0,0,1,4.61-1.41c2.22,0,3.9.92,3.89,3.05,0,2.33-1.85,4.22-4.46,6.49a73.41,73.41,0,0,0-5.75,5.16,2.39,2.39,0,0,0-.63,1.52v1.56C58.48,26.75,58.77,27,59.24,27Z"/><path class="cls-2" d="M85.87,27.41c5.53,0,9.36-2.79,9.37-11.14S91.44,5.06,85.91,5.05s-9.35,2.79-9.37,11.18S80.42,27.4,85.87,27.41Zm0-18.67c2.56,0,4,1.33,4,7.52s-1.48,7.47-4,7.47-4-1.29-4-7.48S83.43,8.73,85.9,8.74Z"/><path class="cls-2" d="M97,10.86h1.68l0,15.59c0,.37.33.64.8.64h3.65c.46,0,.8-.27.8-.64l0-20.4c0-.37-.33-.64-.8-.64h-2.52c-.46,0-.8.27-.8.64V6.3c0,1.22-.93,1.76-2.43,1.75H97c-.46,0-.8.27-.8.64v1.52C96.17,10.58,96.5,10.86,97,10.86Z"/><path class="cls-2" d="M122,7.62V6.07c0-.34-.29-.61-.75-.61l-14.63,0c-.46,0-.8.27-.8.64V8.51c0,.37.33.64.8.64l9.52,0-7.83,16a3.67,3.67,0,0,0-.46,1.35c0,.34.29.61.75.61h4a.91.91,0,0,0,1-.57l8-17.3A4.15,4.15,0,0,0,122,7.62Z"/><rect class="cls-3" x="43.21" y="20.49" width="9.31" height="9.46"/><path class="cls-3" d="M37.71,20.44H28.39V34.5A15.15,15.15,0,0,0,24.34,34c-9.73,0-16,6.1-16,15.5,0,9.76,5.92,14.84,17.29,14.85a61.59,61.59,0,0,0,12.08-1.26ZM28.39,56.72a22,22,0,0,1-3.2.24c-4.77,0-7.37-2.71-7.37-7.61s2.72-7.91,7.43-7.91a9.38,9.38,0,0,1,3.14.47Z"/><path class="cls-3" d="M43.21,52.86c0,8-.42,11.08-1.75,13.71s-3.26,4.26-7.37,6.17l8.64,4.07c4.11-2,6.1-3.89,7.61-6.83S52.51,63.4,52.51,56V34.67h-9.3Z"/><path class="cls-3" d="M70.46,34a28.3,28.3,0,0,0-12.33,2.75v7.13A24.65,24.65,0,0,1,69.08,41.1c2.35,0,3.2.61,3.2,2.28v2c-11.42,1-16.07,3.94-16.07,10.41,0,6,3.5,8.68,11.3,8.68a104.33,104.33,0,0,0,13.29-1V44.74c0-3.83-.25-5.63-1-7C78.38,35.28,75.24,34,70.46,34ZM72.7,57.61a26.05,26.05,0,0,1-4.47.42c-2.54,0-3.69-.84-3.69-2.64,0-2.4,2-3.36,8.16-4h0Z"/><path class="cls-3" d="M163.16,64.79c9.43,0,15.35-6,15.35-15.68,0-9.4-5.68-15.21-15-15.21-9.49,0-15.41,6-15.43,15.74C148.11,59,153.85,64.79,163.16,64.79Zm.24-23.48c3.57,0,5.62,3,5.62,8s-2.11,8-5.68,8-5.74-2.93-5.74-8S159.71,41.31,163.4,41.31Z"/><path class="cls-3" d="M149.09,35.39a59,59,0,0,0-12.15-1.32c-13.59,0-21.27,5.92-21.27,16.41,0,8.44,5.19,13.77,13.35,13.77a12.93,12.93,0,0,0,6-1.26v.18c0,5.86-2.6,8.32-8.7,8.32a21.33,21.33,0,0,1-10-2.45v8.51a26.75,26.75,0,0,0,10,1.8q7.39,0,11.75-3.19A13.1,13.1,0,0,0,139.49,75a13.38,13.38,0,0,0,2-2.4c2-3.06,2.66-6.77,2.66-14.67V55.45c-.06-1.26-.06-2.52-.12-3.78l-.06-5-.12-3.89v-1c1.87.18-.41-.23,2.07.25Zm-14,20.18v.67a11.6,11.6,0,0,1-3.5.59c-4.11,0-6.41-2.64-6.41-7.24,0-3.23,1.15-5.51,3.38-6.77a10.23,10.23,0,0,1,5.38-1.32h1v.71l.06,3.05.06,4.25c0,1.26.06,2.46.06,3.54Z"/><path class="cls-3" d="M100,34a56.29,56.29,0,0,0-14.62,2.09V64h9.3V42.11a13.92,13.92,0,0,1,4.29-.66c3.32,0,4.53,1.32,4.53,4.86V64h9.31V45.93c0-4.61-.61-6.77-2.54-8.74S104.72,34,100,34Z"/><path class="cls-3" d="M239.94,49.66c0-9.4-5.68-15.21-15-15.21-9.49,0-15.41,6-15.43,15.74,0,9.34,5.74,15.15,15.05,15.15S239.94,59.3,239.94,49.66ZM219,49.88c0-5.09,2.11-8,5.8-8s5.62,3,5.62,8-2.11,8-5.68,8S219,55,219,49.88Z"/><path class="cls-3" d="M260.88,46.84V64.56h9.31V46.48c0-4.61-.61-6.77-2.54-8.74s-5.5-3.17-10.27-3.17a56.29,56.29,0,0,0-14.62,2.09v27.9h9.3V42.65a13.92,13.92,0,0,1,4.29-.66C259.66,42,260.88,43.31,260.88,46.84Z"/><path class="cls-3" d="M299.36,63.82c1.34-1.37,1.77-2.88,1.77-6.08V45.15h-6.48V57.49c0,2.46-.84,3.38-3.15,3.38a9.69,9.69,0,0,1-3-.46V45.15H282V64.58A39.19,39.19,0,0,0,292.21,66C295.53,66,297.93,65.28,299.36,63.82Z"/><path class="cls-3" d="M186.17,61c3,2.81,8.48,3.76,12.2,3.74a18.58,18.58,0,0,0,8.39-2.06V55.27a14.38,14.38,0,0,1-6.46,1.64c-3.6,0-9.33-1.4-9.33-7.79s5.73-7.79,9.33-7.79a11.57,11.57,0,0,1,6.19,1.85V35.63a18.49,18.49,0,0,0-8.07-1.78c-3.73,0-8.79,1.14-11.81,3.95a15.27,15.27,0,0,0-5.07,11.32A14.93,14.93,0,0,0,186.17,61Z"/><path class="cls-3" d="M311,52.72c-1.52-.69-1.36-1.5-1.36-1.5s0-1.31,2.56-1.27a13.4,13.4,0,0,1,5.35,1.27V46.34A12.93,12.93,0,0,0,311,45.17c-7.47.33-7.36,6-7.36,6a5.22,5.22,0,0,0,1.43,4.15,18.14,18.14,0,0,0,5.32,3c1.41.53,1.9,1.15,1.9,1.5s.16,1.41-2.6,1.41a17,17,0,0,1-6.05-1.57v5.11a17.09,17.09,0,0,0,8.84,1.06c2.81-.54,5.56-1.41,5.86-5.86S314.21,54.17,311,52.72Z"/><rect class="cls-3" x="272.44" y="57.17" width="7.39" height="7.39"/></g></g></svg>