<svg xmlns="http://www.w3.org/2000/svg" viewBox="0 0 323.67 106.46"><defs><style>.cls-1{fill:#231f20;}</style></defs><title>DjangoCon-2017-black-knockout</title><g id="Layer_2" data-name="Layer 2"><g id="nav_and_hero_text" data-name="nav and hero text"><path class="cls-1" d="M205.71,75.86c-3.55,0-5.83,2.26-5.84,7.66s2.26,7.68,5.81,7.68,5.77-2.26,5.78-7.66S209.2,75.86,205.71,75.86Z"/><path class="cls-1" d="M134.94,45.26l-.06-3.05V41.5h-1a10.23,10.23,0,0,0-5.38,1.32c-2.23,1.26-3.38,3.54-3.38,6.77,0,4.61,2.3,7.24,6.41,7.24a11.6,11.6,0,0,0,3.5-.59V53.05c0-1.08-.06-2.28-.06-3.54Z"/><path class="cls-1" d="M179.09,75.81a6.49,6.49,0,0,0-5.4,2.9l0,9.53a6.49,6.49,0,0,0,5.39,2.92c3.33,0,5.4-2.05,5.41-7.66S182.43,75.81,179.09,75.81Z"/><path class="cls-1" d="M72.7,51.44c-6.16.59-8.16,1.56-8.16,4,0,1.79,1.15,2.64,3.69,2.64a26.05,26.05,0,0,0,4.47-.42V51.44h0Z"/><path class="cls-1" d="M85.87,23.72c2.56,0,4-1.28,4-7.47s-1.45-7.51-4-7.52-4,1.31-4,7.5S83.4,23.72,85.87,23.72Z"/><path class="cls-1" d="M224.77,57.91c3.57,0,5.68-2.93,5.68-8s-2.05-8-5.62-8-5.8,2.93-5.8,8S221.15,57.91,224.77,57.91Z"/><path class="cls-1" d="M163.34,57.36c3.57,0,5.68-2.93,5.68-8s-2.05-8-5.62-8-5.8,2.93-5.8,8S159.72,57.36,163.34,57.36Z"/><path class="cls-1" d="M17.82,49.35c0,4.9,2.6,7.61,7.37,7.61a22,22,0,0,0,3.2-.24V41.92a9.38,9.38,0,0,0-3.14-.47C20.54,41.44,17.82,44.31,17.82,49.35Z"/><path class="cls-1" d="M252,88.43c0,3.07,1.69,4,4.12,4a6.1,6.1,0,0,0,4.4-1.9v-6a14.4,14.4,0,0,0-3.33-.43C253.55,84.1,252,85.63,252,88.43Z"/><path class="cls-1" d="M308.71,75c-3.55,0-5,2.27-5.3,6.13l9.63,0c.05-.58.11-1.11.11-1.59A4.2,4.2,0,0,0,308.71,75Z"/><path class="cls-1" d="M278.09,37.32V29.54H125.83V0H52.07V12.41H17v14H0V70.9H24.26V83.31H58V70.9h52.07v13h30.77v22.55H323.67V37.32Zm25.56,22.35a17,17,0,0,0,6.05,1.57c2.77,0,2.6-1.06,2.6-1.41s-.49-1-1.9-1.5a18.13,18.13,0,0,1-5.32-3,5.22,5.22,0,0,1-1.43-4.15s-.11-5.62,7.36-6a12.93,12.93,0,0,1,6.57,1.17v4.88A13.4,13.4,0,0,0,312.24,50c-2.58,0-2.56,1.27-2.56,1.27s-.16.81,1.36,1.5c3.17,1.45,7.62,2.79,7.32,7.25s-3,5.32-5.86,5.86a17.09,17.09,0,0,1-8.84-1.06ZM282,45.15h6.47V60.4a9.69,9.69,0,0,0,3,.46c2.31,0,3.15-.92,3.15-3.38V45.16h6.48V57.74c0,3.21-.43,4.71-1.77,6.08S295.53,66,292.21,66A39.18,39.18,0,0,1,282,64.58Zm-9.59,12h7.39v7.39h-7.39ZM225,34.45c9.3,0,15,5.81,15,15.21,0,9.64-5.92,15.68-15.35,15.68s-15.05-5.8-15.05-15.15C209.55,40.49,215.47,34.45,225,34.45ZM186.6,37.8c3-2.81,8.08-4,11.81-3.95a18.49,18.49,0,0,1,8.07,1.78v7.55a11.57,11.57,0,0,0-6.19-1.85c-3.6,0-9.33,1.4-9.33,7.79s5.73,7.79,9.33,7.79a14.39,14.39,0,0,0,6.47-1.64v7.44a18.58,18.58,0,0,1-8.39,2.06c-3.73,0-9.18-.93-12.2-3.74a14.93,14.93,0,0,1-4.64-11.92A15.27,15.27,0,0,1,186.6,37.8Zm-23.06-3.9c9.3,0,15,5.81,15,15.21,0,9.64-5.92,15.68-15.35,15.68S148.11,59,148.11,49.65C148.12,39.95,154,33.9,163.53,33.9ZM96.17,8.69c0-.37.34-.64.8-.64h.38c1.51,0,2.43-.54,2.43-1.75V6.06c0-.37.34-.64.8-.64h2.52c.46,0,.8.27.8.64l0,20.4c0,.37-.34.64-.8.64H99.41c-.46,0-.8-.27-.8-.64l0-15.59H97c-.46,0-.8-.27-.8-.64ZM85.91,5.05c5.53,0,9.34,2.82,9.33,11.21S91.4,27.42,85.87,27.41s-9.34-2.82-9.33-11.18S80.46,5,85.91,5.05ZM58.48,24.86a2.39,2.39,0,0,1,.63-1.52,73.41,73.41,0,0,1,5.75-5.16c2.6-2.26,4.45-4.15,4.46-6.49,0-2.13-1.67-3-3.89-3.05A8.43,8.43,0,0,0,60.82,10a3.09,3.09,0,0,1-1.3.47.81.81,0,0,1-.92-.85V7.88c0-.71.34-1.12,1.22-1.52A17.59,17.59,0,0,1,66.4,5c4.7,0,8.55,2,8.54,6.44,0,5.11-6.52,9-10,11.85l9.18,0c.46,0,.8.27.8.64v2.44c0,.37-.34.64-.8.64L59.24,27c-.46,0-.75-.27-.75-.61ZM8.33,49.53c0-9.4,6.28-15.5,16-15.5a15.15,15.15,0,0,1,4.05.47V20.44h9.31V63.12a61.59,61.59,0,0,1-12.08,1.26C14.25,64.37,8.33,59.28,8.33,49.53ZM52.51,56c0,7.36-.55,10.9-2.17,13.95s-3.5,4.78-7.61,6.83l-8.64-4.07c4.11-1.91,6.1-3.6,7.37-6.17s1.75-5.69,1.75-13.71V34.67h9.3Zm0-26.09H43.21V20.49h9.31ZM80.8,63.48a104.32,104.32,0,0,1-13.29,1c-7.8,0-11.3-2.69-11.3-8.68,0-6.47,4.65-9.46,16.07-10.41v-2c0-1.67-.85-2.28-3.2-2.28a24.65,24.65,0,0,0-10.94,2.81V36.78A28.3,28.3,0,0,1,70.46,34c4.78,0,7.92,1.26,9.31,3.72.78,1.38,1,3.17,1,7Zm32,.53h-9.31V46.3c0-3.54-1.21-4.86-4.53-4.86a13.92,13.92,0,0,0-4.29.66V64h-9.3V36.11A56.29,56.29,0,0,1,100,34c4.77,0,8.22,1.08,10.27,3.17s2.54,4.13,2.54,8.74Zm-.18-36.89h-4c-.46,0-.75-.27-.75-.61a3.68,3.68,0,0,1,.46-1.35l7.83-16-9.52,0c-.46,0-.8-.27-.8-.64V6.07c0-.37.34-.64.8-.64l14.63,0c.46,0,.75.27.75.61V7.62a4.15,4.15,0,0,1-.42,1.62l-8,17.3A.91.91,0,0,1,112.59,27.12Zm31.24,14.67v1l.12,3.89.06,5c.06,1.26.06,2.52.12,3.78V58c0,7.91-.67,11.61-2.66,14.67a13.37,13.37,0,0,1-2,2.4,13.09,13.09,0,0,1-1.33,1.12q-4.36,3.2-11.75,3.19a26.75,26.75,0,0,1-10-1.8V69a21.33,21.33,0,0,0,10,2.45c6.1,0,8.7-2.46,8.7-8.32V63a12.93,12.93,0,0,1-6,1.26c-8.16,0-13.35-5.33-13.35-13.77,0-10.48,7.68-16.41,21.27-16.41a59,59,0,0,1,12.15,1.32L145.9,42C143.43,41.56,145.7,42,143.83,41.79Zm10.4,54.88a14.86,14.86,0,0,1-7.67-1.92,2.13,2.13,0,0,1-1.32-2V90.09c0-.79.32-1.16.9-1.16a2.27,2.27,0,0,1,1.16.37,13.07,13.07,0,0,0,6.14,2c1.85,0,3.71-.42,3.71-2.59,0-1.91-1.21-2.7-3.86-3.24-3.92-.8-7.67-2.55-7.66-7.48,0-5.13,4.25-7.82,8.85-7.82a13.44,13.44,0,0,1,7,1.76c1,.64,1.37,1.17,1.37,2v2.54c0,.79-.32,1.16-1,1.16a2,2,0,0,1-1.11-.37c-1.22-.74-2.64-2-5.5-2-1.85,0-3.28.58-3.29,2.48,0,1.54,1.21,2.38,3.54,2.86,4.66,1,8.09,2.71,8.08,7.85C163.6,94,159.15,96.68,154.23,96.67Zm26.36-.11a8.28,8.28,0,0,1-6.93-3.14l0,8.21a1,1,0,0,1-1,1h-4.55a1,1,0,0,1-1-1l.05-29.85a1,1,0,0,1,1-1h2.59a2.7,2.7,0,0,1,2.91,2.7c1.17-1.53,3.29-3.06,7-3.06,6.25,0,10.42,4.52,10.4,13.09S186.84,96.57,180.59,96.56Zm25.08.2c-7.41,0-12.38-4.79-12.36-13.25s5-13.22,12.41-13.21S218,75.09,218,83.55,213,96.78,205.67,96.76Zm38.22-.46h-4.66a3.22,3.22,0,0,1-2.85-1.49l-5.91-8.64a2.36,2.36,0,0,0-2.38-1.38l0,10.48a1,1,0,0,1-1,1h-4.55a1,1,0,0,1-1-1l0-23.4a1,1,0,0,1,1-1h4.55a.93.93,0,0,1,1,1l0,9.05a2.83,2.83,0,0,0,2.7-1.27l5.84-7.19a3.33,3.33,0,0,1,2.86-1.53h4.18a.89.89,0,0,1,1,1,.92.92,0,0,1-.69.9A3.53,3.53,0,0,0,242.61,74l-6.26,7.45a3.41,3.41,0,0,1-1.64,1.21A4,4,0,0,1,236.29,84l6.55,9.27a2.87,2.87,0,0,0,1.32,1.22.92.92,0,0,1,.69.9A.89.89,0,0,1,243.89,96.3ZM268,93.81c0,1.32-.75,2.86-3.82,2.85-2.12,0-3.39-.85-3.75-2.6-1.22,1.32-3.13,2.59-6.73,2.58-4.39,0-8.2-2.08-8.19-7.85,0-4.71,3.51-8.2,10.23-8.19a25.32,25.32,0,0,1,4.71.49v-.48c0-3.49-.26-5.13-3.75-5.14a16.82,16.82,0,0,0-7,1.57,4.63,4.63,0,0,1-1.64.47c-.58,0-.9-.37-.9-1.11V74.08c0-1,.48-1.53,1.7-2.11,2.07-1,6-1.58,8.95-1.57,7.09,0,9.1,3.09,9.09,8.91l0,12.17c0,1.22.37,1.69,1.16,1.7Zm2.15-29.25h-9.31V46.84c0-3.54-1.21-4.86-4.53-4.86a13.92,13.92,0,0,0-4.29.66v21.9h-9.3V36.66a56.29,56.29,0,0,1,14.62-2.09c4.77,0,8.22,1.08,10.27,3.17s2.54,4.13,2.54,8.74Zm23.26,30.83a1,1,0,0,1-1,1h-4.55a1,1,0,0,1-1-1l0-15.4c0-2.43-1.26-3.39-3.28-3.39A14.62,14.62,0,0,0,278,77.84l0,17.52a1,1,0,0,1-1,1h-4.55a1,1,0,0,1-1-1l0-23.39a1,1,0,0,1,1-1h2.59A2.72,2.72,0,0,1,278,73.61,12.23,12.23,0,0,1,286,70.66c5.08,0,7.46,2.87,7.45,8.32Zm17.35-3.62A12.46,12.46,0,0,0,316,90.61a6.34,6.34,0,0,1,1.85-.63c.58,0,.9.42.9,1.17v1.16a2.48,2.48,0,0,1-.85,2.22A15.45,15.45,0,0,1,308.93,97c-8.36,0-12.16-5.53-12.15-13.25s4.15-13.22,11.83-13.21C315,70.5,319,73.9,319,81a19.48,19.48,0,0,1-.32,3.81l-15.4,0C303.29,89.53,305.77,91.76,310.8,91.77Z"/></g></g></svg>